CrimsonText_New_Draft_47 NUM Bold.ufo
<glyph name="exclam" format="1">
  <advance width="222"/>
  <unicode hex="0021"/>
  <outline>
    <contour>
      <point x="86" y="174" type="curve"/>
      <point x="136" y="174" type="line"/>
      <point x="149" y="258"/>
      <point x="197" y="308"/>
      <point x="197" y="366" type="curve"/>
      <point x="197" y="427"/>
      <point x="156" y="461"/>
      <point x="111" y="461" type="curve"/>
      <point x="65" y="461"/>
      <point x="25" y="427"/>
      <point x="25" y="366" type="curve"/>
      <point x="25" y="308"/>
      <point x="73" y="258"/>
    </contour>
    <contour>
      <point x="111" y="-7" type="curve"/>
      <point x="156" y="-7"/>
      <point x="193" y="27"/>
      <point x="193" y="70" type="curve"/>
      <point x="193" y="115"/>
      <point x="156" y="151"/>
      <point x="111" y="151" type="curve"/>
      <point x="67" y="151"/>
      <point x="29" y="115"/>
      <point x="29" y="70" type="curve"/>
      <point x="29" y="27"/>
      <point x="67" y="-7"/>
    </contour>
  </outline>
</glyph>
<glyph name="numbersign" format="1">
  <advance width="377"/>
  <unicode hex="0023"/>
  <outline>
    <contour>
      <point x="260" y="388" type="line"/>
      <point x="174" y="0" type="line"/>
      <point x="231" y="0" type="line"/>
      <point x="316" y="388" type="line"/>
    </contour>
    <contour>
      <point x="27" y="154" type="line"/>
      <point x="27" y="105" type="line"/>
      <point x="339" y="105" type="line"/>
      <point x="339" y="154" type="line"/>
    </contour>
    <contour>
      <point x="147" y="388" type="line"/>
      <point x="62" y="0" type="line"/>
      <point x="117" y="0" type="line"/>
      <point x="204" y="388" type="line"/>
    </contour>
    <contour>
      <point x="39" y="283" type="line"/>
      <point x="39" y="234" type="line"/>
      <point x="350" y="234" type="line"/>
      <point x="350" y="283" type="line"/>
    </contour>
  </outline>
</glyph>
<glyph name="dollar" format="1">
  <advance width="376"/>
  <unicode hex="0024"/>
  <outline>
    <contour>
      <point x="173" y="465" type="line"/>
      <point x="173" y="-77" type="line"/>
      <point x="232" y="-77" type="line"/>
      <point x="232" y="465" type="line"/>
    </contour>
    <contour>
      <point x="173" y="-6" type="curve"/>
      <point x="291" y="-6"/>
      <point x="367" y="46"/>
      <point x="367" y="119" type="curve"/>
      <point x="367" y="251"/>
      <point x="160" y="221"/>
      <point x="160" y="301" type="curve"/>
      <point x="160" y="330"/>
      <point x="187" y="347"/>
      <point x="220" y="347" type="curve"/>
      <point x="231" y="347"/>
      <point x="246" y="347"/>
      <point x="265" y="340" type="curve"/>
      <point x="272" y="324"/>
      <point x="283" y="292"/>
      <point x="289" y="262" type="curve"/>
      <point x="344" y="267" type="line"/>
      <point x="334" y="376" type="line"/>
      <point x="306" y="387"/>
      <point x="256" y="396"/>
      <point x="227" y="396" type="curve"/>
      <point x="112" y="396"/>
      <point x="37" y="344"/>
      <point x="37" y="267" type="curve"/>
      <point x="37" y="126"/>
      <point x="241" y="169"/>
      <point x="241" y="80" type="curve"/>
      <point x="241" y="60"/>
      <point x="224" y="44"/>
      <point x="186" y="44" type="curve"/>
      <point x="168" y="44"/>
      <point x="139" y="47"/>
      <point x="120" y="59" type="curve"/>
      <point x="109" y="86"/>
      <point x="99" y="114"/>
      <point x="93" y="139" type="curve"/>
      <point x="37" y="135" type="line"/>
      <point x="36" y="105"/>
      <point x="37" y="72"/>
      <point x="39" y="27" type="curve"/>
      <point x="79" y="6"/>
      <point x="134" y="-6"/>
    </contour>
  </outline>
</glyph>
<glyph name="percent" format="1">
  <advance width="577"/>
  <unicode hex="0025"/>
  <outline>
    <contour>
      <point x="107" y="34" type="line"/>
      <point x="162" y="-9" type="line"/>
      <point x="465" y="355" type="line"/>
      <point x="412" y="397" type="line"/>
    </contour>
    <contour>
      <point x="144" y="187" type="curve"/>
      <point x="209" y="187"/>
      <point x="262" y="232"/>
      <point x="262" y="292" type="curve"/>
      <point x="262" y="353"/>
      <point x="213" y="396"/>
      <point x="144" y="396" type="curve"/>
      <point x="81" y="396"/>
      <point x="28" y="350"/>
      <point x="28" y="292" type="curve"/>
      <point x="28" y="230"/>
      <point x="76" y="187"/>
    </contour>
    <contour>
      <point x="144" y="258" type="curve"/>
      <point x="125" y="258"/>
      <point x="110" y="270"/>
      <point x="110" y="292" type="curve"/>
      <point x="110" y="314"/>
      <point x="125" y="325"/>
      <point x="144" y="325" type="curve"/>
      <point x="166" y="325"/>
      <point x="181" y="314"/>
      <point x="181" y="292" type="curve"/>
      <point x="181" y="269"/>
      <point x="166" y="258"/>
    </contour>
    <contour>
      <point x="432" y="-7" type="curve"/>
      <point x="496" y="-7"/>
      <point x="549" y="38"/>
      <point x="549" y="97" type="curve"/>
      <point x="549" y="159"/>
      <point x="500" y="201"/>
      <point x="432" y="201" type="curve"/>
      <point x="368" y="201"/>
      <point x="315" y="155"/>
      <point x="315" y="97" type="curve"/>
      <point x="315" y="36"/>
      <point x="363" y="-7"/>
    </contour>
    <contour>
      <point x="432" y="64" type="curve"/>
      <point x="412" y="64"/>
      <point x="397" y="76"/>
      <point x="397" y="98" type="curve"/>
      <point x="397" y="119"/>
      <point x="412" y="132"/>
      <point x="432" y="132" type="curve"/>
      <point x="453" y="132"/>
      <point x="468" y="120"/>
      <point x="468" y="98" type="curve"/>
      <point x="468" y="75"/>
      <point x="453" y="64"/>
    </contour>
  </outline>
</glyph>
<glyph name="ampersand" format="1">
  <advance width="564"/>
  <unicode hex="0026"/>
  <outline>
    <contour>
      <point x="188" y="-8" type="curve"/>
      <point x="323" y="-8"/>
      <point x="433" y="56"/>
      <point x="496" y="187" type="curve"/>
      <point x="504" y="189"/>
      <point x="522" y="191"/>
      <point x="542" y="194" type="curve"/>
      <point x="540" y="231" type="line"/>
      <point x="519" y="230"/>
      <point x="478" y="229"/>
      <point x="456" y="229" type="curve"/>
      <point x="436" y="229"/>
      <point x="392" y="229"/>
      <point x="368" y="230" type="curve"/>
      <point x="367" y="192" type="line"/>
      <point x="377" y="192"/>
      <point x="402" y="190"/>
      <point x="414" y="187" type="curve"/>
      <point x="387" y="114"/>
      <point x="324" y="63"/>
      <point x="229" y="63" type="curve"/>
      <point x="162" y="63"/>
      <point x="143" y="93"/>
      <point x="143" y="122" type="curve"/>
      <point x="143" y="153"/>
      <point x="168" y="186"/>
      <point x="237" y="210" type="curve"/>
      <point x="314" y="232"/>
      <point x="368" y="283"/>
      <point x="368" y="340" type="curve"/>
      <point x="368" y="403"/>
      <point x="327" y="442"/>
      <point x="247" y="442" type="curve"/>
      <point x="162" y="442"/>
      <point x="95" y="389"/>
      <point x="95" y="305" type="curve"/>
      <point x="95" y="290"/>
      <point x="93" y="254"/>
      <point x="179" y="145" type="curve"/>
      <point x="255" y="48"/>
      <point x="321" y="-8"/>
      <point x="439" y="-8" type="curve"/>
      <point x="501" y="-8"/>
      <point x="557" y="19"/>
      <point x="588" y="66" type="curve"/>
      <point x="558" y="96" type="line"/>
      <point x="538" y="78"/>
      <point x="506" y="68"/>
      <point x="485" y="68" type="curve"/>
      <point x="409" y="68"/>
      <point x="371" y="111"/>
      <point x="315" y="170" type="curve"/>
      <point x="214" y="288"/>
      <point x="205" y="324"/>
      <point x="205" y="353" type="curve"/>
      <point x="205" y="378"/>
      <point x="219" y="394"/>
      <point x="239" y="394" type="curve"/>
      <point x="258" y="394"/>
      <point x="270" y="382"/>
      <point x="270" y="355" type="curve"/>
      <point x="270" y="302"/>
      <point x="259" y="280"/>
      <point x="181" y="233" type="curve"/>
      <point x="94" y="224"/>
      <point x="15" y="179"/>
      <point x="15" y="107" type="curve"/>
      <point x="15" y="41"/>
      <point x="78" y="-8"/>
    </contour>
  </outline>
</glyph>
<glyph name="quotesingle" format="1">
  <advance width="228"/>
  <unicode hex="0027"/>
  <outline>
    <contour>
      <point x="114" y="461" type="curve"/>
      <point x="72" y="461"/>
      <point x="41" y="428"/>
      <point x="41" y="379" type="curve"/>
      <point x="41" y="334"/>
      <point x="78" y="226"/>
      <point x="95" y="166" type="curve"/>
      <point x="133" y="166" type="line"/>
      <point x="150" y="226"/>
      <point x="187" y="334"/>
      <point x="187" y="379" type="curve"/>
      <point x="187" y="428"/>
      <point x="155" y="461"/>
    </contour>
  </outline>
</glyph>
<glyph name="parenleft" format="1">
  <advance width="289"/>
  <unicode hex="0028"/>
  <outline>
    <contour>
      <point x="289" y="456" type="curve"/>
      <point x="254" y="482" type="line"/>
      <point x="127" y="403"/>
      <point x="60" y="296"/>
      <point x="60" y="165" type="curve"/>
      <point x="60" y="37"/>
      <point x="127" y="-71"/>
      <point x="254" y="-151" type="curve"/>
      <point x="289" y="-126" type="line"/>
      <point x="225" y="-67"/>
      <point x="188" y="40"/>
      <point x="188" y="165" type="curve"/>
      <point x="188" y="291"/>
      <point x="225" y="397"/>
    </contour>
  </outline>
</glyph>
<glyph name="parenright" format="1">
  <advance width="289"/>
  <unicode hex="0029"/>
  <outline>
    <contour>
      <point x="35" y="482" type="curve"/>
      <point x="0" y="456" type="line"/>
      <point x="63" y="397"/>
      <point x="100" y="291"/>
      <point x="100" y="165" type="curve"/>
      <point x="100" y="40"/>
      <point x="63" y="-67"/>
      <point x="0" y="-126" type="curve"/>
      <point x="35" y="-151" type="line"/>
      <point x="161" y="-71"/>
      <point x="228" y="37"/>
      <point x="228" y="165" type="curve"/>
      <point x="228" y="296"/>
      <point x="161" y="403"/>
    </contour>
  </outline>
</glyph>
<glyph name="asterisk" format="1">
  <advance width="384"/>
  <unicode hex="002A"/>
  <outline>
    <contour>
      <point x="355" y="344" type="curve"/>
      <point x="345" y="373"/>
      <point x="324" y="389"/>
      <point x="290" y="378" type="curve"/>
      <point x="270" y="372"/>
      <point x="244" y="349"/>
      <point x="220" y="332" type="curve"/>
      <point x="229" y="361"/>
      <point x="245" y="392"/>
      <point x="245" y="411" type="curve"/>
      <point x="245" y="447"/>
      <point x="222" y="461"/>
      <point x="192" y="461" type="curve"/>
      <point x="162" y="461"/>
      <point x="139" y="447"/>
      <point x="139" y="411" type="curve"/>
      <point x="139" y="392"/>
      <point x="155" y="361"/>
      <point x="164" y="332" type="curve"/>
      <point x="140" y="350"/>
      <point x="114" y="373"/>
      <point x="94" y="378" type="curve"/>
      <point x="60" y="388"/>
      <point x="38" y="373"/>
      <point x="29" y="344" type="curve"/>
      <point x="21" y="317"/>
      <point x="26" y="290"/>
      <point x="61" y="280" type="curve"/>
      <point x="80" y="274"/>
      <point x="113" y="278"/>
      <point x="144" y="279" type="curve"/>
      <point x="120" y="261"/>
      <point x="88" y="245"/>
      <point x="75" y="229" type="curve"/>
      <point x="54" y="200"/>
      <point x="64" y="176"/>
      <point x="88" y="159" type="curve"/>
      <point x="113" y="141"/>
      <point x="140" y="140"/>
      <point x="162" y="169" type="curve"/>
      <point x="173" y="185"/>
      <point x="181" y="222"/>
      <point x="192" y="252" type="curve"/>
      <point x="203" y="222"/>
      <point x="210" y="185"/>
      <point x="222" y="169" type="curve"/>
      <point x="245" y="140"/>
      <point x="271" y="142"/>
      <point x="296" y="159" type="curve"/>
      <point x="320" y="175"/>
      <point x="330" y="200"/>
      <point x="309" y="229" type="curve"/>
      <point x="296" y="245"/>
      <point x="264" y="261"/>
      <point x="240" y="279" type="curve"/>
      <point x="271" y="278"/>
      <point x="304" y="274"/>
      <point x="323" y="280" type="curve"/>
      <point x="358" y="291"/>
      <point x="365" y="317"/>
    </contour>
  </outline>
</glyph>
<glyph name="plus" format="1">
  <advance width="378"/>
  <unicode hex="002B"/>
  <outline>
    <contour>
      <point x="341" y="134" type="line"/>
      <point x="341" y="204" type="line"/>
      <point x="37" y="204" type="line"/>
      <point x="37" y="134" type="line"/>
    </contour>
    <contour>
      <point x="224" y="313" type="line"/>
      <point x="154" y="313" type="line"/>
      <point x="154" y="26" type="line"/>
      <point x="224" y="26" type="line"/>
    </contour>
  </outline>
</glyph>
<glyph name="comma" format="1">
  <advance width="228"/>
  <unicode hex="002C"/>
  <outline>
    <contour>
      <point x="21" y="-124" type="curve"/>
      <point x="37" y="-159" type="line"/>
      <point x="154" y="-113"/>
      <point x="201" y="-45"/>
      <point x="201" y="42" type="curve"/>
      <point x="201" y="124"/>
      <point x="153" y="151"/>
      <point x="111" y="151" type="curve"/>
      <point x="65" y="151"/>
      <point x="30" y="120"/>
      <point x="30" y="80" type="curve"/>
      <point x="30" y="13"/>
      <point x="107" y="19"/>
      <point x="107" y="-40" type="curve"/>
      <point x="107" y="-69"/>
      <point x="89" y="-98"/>
    </contour>
  </outline>
</glyph>
<glyph name="hyphen" format="1">
  <advance width="285"/>
  <unicode hex="002D"/>
  <outline>
    <contour>
      <point x="50" y="178" type="line"/>
      <point x="50" y="94" type="line"/>
      <point x="235" y="119" type="line"/>
      <point x="235" y="203" type="line"/>
    </contour>
  </outline>
</glyph>
<glyph name="period" format="1">
  <advance width="228"/>
  <unicode hex="002E"/>
  <outline>
    <contour>
      <point x="114" y="-7" type="curve"/>
      <point x="159" y="-7"/>
      <point x="196" y="27"/>
      <point x="196" y="70" type="curve"/>
      <point x="196" y="115"/>
      <point x="159" y="151"/>
      <point x="114" y="151" type="curve"/>
      <point x="70" y="151"/>
      <point x="32" y="115"/>
      <point x="32" y="70" type="curve"/>
      <point x="32" y="27"/>
      <point x="70" y="-7"/>
    </contour>
  </outline>
</glyph>
<glyph name="slash" format="1">
  <advance width="318"/>
  <unicode hex="002F"/>
  <outline>
    <contour>
      <point x="237" y="481" type="line"/>
      <point x="26" y="-119" type="line"/>
      <point x="109" y="-119" type="line"/>
      <point x="320" y="481" type="line"/>
    </contour>
  </outline>
</glyph>
<glyph name="zero" format="1">
  <advance width="454"/>
  <unicode hex="0030"/>
  <outline>
    <contour>
      <point x="232" y="-6" type="curve"/>
      <point x="336" y="-6"/>
      <point x="423" y="83"/>
      <point x="423" y="202" type="curve"/>
      <point x="423" y="321"/>
      <point x="344" y="394"/>
      <point x="232" y="394" type="curve"/>
      <point x="115" y="394"/>
      <point x="31" y="314"/>
      <point x="31" y="186" type="curve"/>
      <point x="31" y="70"/>
      <point x="118" y="-6"/>
    </contour>
    <contour>
      <point x="241" y="53" type="curve"/>
      <point x="196" y="53"/>
      <point x="161" y="117"/>
      <point x="161" y="212" type="curve"/>
      <point x="161" y="300"/>
      <point x="188" y="343"/>
      <point x="224" y="343" type="curve"/>
      <point x="265" y="343"/>
      <point x="294" y="280"/>
      <point x="294" y="183" type="curve"/>
      <point x="294" y="85"/>
      <point x="277" y="53"/>
    </contour>
  </outline>
</glyph>
<glyph name="one" format="1">
  <advance width="287"/>
  <unicode hex="0031"/>
  <outline>
    <contour>
      <point x="216" y="158" type="curve"/>
      <point x="216" y="209" type="line" smooth="yes"/>
      <point x="216" y="253"/>
      <point x="216" y="335"/>
      <point x="223" y="398" type="curve"/>
      <point x="17" y="325" type="line"/>
      <point x="20" y="276" type="line"/>
      <point x="42" y="283"/>
      <point x="81" y="288"/>
      <point x="91" y="289" type="curve"/>
      <point x="93" y="271"/>
      <point x="94" y="214"/>
      <point x="94" y="190" type="curve"/>
      <point x="94" y="158" type="line" smooth="yes"/>
      <point x="94" y="115"/>
      <point x="93" y="58"/>
      <point x="91" y="52" type="curve"/>
      <point x="77" y="45"/>
      <point x="54" y="41"/>
      <point x="28" y="39" type="curve"/>
      <point x="32" y="-4" type="line"/>
      <point x="60" y="-2"/>
      <point x="107" y="1"/>
      <point x="155" y="1" type="curve"/>
      <point x="203" y="1"/>
      <point x="252" y="-2"/>
      <point x="280" y="-4" type="curve"/>
      <point x="283" y="39" type="line"/>
      <point x="258" y="41"/>
      <point x="234" y="45"/>
      <point x="221" y="52" type="curve"/>
      <point x="219" y="58"/>
      <point x="216" y="115"/>
    </contour>
  </outline>
</glyph>
<glyph name="two" format="1">
  <advance width="384"/>
  <unicode hex="0032"/>
  <outline>
    <contour>
      <point x="34" y="43" type="curve"/>
      <point x="36" y="-3" type="line"/>
      <point x="55" y="-1"/>
      <point x="75" y="0"/>
      <point x="91" y="0" type="curve"/>
      <point x="230" y="0" type="line" smooth="yes"/>
      <point x="243" y="0"/>
      <point x="314" y="-2"/>
      <point x="341" y="-4" type="curve"/>
      <point x="369" y="122" type="line"/>
      <point x="314" y="129" type="line"/>
      <point x="311" y="125"/>
      <point x="311" y="123"/>
      <point x="295" y="87" type="curve"/>
      <point x="275" y="85"/>
      <point x="269" y="84"/>
      <point x="246" y="84" type="curve"/>
      <point x="142" y="84" type="line"/>
      <point x="144" y="80" type="line"/>
      <point x="252" y="128"/>
      <point x="318" y="197"/>
      <point x="318" y="268" type="curve"/>
      <point x="318" y="341"/>
      <point x="259" y="394"/>
      <point x="177" y="394" type="curve"/>
      <point x="105" y="394"/>
      <point x="47" y="358"/>
      <point x="16" y="291" type="curve"/>
      <point x="56" y="264" type="line"/>
      <point x="74" y="295"/>
      <point x="100" y="310"/>
      <point x="131" y="310" type="curve"/>
      <point x="169" y="310"/>
      <point x="195" y="286"/>
      <point x="195" y="249" type="curve"/>
      <point x="195" y="186"/>
      <point x="146" y="120"/>
    </contour>
  </outline>
</glyph>
<glyph name="three" format="1">
  <advance width="358"/>
  <unicode hex="0033"/>
  <outline>
    <contour>
      <point x="192" y="212" type="curve"/>
      <point x="168" y="196" type="line"/>
      <point x="249" y="211"/>
      <point x="310" y="244"/>
      <point x="310" y="304" type="curve"/>
      <point x="310" y="352"/>
      <point x="264" y="394"/>
      <point x="184" y="394" type="curve"/>
      <point x="118" y="394"/>
      <point x="61" y="358"/>
      <point x="33" y="304" type="curve"/>
      <point x="71" y="278" type="line"/>
      <point x="83" y="298"/>
      <point x="111" y="313"/>
      <point x="141" y="313" type="curve"/>
      <point x="169" y="313"/>
      <point x="189" y="299"/>
      <point x="189" y="275" type="curve"/>
      <point x="189" y="244"/>
      <point x="151" y="216"/>
      <point x="100" y="212" type="curve"/>
      <point x="106" y="165" type="line"/>
      <point x="114" y="165"/>
      <point x="122" y="166"/>
      <point x="134" y="166" type="curve"/>
      <point x="182" y="166"/>
      <point x="212" y="143"/>
      <point x="212" y="105" type="curve"/>
      <point x="212" y="63"/>
      <point x="185" y="37"/>
      <point x="156" y="48" type="curve"/>
      <point x="170" y="36" type="line"/>
      <point x="117" y="81" type="line" smooth="yes"/>
      <point x="100" y="96"/>
      <point x="89" y="103"/>
      <point x="69" y="103" type="curve"/>
      <point x="43" y="103"/>
      <point x="27" y="84"/>
      <point x="27" y="61" type="curve"/>
      <point x="27" y="23"/>
      <point x="78" y="-6"/>
      <point x="145" y="-6" type="curve"/>
      <point x="269" y="-6"/>
      <point x="333" y="59"/>
      <point x="333" y="116" type="curve"/>
      <point x="333" y="175"/>
      <point x="283" y="212"/>
    </contour>
  </outline>
</glyph>
<glyph name="four" format="1">
  <advance width="398"/>
  <unicode hex="0034"/>
  <outline>
    <contour>
      <point x="320" y="89" type="curve"/>
      <point x="320" y="268" type="line"/>
      <point x="320" y="314"/>
      <point x="322" y="359"/>
      <point x="324" y="391" type="curve"/>
      <point x="251" y="391" type="line"/>
      <point x="17" y="127" type="line"/>
      <point x="23" y="89" type="line"/>
      <point x="378" y="89" type="line"/>
      <point x="378" y="158" type="line"/>
      <point x="118" y="158" type="line" smooth="yes"/>
      <point x="104" y="158"/>
      <point x="87" y="160"/>
      <point x="72" y="162" type="curve"/>
      <point x="106" y="145" type="line"/>
      <point x="200" y="265" type="line"/>
      <point x="201" y="280" type="line"/>
      <point x="201" y="89" type="line"/>
      <point x="201" y="67"/>
      <point x="202" y="50"/>
      <point x="203" y="52" type="curve"/>
      <point x="183" y="45"/>
      <point x="166" y="41"/>
      <point x="142" y="39" type="curve"/>
      <point x="145" y="-4" type="line"/>
      <point x="173" y="-2"/>
      <point x="212" y="1"/>
      <point x="259" y="1" type="curve"/>
      <point x="308" y="1"/>
      <point x="346" y="-2"/>
      <point x="366" y="-4" type="curve"/>
      <point x="369" y="39" type="line"/>
      <point x="349" y="41"/>
      <point x="336" y="45"/>
      <point x="323" y="52" type="curve"/>
      <point x="322" y="50"/>
      <point x="320" y="67"/>
    </contour>
  </outline>
</glyph>
<glyph name="five" format="1">
  <advance width="358"/>
  <unicode hex="0035"/>
  <outline>
    <contour>
      <point x="150" y="-6" type="curve"/>
      <point x="274" y="-6"/>
      <point x="338" y="59"/>
      <point x="338" y="129" type="curve"/>
      <point x="338" y="202"/>
      <point x="261" y="248"/>
      <point x="117" y="252" type="curve"/>
      <point x="138" y="230" type="line"/>
      <point x="146" y="298" type="line"/>
      <point x="307" y="298" type="line"/>
      <point x="315" y="388" type="line"/>
      <point x="104" y="388" type="line"/>
      <point x="77" y="159" type="line"/>
      <point x="169" y="157"/>
      <point x="217" y="136"/>
      <point x="217" y="99" type="curve"/>
      <point x="217" y="64"/>
      <point x="190" y="37"/>
      <point x="160" y="48" type="curve"/>
      <point x="175" y="36" type="line"/>
      <point x="122" y="81" type="line" smooth="yes"/>
      <point x="102" y="98"/>
      <point x="90" y="103"/>
      <point x="74" y="103" type="curve"/>
      <point x="48" y="103"/>
      <point x="32" y="84"/>
      <point x="32" y="61" type="curve"/>
      <point x="32" y="23"/>
      <point x="83" y="-6"/>
    </contour>
  </outline>
</glyph>
<glyph name="six" format="1">
  <advance width="408"/>
  <unicode hex="0036"/>
  <outline>
    <contour>
      <point x="139" y="183" type="curve"/>
      <point x="137" y="140" type="line"/>
      <point x="145" y="151"/>
      <point x="174" y="174"/>
      <point x="204" y="174" type="curve"/>
      <point x="236" y="174"/>
      <point x="255" y="146"/>
      <point x="255" y="99" type="curve"/>
      <point x="255" y="69"/>
      <point x="236" y="42"/>
      <point x="212" y="42" type="curve"/>
      <point x="185" y="42"/>
      <point x="158" y="91"/>
      <point x="158" y="142" type="curve"/>
      <point x="158" y="267"/>
      <point x="210" y="324"/>
      <point x="343" y="351" type="curve"/>
      <point x="330" y="400" type="line"/>
      <point x="141" y="392"/>
      <point x="36" y="273"/>
      <point x="36" y="160" type="curve"/>
      <point x="36" y="73"/>
      <point x="105" y="-6"/>
      <point x="204" y="-6" type="curve"/>
      <point x="301" y="-6"/>
      <point x="370" y="54"/>
      <point x="370" y="135" type="curve"/>
      <point x="370" y="200"/>
      <point x="318" y="252"/>
      <point x="253" y="252" type="curve"/>
      <point x="218" y="252"/>
      <point x="175" y="220"/>
    </contour>
  </outline>
</glyph>
<glyph name="seven" format="1">
  <advance width="356"/>
  <unicode hex="0037"/>
  <outline>
    <contour>
      <point x="93" y="0" type="line"/>
      <point x="184" y="0" type="line"/>
      <point x="332" y="347" type="line"/>
      <point x="329" y="389" type="line"/>
      <point x="311" y="389"/>
      <point x="293" y="388"/>
      <point x="277" y="388" type="curve"/>
      <point x="157" y="388" type="line" smooth="yes"/>
      <point x="139" y="388"/>
      <point x="63" y="390"/>
      <point x="43" y="389" type="curve"/>
      <point x="31" y="259" type="line"/>
      <point x="84" y="255" type="line"/>
      <point x="83" y="259"/>
      <point x="87" y="280"/>
      <point x="91" y="293" type="curve"/>
      <point x="105" y="295"/>
      <point x="125" y="295"/>
      <point x="136" y="295" type="curve"/>
      <point x="267" y="295" type="line"/>
      <point x="267" y="325" type="line"/>
      <point x="93" y="30" type="line"/>
    </contour>
  </outline>
</glyph>
<glyph name="eight" format="1">
  <advance width="438"/>
  <unicode hex="0038"/>
  <outline>
    <contour>
      <point x="213" y="-6" type="curve"/>
      <point x="329" y="-6"/>
      <point x="406" y="40"/>
      <point x="406" y="116" type="curve"/>
      <point x="406" y="248"/>
      <point x="168" y="220"/>
      <point x="168" y="305" type="curve"/>
      <point x="168" y="328"/>
      <point x="187" y="342"/>
      <point x="220" y="342" type="curve"/>
      <point x="255" y="342"/>
      <point x="277" y="323"/>
      <point x="277" y="282" type="curve"/>
      <point x="277" y="253"/>
      <point x="271" y="234"/>
      <point x="251" y="202" type="curve"/>
      <point x="253" y="194" type="line"/>
      <point x="346" y="203"/>
      <point x="387" y="238"/>
      <point x="387" y="288" type="curve"/>
      <point x="387" y="351"/>
      <point x="336" y="394"/>
      <point x="230" y="394" type="curve"/>
      <point x="118" y="394"/>
      <point x="49" y="345"/>
      <point x="49" y="275" type="curve"/>
      <point x="49" y="133"/>
      <point x="286" y="161"/>
      <point x="286" y="85" type="curve"/>
      <point x="286" y="65"/>
      <point x="262" y="50"/>
      <point x="225" y="50" type="curve"/>
      <point x="186" y="50"/>
      <point x="153" y="66"/>
      <point x="153" y="107" type="curve"/>
      <point x="153" y="128"/>
      <point x="158" y="145"/>
      <point x="169" y="178" type="curve"/>
      <point x="170" y="195" type="line"/>
      <point x="79" y="182"/>
      <point x="32" y="150"/>
      <point x="32" y="101" type="curve"/>
      <point x="32" y="38"/>
      <point x="103" y="-6"/>
    </contour>
  </outline>
</glyph>
<glyph name="colon" format="1">
  <advance width="228"/>
  <unicode hex="003A"/>
  <outline>
    <contour>
      <point x="114" y="-7" type="curve"/>
      <point x="159" y="-7"/>
      <point x="196" y="27"/>
      <point x="196" y="70" type="curve"/>
      <point x="196" y="115"/>
      <point x="159" y="151"/>
      <point x="114" y="151" type="curve"/>
      <point x="70" y="151"/>
      <point x="32" y="115"/>
      <point x="32" y="70" type="curve"/>
      <point x="32" y="27"/>
      <point x="70" y="-7"/>
    </contour>
    <contour>
      <point x="114" y="145" type="curve"/>
      <point x="159" y="145"/>
      <point x="196" y="179"/>
      <point x="196" y="222" type="curve"/>
      <point x="196" y="267"/>
      <point x="159" y="303"/>
      <point x="114" y="303" type="curve"/>
      <point x="70" y="303"/>
      <point x="32" y="267"/>
      <point x="32" y="222" type="curve"/>
      <point x="32" y="179"/>
      <point x="70" y="145"/>
    </contour>
  </outline>
</glyph>
<glyph name="semicolon" format="1">
  <advance width="228"/>
  <unicode hex="003B"/>
  <outline>
    <contour>
      <point x="21" y="-124" type="curve"/>
      <point x="37" y="-159" type="line"/>
      <point x="154" y="-113"/>
      <point x="201" y="-45"/>
      <point x="201" y="42" type="curve"/>
      <point x="201" y="124"/>
      <point x="153" y="151"/>
      <point x="111" y="151" type="curve"/>
      <point x="65" y="151"/>
      <point x="30" y="120"/>
      <point x="30" y="80" type="curve"/>
      <point x="30" y="13"/>
      <point x="107" y="19"/>
      <point x="107" y="-40" type="curve"/>
      <point x="107" y="-69"/>
      <point x="89" y="-98"/>
    </contour>
    <contour>
      <point x="114" y="145" type="curve"/>
      <point x="159" y="145"/>
      <point x="196" y="179"/>
      <point x="196" y="222" type="curve"/>
      <point x="196" y="267"/>
      <point x="159" y="303"/>
      <point x="114" y="303" type="curve"/>
      <point x="70" y="303"/>
      <point x="32" y="267"/>
      <point x="32" y="222" type="curve"/>
      <point x="32" y="179"/>
      <point x="70" y="145"/>
    </contour>
  </outline>
</glyph>
<glyph name="less" format="1">
  <advance width="378"/>
  <unicode hex="003C"/>
  <outline>
    <contour>
      <point x="37" y="209" type="line"/>
      <point x="37" y="131" type="line"/>
      <point x="341" y="19" type="line"/>
      <point x="341" y="95" type="line"/>
      <point x="63" y="194" type="line"/>
      <point x="63" y="143" type="line"/>
      <point x="341" y="244" type="line"/>
      <point x="341" y="320" type="line"/>
    </contour>
  </outline>
</glyph>
<glyph name="equal" format="1">
  <advance width="378"/>
  <unicode hex="003D"/>
  <outline>
    <contour>
      <point x="341" y="193" type="line"/>
      <point x="341" y="263" type="line"/>
      <point x="37" y="263" type="line"/>
      <point x="37" y="193" type="line"/>
    </contour>
    <contour>
      <point x="341" y="75" type="line"/>
      <point x="341" y="146" type="line"/>
      <point x="37" y="146" type="line"/>
      <point x="37" y="75" type="line"/>
    </contour>
  </outline>
</glyph>
<glyph name="greater" format="1">
  <advance width="378"/>
  <unicode hex="003E"/>
  <outline>
    <contour>
      <point x="37" y="19" type="line"/>
      <point x="341" y="131" type="line"/>
      <point x="341" y="209" type="line"/>
      <point x="37" y="320" type="line"/>
      <point x="37" y="244" type="line"/>
      <point x="315" y="143" type="line"/>
      <point x="315" y="194" type="line"/>
      <point x="37" y="95" type="line"/>
    </contour>
  </outline>
</glyph>
<glyph name="question" format="1">
  <advance width="278"/>
  <unicode hex="003F"/>
  <outline>
    <contour>
      <point x="73" y="174" type="curve"/>
      <point x="124" y="174" type="line"/>
      <point x="124" y="191"/>
      <point x="124" y="191"/>
      <point x="124" y="190" type="curve"/>
      <point x="124" y="233"/>
      <point x="257" y="208"/>
      <point x="257" y="308" type="curve"/>
      <point x="257" y="387"/>
      <point x="163" y="461"/>
      <point x="69" y="461" type="curve"/>
      <point x="28" y="461"/>
      <point x="0" y="441"/>
      <point x="0" y="409" type="curve"/>
      <point x="0" y="375"/>
      <point x="31" y="352"/>
      <point x="72" y="352" type="curve"/>
      <point x="100" y="352"/>
      <point x="123" y="363"/>
      <point x="147" y="363" type="curve"/>
      <point x="167" y="363"/>
      <point x="175" y="355"/>
      <point x="175" y="348" type="curve"/>
      <point x="175" y="311"/>
      <point x="60" y="310"/>
      <point x="60" y="236" type="curve"/>
      <point x="60" y="217"/>
      <point x="64" y="199"/>
    </contour>
    <contour>
      <point x="98" y="-7" type="curve"/>
      <point x="144" y="-7"/>
      <point x="180" y="27"/>
      <point x="180" y="70" type="curve"/>
      <point x="180" y="115"/>
      <point x="144" y="151"/>
      <point x="98" y="151" type="curve"/>
      <point x="54" y="151"/>
      <point x="16" y="115"/>
      <point x="16" y="70" type="curve"/>
      <point x="16" y="28"/>
      <point x="53" y="-7"/>
    </contour>
  </outline>
</glyph>
<glyph name="A" format="1">
  <advance width="437"/>
  <unicode hex="0041"/>
  <outline>
    <contour>
      <point x="-7" y="41" type="curve"/>
      <point x="-4" y="-1" type="line"/>
      <point x="19" y="0"/>
      <point x="51" y="-2"/>
      <point x="72" y="-2" type="curve"/>
      <point x="94" y="-2"/>
      <point x="126" y="0"/>
      <point x="145" y="-1" type="curve"/>
      <point x="148" y="41" type="line"/>
      <point x="129" y="44"/>
      <point x="110" y="46"/>
      <point x="100" y="48" type="curve"/>
      <point x="130" y="134" type="line"/>
      <point x="138" y="154" type="line"/>
      <point x="184" y="269" type="line"/>
      <point x="160" y="286" type="line"/>
      <point x="226" y="150" type="line"/>
      <point x="234" y="125" type="line"/>
      <point x="270" y="46" type="line"/>
      <point x="250" y="43"/>
      <point x="241" y="44"/>
      <point x="222" y="41" type="curve"/>
      <point x="225" y="-1" type="line"/>
      <point x="245" y="0"/>
      <point x="308" y="2"/>
      <point x="337" y="2" type="curve"/>
      <point x="364" y="2"/>
      <point x="426" y="0"/>
      <point x="449" y="-1" type="curve"/>
      <point x="451" y="41" type="line"/>
      <point x="437" y="45"/>
      <point x="422" y="44"/>
      <point x="414" y="46" type="curve"/>
      <point x="244" y="400" type="line"/>
      <point x="173" y="361" type="line"/>
      <point x="30" y="48" type="line"/>
      <point x="24" y="45"/>
      <point x="17" y="44"/>
    </contour>
    <contour>
      <point x="119" y="157" type="curve"/>
      <point x="119" y="103" type="line"/>
      <point x="133" y="104"/>
      <point x="150" y="106"/>
      <point x="181" y="106" type="curve"/>
      <point x="211" y="106"/>
      <point x="229" y="104"/>
      <point x="243" y="105" type="curve"/>
      <point x="243" y="157" type="line"/>
      <point x="227" y="157"/>
      <point x="211" y="154"/>
      <point x="181" y="154" type="curve"/>
      <point x="150" y="154"/>
      <point x="136" y="157"/>
    </contour>
    <contour>
      <point x="185" y="0" type="move" name="bottom"/>
    </contour>
    <contour>
      <point x="410" y="0" type="move" name="ogonek"/>
    </contour>
    <contour>
      <point x="208" y="388" type="move" name="top"/>
    </contour>
  </outline>
</glyph>
<glyph name="B" format="1">
  <advance width="449"/>
  <unicode hex="0042"/>
  <outline>
    <contour>
      <point x="62" y="52" type="curve"/>
      <point x="52" y="45"/>
      <point x="34" y="43"/>
      <point x="16" y="39" type="curve"/>
      <point x="18" y="-4" type="line"/>
      <point x="49" y="-1"/>
      <point x="124" y="1"/>
      <point x="157" y="1" type="curve"/>
      <point x="178" y="1"/>
      <point x="205" y="-2"/>
      <point x="226" y="-2" type="curve"/>
      <point x="348" y="-2"/>
      <point x="415" y="42"/>
      <point x="415" y="115" type="curve"/>
      <point x="415" y="163"/>
      <point x="379" y="207"/>
      <point x="279" y="213" type="curve"/>
      <point x="265" y="207" type="line"/>
      <point x="349" y="211"/>
      <point x="394" y="252"/>
      <point x="394" y="295" type="curve"/>
      <point x="394" y="357"/>
      <point x="352" y="391"/>
      <point x="241" y="391" type="curve"/>
      <point x="203" y="391"/>
      <point x="160" y="389"/>
      <point x="138" y="389" type="curve"/>
      <point x="103" y="389"/>
      <point x="63" y="387"/>
      <point x="18" y="390" type="curve"/>
      <point x="16" y="346" type="line"/>
      <point x="34" y="345"/>
      <point x="52" y="342"/>
      <point x="62" y="334" type="curve"/>
      <point x="65" y="329"/>
      <point x="67" y="275"/>
      <point x="67" y="231" type="curve"/>
      <point x="67" y="158" type="line" smooth="yes"/>
      <point x="67" y="115"/>
      <point x="66" y="58"/>
    </contour>
    <contour>
      <point x="187" y="117" type="curve"/>
      <point x="187" y="268" type="line" smooth="yes"/>
      <point x="187" y="315"/>
      <point x="189" y="341"/>
      <point x="190" y="346" type="curve"/>
      <point x="194" y="346"/>
      <point x="202" y="348"/>
      <point x="209" y="348" type="curve"/>
      <point x="237" y="348"/>
      <point x="263" y="327"/>
      <point x="263" y="285" type="curve"/>
      <point x="263" y="244"/>
      <point x="244" y="222"/>
      <point x="210" y="222" type="curve"/>
      <point x="203" y="222"/>
      <point x="197" y="222"/>
      <point x="184" y="222" type="curve"/>
      <point x="184" y="171" type="line"/>
      <point x="197" y="172"/>
      <point x="204" y="172"/>
      <point x="213" y="172" type="curve"/>
      <point x="265" y="172"/>
      <point x="284" y="149"/>
      <point x="284" y="104" type="curve"/>
      <point x="284" y="67"/>
      <point x="259" y="46"/>
      <point x="231" y="46" type="curve"/>
      <point x="209" y="46"/>
      <point x="195" y="50"/>
      <point x="189" y="52" type="curve"/>
      <point x="189" y="58"/>
      <point x="187" y="72"/>
    </contour>
    <contour>
      <point x="226" y="0" type="move" name="bottom"/>
    </contour>
    <contour>
      <point x="226" y="388" type="move" name="top"/>
    </contour>
  </outline>
</glyph>
<glyph name="C" format="1">
  <advance width="453"/>
  <unicode hex="0043"/>
  <outline>
    <contour>
      <point x="267" y="-6" type="curve"/>
      <point x="326" y="-6"/>
      <point x="388" y="13"/>
      <point x="413" y="31" type="curve"/>
      <point x="422" y="64"/>
      <point x="427" y="93"/>
      <point x="434" y="124" type="curve"/>
      <point x="375" y="130" type="line"/>
      <point x="371" y="121"/>
      <point x="365" y="97"/>
      <point x="355" y="74" type="curve"/>
      <point x="346" y="58"/>
      <point x="308" y="49"/>
      <point x="291" y="49" type="curve"/>
      <point x="225" y="49"/>
      <point x="173" y="111"/>
      <point x="173" y="204" type="curve"/>
      <point x="173" y="298"/>
      <point x="218" y="341"/>
      <point x="280" y="341" type="curve"/>
      <point x="301" y="341"/>
      <point x="313" y="338"/>
      <point x="331" y="332" type="curve"/>
      <point x="340" y="307"/>
      <point x="349" y="281"/>
      <point x="359" y="257" type="curve"/>
      <point x="411" y="259" type="line"/>
      <point x="406" y="370" type="line"/>
      <point x="379" y="383"/>
      <point x="334" y="394"/>
      <point x="286" y="394" type="curve"/>
      <point x="148" y="394"/>
      <point x="30" y="327"/>
      <point x="30" y="184" type="curve"/>
      <point x="30" y="68"/>
      <point x="119" y="-6"/>
    </contour>
    <contour>
      <point x="250" y="0" type="move" name="bottom"/>
    </contour>
    <contour>
      <point x="250" y="388" type="move" name="top"/>
    </contour>
  </outline>
</glyph>
<glyph name="D" format="1">
  <advance width="502"/>
  <unicode hex="0044"/>
  <outline>
    <contour>
      <point x="18" y="390" type="curve"/>
      <point x="16" y="346" type="line"/>
      <point x="34" y="343"/>
      <point x="52" y="342"/>
      <point x="62" y="334" type="curve"/>
      <point x="65" y="329"/>
      <point x="67" y="275"/>
      <point x="67" y="231" type="curve"/>
      <point x="67" y="158" type="line" smooth="yes"/>
      <point x="67" y="115"/>
      <point x="66" y="58"/>
      <point x="62" y="52" type="curve"/>
      <point x="52" y="45"/>
      <point x="34" y="43"/>
      <point x="16" y="39" type="curve"/>
      <point x="18" y="-4" type="line"/>
      <point x="49" y="-1"/>
      <point x="87" y="1"/>
      <point x="160" y="1" type="curve"/>
      <point x="193" y="1"/>
      <point x="213" y="-1"/>
      <point x="235" y="-1" type="curve"/>
      <point x="356" y="-1"/>
      <point x="473" y="70"/>
      <point x="473" y="199" type="curve"/>
      <point x="473" y="321"/>
      <point x="383" y="389"/>
      <point x="220" y="389" type="curve"/>
      <point x="210" y="389"/>
      <point x="160" y="389"/>
      <point x="126" y="389" type="curve"/>
      <point x="90" y="389"/>
      <point x="39" y="387"/>
    </contour>
    <contour>
      <point x="189" y="337" type="curve"/>
      <point x="201" y="338"/>
      <point x="216" y="340"/>
      <point x="228" y="340" type="curve"/>
      <point x="271" y="340"/>
      <point x="341" y="300"/>
      <point x="341" y="166" type="curve"/>
      <point x="341" y="80"/>
      <point x="308" y="52"/>
      <point x="244" y="52" type="curve"/>
      <point x="229" y="52"/>
      <point x="207" y="55"/>
      <point x="192" y="58" type="curve"/>
      <point x="191" y="63"/>
      <point x="188" y="110"/>
      <point x="188" y="158" type="curve"/>
      <point x="188" y="231" type="line" smooth="yes"/>
      <point x="188" y="286"/>
      <point x="189" y="331"/>
    </contour>
    <contour>
      <point x="255" y="0" type="move" name="bottom"/>
    </contour>
    <contour>
      <point x="255" y="194" type="move" name="center"/>
    </contour>
    <contour>
      <point x="154" y="194" type="move" name="stroke"/>
    </contour>
    <contour>
      <point x="255" y="388" type="move" name="top"/>
    </contour>
  </outline>
</glyph>
<glyph name="E" format="1">
  <advance width="421"/>
  <unicode hex="0045"/>
  <outline>
    <contour>
      <point x="380" y="-4" type="curve"/>
      <point x="413" y="112" type="line"/>
      <point x="368" y="120" type="line"/>
      <point x="356" y="99"/>
      <point x="344" y="78"/>
      <point x="328" y="52" type="curve"/>
      <point x="311" y="49"/>
      <point x="306" y="49"/>
      <point x="278" y="49" type="curve"/>
      <point x="263" y="49" type="line" smooth="yes"/>
      <point x="229" y="49"/>
      <point x="210" y="50"/>
      <point x="190" y="53" type="curve"/>
      <point x="188" y="68"/>
      <point x="187" y="93"/>
      <point x="187" y="150" type="curve"/>
      <point x="187" y="255" type="line" smooth="yes"/>
      <point x="187" y="311"/>
      <point x="188" y="328"/>
      <point x="190" y="341" type="curve"/>
      <point x="202" y="343"/>
      <point x="227" y="343"/>
      <point x="237" y="343" type="curve"/>
      <point x="270" y="343" type="line" smooth="yes"/>
      <point x="282" y="343"/>
      <point x="290" y="343"/>
      <point x="306" y="340" type="curve"/>
      <point x="316" y="319"/>
      <point x="322" y="307"/>
      <point x="334" y="279" type="curve"/>
      <point x="381" y="284" type="line"/>
      <point x="359" y="392" type="line"/>
      <point x="333" y="392"/>
      <point x="259" y="388"/>
      <point x="225" y="388" type="curve"/>
      <point x="126" y="388" type="line" smooth="yes"/>
      <point x="90" y="388"/>
      <point x="39" y="390"/>
      <point x="18" y="392" type="curve"/>
      <point x="16" y="348" type="line"/>
      <point x="34" y="348"/>
      <point x="52" y="344"/>
      <point x="61" y="336" type="curve"/>
      <point x="65" y="331"/>
      <point x="67" y="275"/>
      <point x="67" y="231" type="curve"/>
      <point x="67" y="158" type="line" smooth="yes"/>
      <point x="67" y="115"/>
      <point x="65" y="58"/>
      <point x="61" y="52" type="curve"/>
      <point x="52" y="45"/>
      <point x="34" y="43"/>
      <point x="16" y="39" type="curve"/>
      <point x="18" y="-4" type="line"/>
      <point x="39" y="-2"/>
      <point x="90" y="0"/>
      <point x="126" y="0" type="curve"/>
      <point x="259" y="0" type="line" smooth="yes"/>
      <point x="293" y="0"/>
      <point x="353" y="-4"/>
    </contour>
    <contour>
      <point x="282" y="128" type="curve"/>
      <point x="328" y="128" type="line"/>
      <point x="328" y="151"/>
      <point x="326" y="176"/>
      <point x="326" y="198" type="curve"/>
      <point x="326" y="222"/>
      <point x="328" y="244"/>
      <point x="328" y="267" type="curve"/>
      <point x="282" y="267" type="line"/>
      <point x="281" y="253"/>
      <point x="277" y="226"/>
      <point x="276" y="225" type="curve"/>
      <point x="269" y="226"/>
      <point x="251" y="224"/>
      <point x="230" y="224" type="curve"/>
      <point x="206" y="224" type="line" smooth="yes"/>
      <point x="186" y="224"/>
      <point x="171" y="226"/>
      <point x="168" y="227" type="curve"/>
      <point x="168" y="171" type="line"/>
      <point x="171" y="172"/>
      <point x="186" y="174"/>
      <point x="206" y="174" type="curve"/>
      <point x="230" y="174" type="line" smooth="yes"/>
      <point x="251" y="174"/>
      <point x="269" y="172"/>
      <point x="276" y="173" type="curve"/>
      <point x="277" y="172"/>
      <point x="281" y="142"/>
    </contour>
    <contour>
      <point x="209" y="0" type="move" name="bottom"/>
    </contour>
    <contour>
      <point x="381" y="0" type="move" name="ogonek"/>
    </contour>
    <contour>
      <point x="209" y="388" type="move" name="top"/>
    </contour>
    <contour>
      <point x="19" y="388" type="move" name="topleft"/>
    </contour>
  </outline>
</glyph>
<glyph name="F" format="1">
  <advance width="394"/>
  <unicode hex="0046"/>
  <outline>
    <contour>
      <point x="19" y="39" type="curve"/>
      <point x="21" y="-4" type="line"/>
      <point x="40" y="-2"/>
      <point x="95" y="-2"/>
      <point x="132" y="-2" type="curve"/>
      <point x="169" y="-2"/>
      <point x="227" y="-2"/>
      <point x="247" y="-4" type="curve"/>
      <point x="248" y="41" type="line"/>
      <point x="232" y="43"/>
      <point x="222" y="44"/>
      <point x="192" y="52" type="curve"/>
      <point x="190" y="58"/>
      <point x="187" y="115"/>
      <point x="187" y="103" type="curve"/>
      <point x="187" y="255" type="line" smooth="yes"/>
      <point x="187" y="311"/>
      <point x="186" y="325"/>
      <point x="187" y="338" type="curve"/>
      <point x="197" y="342"/>
      <point x="212" y="343"/>
      <point x="230" y="343" type="curve"/>
      <point x="264" y="343" type="line" smooth="yes"/>
      <point x="277" y="343"/>
      <point x="283" y="343"/>
      <point x="299" y="340" type="curve"/>
      <point x="308" y="319"/>
      <point x="316" y="307"/>
      <point x="327" y="279" type="curve"/>
      <point x="375" y="284" type="line"/>
      <point x="352" y="392" type="line"/>
      <point x="327" y="392"/>
      <point x="253" y="388"/>
      <point x="218" y="388" type="curve"/>
      <point x="127" y="388" type="line" smooth="yes"/>
      <point x="91" y="388"/>
      <point x="39" y="390"/>
      <point x="19" y="392" type="curve"/>
      <point x="16" y="348" type="line"/>
      <point x="35" y="347"/>
      <point x="52" y="344"/>
      <point x="62" y="336" type="curve"/>
      <point x="65" y="331"/>
      <point x="67" y="275"/>
      <point x="67" y="231" type="curve"/>
      <point x="67" y="158" type="line" smooth="yes"/>
      <point x="67" y="115"/>
      <point x="65" y="58"/>
      <point x="62" y="52" type="curve"/>
      <point x="52" y="45"/>
      <point x="36" y="43"/>
    </contour>
    <contour>
      <point x="275" y="120" type="curve"/>
      <point x="320" y="120" type="line"/>
      <point x="320" y="144"/>
      <point x="318" y="170"/>
      <point x="318" y="193" type="curve"/>
      <point x="318" y="217"/>
      <point x="320" y="240"/>
      <point x="320" y="262" type="curve"/>
      <point x="275" y="262" type="line"/>
      <point x="273" y="248"/>
      <point x="269" y="222"/>
      <point x="268" y="221" type="curve"/>
      <point x="261" y="222"/>
      <point x="244" y="219"/>
      <point x="224" y="219" type="curve"/>
      <point x="198" y="219" type="line" smooth="yes"/>
      <point x="179" y="219"/>
      <point x="162" y="222"/>
      <point x="154" y="223" type="curve"/>
      <point x="154" y="166" type="line"/>
      <point x="162" y="166"/>
      <point x="179" y="168"/>
      <point x="198" y="168" type="curve"/>
      <point x="224" y="168" type="line" smooth="yes"/>
      <point x="244" y="168"/>
      <point x="261" y="166"/>
      <point x="268" y="167" type="curve"/>
      <point x="269" y="166"/>
      <point x="273" y="135"/>
    </contour>
    <contour>
      <point x="126" y="0" type="move" name="bottom"/>
    </contour>
    <contour>
      <point x="183" y="388" type="move" name="top"/>
    </contour>
  </outline>
</glyph>
<glyph name="G" format="1">
  <advance width="466"/>
  <unicode hex="0047"/>
  <outline>
    <contour>
      <point x="261" y="-6" type="curve"/>
      <point x="315" y="-6"/>
      <point x="369" y="4"/>
      <point x="412" y="29" type="curve"/>
      <point x="411" y="68"/>
      <point x="410" y="84"/>
      <point x="410" y="79" type="curve"/>
      <point x="410" y="95"/>
      <point x="409" y="124"/>
      <point x="412" y="131" type="curve"/>
      <point x="419" y="138"/>
      <point x="432" y="142"/>
      <point x="448" y="145" type="curve"/>
      <point x="445" y="185" type="line"/>
      <point x="426" y="184"/>
      <point x="384" y="182"/>
      <point x="339" y="182" type="curve"/>
      <point x="293" y="182"/>
      <point x="262" y="183"/>
      <point x="239" y="185" type="curve"/>
      <point x="239" y="143" type="line"/>
      <point x="260" y="142"/>
      <point x="274" y="138"/>
      <point x="285" y="130" type="curve"/>
      <point x="287" y="124"/>
      <point x="293" y="95"/>
      <point x="293" y="85" type="curve"/>
      <point x="293" y="14" type="line"/>
      <point x="301" y="49" type="line"/>
      <point x="294" y="50"/>
      <point x="288" y="48"/>
      <point x="286" y="48" type="curve"/>
      <point x="223" y="48"/>
      <point x="171" y="111"/>
      <point x="171" y="204" type="curve"/>
      <point x="171" y="298"/>
      <point x="217" y="341"/>
      <point x="280" y="341" type="curve"/>
      <point x="289" y="341"/>
      <point x="305" y="341"/>
      <point x="328" y="332" type="curve"/>
      <point x="338" y="310"/>
      <point x="343" y="292"/>
      <point x="352" y="269" type="curve"/>
      <point x="405" y="270" type="line"/>
      <point x="402" y="370" type="line"/>
      <point x="377" y="383"/>
      <point x="332" y="394"/>
      <point x="288" y="394" type="curve"/>
      <point x="147" y="394"/>
      <point x="29" y="327"/>
      <point x="29" y="181" type="curve"/>
      <point x="29" y="68"/>
      <point x="120" y="-6"/>
    </contour>
    <contour>
      <point x="248" y="0" type="move" name="bottom"/>
    </contour>
    <contour>
      <point x="248" y="388" type="move" name="top"/>
    </contour>
  </outline>
</glyph>
<glyph name="H" format="1">
  <advance width="502"/>
  <unicode hex="0048"/>
  <outline>
    <contour>
      <point x="265" y="39" type="curve"/>
      <point x="267" y="-4" type="line"/>
      <point x="288" y="-2"/>
      <point x="326" y="1"/>
      <point x="374" y="1" type="curve"/>
      <point x="422" y="1"/>
      <point x="463" y="-2"/>
      <point x="485" y="-4" type="curve"/>
      <point x="488" y="39" type="line"/>
      <point x="468" y="43"/>
      <point x="450" y="45"/>
      <point x="441" y="52" type="curve"/>
      <point x="439" y="58"/>
      <point x="435" y="115"/>
      <point x="435" y="158" type="curve"/>
      <point x="435" y="231" type="line" smooth="yes"/>
      <point x="435" y="275"/>
      <point x="439" y="331"/>
      <point x="441" y="336" type="curve"/>
      <point x="450" y="344"/>
      <point x="468" y="346"/>
      <point x="488" y="348" type="curve"/>
      <point x="485" y="392" type="line"/>
      <point x="463" y="390"/>
      <point x="422" y="388"/>
      <point x="374" y="388" type="curve"/>
      <point x="325" y="388"/>
      <point x="288" y="390"/>
      <point x="267" y="392" type="curve"/>
      <point x="265" y="348" type="line"/>
      <point x="283" y="346"/>
      <point x="300" y="344"/>
      <point x="309" y="336" type="curve"/>
      <point x="311" y="331"/>
      <point x="314" y="275"/>
      <point x="314" y="231" type="curve"/>
      <point x="314" y="158" type="line" smooth="yes"/>
      <point x="314" y="115"/>
      <point x="311" y="58"/>
      <point x="309" y="52" type="curve"/>
      <point x="300" y="45"/>
      <point x="283" y="43"/>
    </contour>
    <contour>
      <point x="16" y="39" type="curve"/>
      <point x="18" y="-4" type="line"/>
      <point x="39" y="-2"/>
      <point x="80" y="1"/>
      <point x="128" y="1" type="curve"/>
      <point x="176" y="1"/>
      <point x="215" y="-2"/>
      <point x="234" y="-4" type="curve"/>
      <point x="237" y="39" type="line"/>
      <point x="219" y="43"/>
      <point x="203" y="45"/>
      <point x="193" y="52" type="curve"/>
      <point x="191" y="58"/>
      <point x="188" y="115"/>
      <point x="188" y="158" type="curve"/>
      <point x="188" y="231" type="line" smooth="yes"/>
      <point x="188" y="275"/>
      <point x="191" y="331"/>
      <point x="193" y="336" type="curve"/>
      <point x="203" y="344"/>
      <point x="219" y="346"/>
      <point x="237" y="348" type="curve"/>
      <point x="234" y="392" type="line"/>
      <point x="215" y="390"/>
      <point x="176" y="388"/>
      <point x="128" y="388" type="curve"/>
      <point x="80" y="388"/>
      <point x="39" y="390"/>
      <point x="18" y="392" type="curve"/>
      <point x="16" y="348" type="line"/>
      <point x="34" y="346"/>
      <point x="52" y="344"/>
      <point x="61" y="336" type="curve"/>
      <point x="65" y="331"/>
      <point x="67" y="275"/>
      <point x="67" y="231" type="curve"/>
      <point x="67" y="158" type="line" smooth="yes"/>
      <point x="67" y="115"/>
      <point x="65" y="58"/>
      <point x="61" y="52" type="curve"/>
      <point x="52" y="45"/>
      <point x="34" y="43"/>
    </contour>
    <contour>
      <point x="166" y="227" type="curve"/>
      <point x="166" y="167" type="line"/>
      <point x="185" y="167"/>
      <point x="208" y="169"/>
      <point x="251" y="169" type="curve"/>
      <point x="294" y="169"/>
      <point x="317" y="167"/>
      <point x="337" y="167" type="curve"/>
      <point x="337" y="227" type="line"/>
      <point x="315" y="226"/>
      <point x="294" y="224"/>
      <point x="251" y="224" type="curve"/>
      <point x="208" y="224"/>
      <point x="187" y="226"/>
    </contour>
    <contour>
      <point x="251" y="0" type="move" name="bottom"/>
    </contour>
    <contour>
      <point x="251" y="287" type="move" name="center"/>
    </contour>
    <contour>
      <point x="251" y="388" type="move" name="top"/>
    </contour>
    <contour>
      <point x="19" y="388" type="move" name="topleft"/>
    </contour>
  </outline>
</glyph>
<glyph name="I" format="1">
  <advance width="255"/>
  <unicode hex="0049"/>
  <outline>
    <contour>
      <point x="16" y="39" type="curve"/>
      <point x="18" y="-4" type="line"/>
      <point x="39" y="-2"/>
      <point x="80" y="1"/>
      <point x="128" y="1" type="curve"/>
      <point x="176" y="1"/>
      <point x="217" y="-2"/>
      <point x="238" y="-4" type="curve"/>
      <point x="240" y="39" type="line"/>
      <point x="221" y="43"/>
      <point x="203" y="45"/>
      <point x="193" y="52" type="curve"/>
      <point x="191" y="58"/>
      <point x="188" y="115"/>
      <point x="188" y="158" type="curve"/>
      <point x="188" y="231" type="line" smooth="yes"/>
      <point x="188" y="275"/>
      <point x="191" y="331"/>
      <point x="193" y="336" type="curve"/>
      <point x="203" y="344"/>
      <point x="221" y="346"/>
      <point x="240" y="348" type="curve"/>
      <point x="238" y="392" type="line"/>
      <point x="217" y="390"/>
      <point x="176" y="388"/>
      <point x="128" y="388" type="curve"/>
      <point x="80" y="388"/>
      <point x="39" y="390"/>
      <point x="18" y="392" type="curve"/>
      <point x="16" y="348" type="line"/>
      <point x="34" y="346"/>
      <point x="52" y="344"/>
      <point x="61" y="336" type="curve"/>
      <point x="65" y="331"/>
      <point x="67" y="275"/>
      <point x="67" y="231" type="curve"/>
      <point x="67" y="158" type="line" smooth="yes"/>
      <point x="67" y="115"/>
      <point x="65" y="58"/>
      <point x="61" y="52" type="curve"/>
      <point x="52" y="45"/>
      <point x="34" y="43"/>
    </contour>
    <contour>
      <point x="128" y="0" type="move" name="bottom"/>
    </contour>
    <contour>
      <point x="188" y="0" type="move" name="ogonek"/>
    </contour>
    <contour>
      <point x="128" y="388" type="move" name="top"/>
    </contour>
    <contour>
      <point x="19" y="388" type="move" name="topleft"/>
    </contour>
  </outline>
</glyph>
<glyph name="J" format="1">
  <advance width="256"/>
  <unicode hex="004A"/>
  <outline>
    <contour>
      <point x="194" y="336" type="curve"/>
      <point x="204" y="344"/>
      <point x="224" y="346"/>
      <point x="242" y="347" type="curve"/>
      <point x="239" y="391" type="line"/>
      <point x="219" y="390"/>
      <point x="178" y="388"/>
      <point x="129" y="388" type="curve"/>
      <point x="81" y="388"/>
      <point x="40" y="390"/>
      <point x="18" y="391" type="curve"/>
      <point x="16" y="347" type="line"/>
      <point x="36" y="346"/>
      <point x="53" y="344"/>
      <point x="62" y="338" type="curve"/>
      <point x="64" y="331"/>
      <point x="68" y="277"/>
      <point x="68" y="236" type="curve"/>
      <point x="69" y="-11" type="line"/>
      <point x="69" y="-90"/>
      <point x="69" y="-94"/>
      <point x="39" y="-90" type="curve"/>
      <point x="90" y="-107" type="line"/>
      <point x="30" y="-55" type="line" smooth="yes"/>
      <point x="4" y="-33"/>
      <point x="-10" y="-28"/>
      <point x="-28" y="-28" type="curve"/>
      <point x="-50" y="-28"/>
      <point x="-68" y="-44"/>
      <point x="-68" y="-72" type="curve"/>
      <point x="-68" y="-112"/>
      <point x="-20" y="-134"/>
      <point x="45" y="-134" type="curve"/>
      <point x="125" y="-134"/>
      <point x="191" y="-88"/>
      <point x="191" y="-5" type="curve"/>
      <point x="189" y="233" type="line"/>
      <point x="189" y="277"/>
      <point x="191" y="330"/>
    </contour>
    <contour>
      <point x="129" y="388" type="move" name="top"/>
    </contour>
  </outline>
</glyph>
<glyph name="K" format="1">
  <advance width="502"/>
  <unicode hex="004B"/>
  <outline>
    <contour>
      <point x="253" y="39" type="curve"/>
      <point x="255" y="-4" type="line"/>
      <point x="271" y="-3"/>
      <point x="337" y="1"/>
      <point x="385" y="1" type="curve"/>
      <point x="433" y="1"/>
      <point x="488" y="1"/>
      <point x="499" y="-1" type="curve"/>
      <point x="499" y="42" type="line"/>
      <point x="492" y="43"/>
      <point x="476" y="44"/>
      <point x="470" y="43" type="curve"/>
      <point x="465" y="48"/>
      <point x="456" y="54"/>
      <point x="417" y="102" type="curve"/>
      <point x="281" y="264" type="line"/>
      <point x="283" y="228" type="line"/>
      <point x="424" y="340" type="line"/>
      <point x="439" y="343"/>
      <point x="456" y="345"/>
      <point x="477" y="346" type="curve"/>
      <point x="474" y="389" type="line"/>
      <point x="457" y="388"/>
      <point x="405" y="387"/>
      <point x="379" y="387" type="curve"/>
      <point x="353" y="387"/>
      <point x="317" y="387"/>
      <point x="295" y="388" type="curve"/>
      <point x="294" y="344" type="line"/>
      <point x="301" y="345"/>
      <point x="329" y="345"/>
      <point x="340" y="341" type="curve"/>
      <point x="196" y="203" type="line"/>
      <point x="173" y="200" type="line"/>
      <point x="173" y="163" type="line"/>
      <point x="195" y="163" type="line"/>
      <point x="265" y="78" type="line" smooth="yes"/>
      <point x="276" y="63"/>
      <point x="280" y="58"/>
      <point x="286" y="45" type="curve"/>
      <point x="274" y="42"/>
      <point x="261" y="41"/>
    </contour>
    <contour>
      <point x="18" y="39" type="curve"/>
      <point x="21" y="-4" type="line"/>
      <point x="41" y="-2"/>
      <point x="80" y="1"/>
      <point x="128" y="1" type="curve"/>
      <point x="176" y="1"/>
      <point x="210" y="-2"/>
      <point x="223" y="-4" type="curve"/>
      <point x="225" y="39" type="line"/>
      <point x="212" y="42"/>
      <point x="199" y="45"/>
      <point x="191" y="52" type="curve"/>
      <point x="189" y="58"/>
      <point x="188" y="115"/>
      <point x="188" y="158" type="curve"/>
      <point x="188" y="231" type="line" smooth="yes"/>
      <point x="188" y="276"/>
      <point x="191" y="332"/>
      <point x="192" y="337" type="curve"/>
      <point x="202" y="345"/>
      <point x="221" y="348"/>
      <point x="240" y="349" type="curve"/>
      <point x="237" y="393" type="line"/>
      <point x="217" y="392"/>
      <point x="176" y="388"/>
      <point x="128" y="388" type="curve"/>
      <point x="80" y="388"/>
      <point x="39" y="392"/>
      <point x="18" y="393" type="curve"/>
      <point x="16" y="349" type="line"/>
      <point x="34" y="348"/>
      <point x="52" y="345"/>
      <point x="61" y="337" type="curve"/>
      <point x="65" y="332"/>
      <point x="67" y="276"/>
      <point x="67" y="231" type="curve"/>
      <point x="67" y="158" type="line" smooth="yes"/>
      <point x="67" y="115"/>
      <point x="66" y="58"/>
      <point x="64" y="52" type="curve"/>
      <point x="53" y="45"/>
      <point x="35" y="43"/>
    </contour>
    <contour>
      <point x="238" y="0" type="move" name="bottom"/>
    </contour>
    <contour>
      <point x="238" y="388" type="move" name="top"/>
    </contour>
  </outline>
</glyph>
<glyph name="L" format="1">
  <advance width="404"/>
  <unicode hex="004C"/>
  <outline>
    <contour>
      <point x="366" y="-6" type="curve"/>
      <point x="404" y="129" type="line"/>
      <point x="352" y="141" type="line"/>
      <point x="336" y="112"/>
      <point x="325" y="84"/>
      <point x="311" y="63" type="curve"/>
      <point x="307" y="62"/>
      <point x="308" y="58"/>
      <point x="262" y="58" type="curve"/>
      <point x="266" y="58" type="line" smooth="yes"/>
      <point x="234" y="58"/>
      <point x="215" y="59"/>
      <point x="196" y="62" type="curve"/>
      <point x="194" y="75"/>
      <point x="192" y="102"/>
      <point x="192" y="158" type="curve"/>
      <point x="192" y="231" type="line" smooth="yes"/>
      <point x="192" y="275"/>
      <point x="195" y="330"/>
      <point x="197" y="335" type="curve"/>
      <point x="207" y="343"/>
      <point x="222" y="347"/>
      <point x="261" y="349" type="curve"/>
      <point x="259" y="393" type="line"/>
      <point x="204" y="390"/>
      <point x="184" y="387"/>
      <point x="140" y="387" type="curve"/>
      <point x="104" y="387"/>
      <point x="41" y="390"/>
      <point x="21" y="392" type="curve"/>
      <point x="18" y="348" type="line"/>
      <point x="37" y="348"/>
      <point x="55" y="344"/>
      <point x="65" y="336" type="curve"/>
      <point x="67" y="331"/>
      <point x="70" y="275"/>
      <point x="70" y="231" type="curve"/>
      <point x="70" y="158" type="line" smooth="yes"/>
      <point x="70" y="115"/>
      <point x="67" y="58"/>
      <point x="65" y="52" type="curve"/>
      <point x="55" y="45"/>
      <point x="37" y="43"/>
      <point x="18" y="39" type="curve"/>
      <point x="21" y="-4" type="line"/>
      <point x="41" y="-2"/>
      <point x="94" y="0"/>
      <point x="130" y="0" type="curve"/>
      <point x="224" y="0" type="line" smooth="yes"/>
      <point x="258" y="0"/>
      <point x="339" y="-4"/>
    </contour>
    <contour>
      <point x="219" y="0" type="move" name="bottom"/>
    </contour>
    <contour>
      <point x="147" y="200" type="move" name="center"/>
    </contour>
    <contour>
      <point x="293" y="212" type="move" name="dotacc"/>
    </contour>
    <contour>
      <point x="130" y="388" type="move" name="top"/>
    </contour>
    <contour>
      <point x="277" y="388" type="move" name="topright"/>
    </contour>
  </outline>
</glyph>
<glyph name="M" format="1">
  <advance width="641"/>
  <unicode hex="004D"/>
  <outline>
    <contour>
      <point x="23" y="390" type="curve"/>
      <point x="21" y="346" type="line"/>
      <point x="42" y="344"/>
      <point x="60" y="344"/>
      <point x="69" y="336" type="curve"/>
      <point x="69" y="335"/>
      <point x="69" y="318"/>
      <point x="69" y="257" type="curve"/>
      <point x="68" y="134" type="line" smooth="yes"/>
      <point x="67" y="89"/>
      <point x="64" y="55"/>
      <point x="63" y="52" type="curve"/>
      <point x="54" y="45"/>
      <point x="31" y="44"/>
      <point x="11" y="40" type="curve"/>
      <point x="14" y="-3" type="line"/>
      <point x="36" y="-1"/>
      <point x="72" y="1"/>
      <point x="91" y="1" type="curve"/>
      <point x="113" y="1"/>
      <point x="159" y="-1"/>
      <point x="181" y="-3" type="curve"/>
      <point x="183" y="40" type="line"/>
      <point x="163" y="44"/>
      <point x="144" y="45"/>
      <point x="134" y="52" type="curve"/>
      <point x="132" y="54"/>
      <point x="132" y="86"/>
      <point x="132" y="138" type="curve"/>
      <point x="131" y="369" type="line"/>
      <point x="67" y="369" type="line"/>
      <point x="265" y="-2" type="line"/>
      <point x="324" y="-2" type="line"/>
      <point x="489" y="369" type="line"/>
      <point x="445" y="369" type="line"/>
      <point x="449" y="156" type="line" smooth="yes"/>
      <point x="449" y="107"/>
      <point x="448" y="54"/>
      <point x="446" y="52" type="curve"/>
      <point x="434" y="45"/>
      <point x="420" y="43"/>
      <point x="402" y="39" type="curve"/>
      <point x="405" y="-4" type="line"/>
      <point x="425" y="-2"/>
      <point x="461" y="1"/>
      <point x="508" y="1" type="curve"/>
      <point x="554" y="1"/>
      <point x="604" y="-2"/>
      <point x="625" y="-4" type="curve"/>
      <point x="628" y="39" type="line"/>
      <point x="608" y="43"/>
      <point x="590" y="45"/>
      <point x="582" y="52" type="curve"/>
      <point x="580" y="51"/>
      <point x="574" y="116"/>
      <point x="572" y="148" type="curve"/>
      <point x="567" y="259" type="line" smooth="yes"/>
      <point x="566" y="276"/>
      <point x="563" y="327"/>
      <point x="567" y="339" type="curve"/>
      <point x="577" y="344"/>
      <point x="596" y="347"/>
      <point x="615" y="349" type="curve"/>
      <point x="613" y="392" type="line"/>
      <point x="590" y="390"/>
      <point x="547" y="387"/>
      <point x="508" y="387" type="curve"/>
      <point x="485" y="387"/>
      <point x="455" y="388"/>
      <point x="435" y="389" type="curve"/>
      <point x="312" y="115" type="line"/>
      <point x="339" y="115" type="line"/>
      <point x="193" y="389" type="line"/>
      <point x="175" y="388"/>
      <point x="123" y="387"/>
      <point x="104" y="387" type="curve"/>
      <point x="89" y="387"/>
      <point x="50" y="389"/>
    </contour>
    <contour>
      <point x="292" y="0" type="move" name="bottom"/>
    </contour>
    <contour>
      <point x="292" y="388" type="move" name="top"/>
    </contour>
  </outline>
</glyph>
<glyph name="N" format="1">
  <advance width="494"/>
  <unicode hex="004E"/>
  <outline>
    <contour>
      <point x="367" y="207" type="curve"/>
      <point x="367" y="145" type="line"/>
      <point x="407" y="145" type="line"/>
      <point x="140" y="389" type="line"/>
      <point x="130" y="388"/>
      <point x="99" y="389"/>
      <point x="83" y="389" type="curve"/>
      <point x="67" y="389"/>
      <point x="40" y="390"/>
      <point x="18" y="392" type="curve"/>
      <point x="16" y="349" type="line"/>
      <point x="34" y="347"/>
      <point x="52" y="344"/>
      <point x="62" y="336" type="curve"/>
      <point x="63" y="339"/>
      <point x="67" y="275"/>
      <point x="67" y="260" type="curve"/>
      <point x="67" y="195" type="line" smooth="yes"/>
      <point x="67" y="99"/>
      <point x="64" y="58"/>
      <point x="62" y="52" type="curve"/>
      <point x="52" y="45"/>
      <point x="32" y="43"/>
      <point x="12" y="39" type="curve"/>
      <point x="14" y="-4" type="line"/>
      <point x="37" y="-2"/>
      <point x="75" y="1"/>
      <point x="97" y="1" type="curve"/>
      <point x="117" y="1"/>
      <point x="161" y="-2"/>
      <point x="182" y="-4" type="curve"/>
      <point x="185" y="39" type="line"/>
      <point x="164" y="43"/>
      <point x="146" y="45"/>
      <point x="136" y="52" type="curve"/>
      <point x="133" y="58"/>
      <point x="128" y="99"/>
      <point x="130" y="195" type="curve"/>
      <point x="132" y="288" type="line"/>
      <point x="76" y="288" type="line"/>
      <point x="376" y="-4" type="line"/>
      <point x="427" y="-4" type="line"/>
      <point x="427" y="27"/>
      <point x="427" y="56"/>
      <point x="427" y="108" type="curve"/>
      <point x="427" y="207" type="line" smooth="yes"/>
      <point x="427" y="289"/>
      <point x="429" y="331"/>
      <point x="432" y="336" type="curve"/>
      <point x="442" y="344"/>
      <point x="460" y="345"/>
      <point x="481" y="348" type="curve"/>
      <point x="478" y="392" type="line"/>
      <point x="455" y="389"/>
      <point x="425" y="389"/>
      <point x="401" y="389" type="curve"/>
      <point x="378" y="389"/>
      <point x="338" y="389"/>
      <point x="315" y="392" type="curve"/>
      <point x="312" y="348" type="line"/>
      <point x="333" y="345"/>
      <point x="353" y="344"/>
      <point x="362" y="336" type="curve"/>
      <point x="364" y="331"/>
      <point x="367" y="289"/>
    </contour>
    <contour>
      <point x="246" y="0" type="move" name="bottom"/>
    </contour>
    <contour>
      <point x="246" y="388" type="move" name="top"/>
    </contour>
  </outline>
</glyph>
<glyph name="O" format="1">
  <advance width="512"/>
  <unicode hex="004F"/>
  <outline>
    <contour>
      <point x="262" y="-6" type="curve"/>
      <point x="343" y="-6"/>
      <point x="483" y="49"/>
      <point x="483" y="202" type="curve"/>
      <point x="483" y="314"/>
      <point x="391" y="394"/>
      <point x="260" y="394" type="curve"/>
      <point x="126" y="394"/>
      <point x="29" y="307"/>
      <point x="29" y="186" type="curve"/>
      <point x="29" y="75"/>
      <point x="127" y="-6"/>
    </contour>
    <contour>
      <point x="265" y="55" type="curve"/>
      <point x="208" y="55"/>
      <point x="170" y="119"/>
      <point x="170" y="212" type="curve"/>
      <point x="170" y="293"/>
      <point x="201" y="341"/>
      <point x="252" y="341" type="curve"/>
      <point x="308" y="341"/>
      <point x="343" y="280"/>
      <point x="343" y="183" type="curve"/>
      <point x="343" y="96"/>
      <point x="320" y="55"/>
    </contour>
    <contour>
      <point x="256" y="0" type="move" name="bottom"/>
    </contour>
    <contour>
      <point x="256" y="194" type="move" name="center"/>
    </contour>
    <contour>
      <point x="309" y="0" type="move" name="ogonek"/>
    </contour>
    <contour>
      <point x="256" y="388" type="move" name="top"/>
    </contour>
    <contour>
      <point x="13" y="388" type="move" name="topleft"/>
    </contour>
    <contour>
      <point x="499" y="388" type="move" name="topright"/>
    </contour>
  </outline>
</glyph>
<glyph name="P" format="1">
  <advance width="425"/>
  <unicode hex="0050"/>
  <outline>
    <contour>
      <point x="18" y="39" type="curve"/>
      <point x="20" y="-4" type="line"/>
      <point x="40" y="-2"/>
      <point x="100" y="-2"/>
      <point x="134" y="-2" type="curve"/>
      <point x="169" y="-2"/>
      <point x="229" y="-2"/>
      <point x="253" y="-4" type="curve"/>
      <point x="255" y="41" type="line"/>
      <point x="239" y="43"/>
      <point x="223" y="44"/>
      <point x="193" y="52" type="curve"/>
      <point x="191" y="58"/>
      <point x="188" y="115"/>
      <point x="188" y="103" type="curve"/>
      <point x="188" y="193" type="line" smooth="yes"/>
      <point x="188" y="309"/>
      <point x="188" y="328"/>
      <point x="188" y="340" type="curve"/>
      <point x="192" y="342"/>
      <point x="200" y="344"/>
      <point x="211" y="344" type="curve"/>
      <point x="251" y="344"/>
      <point x="278" y="315"/>
      <point x="278" y="256" type="curve"/>
      <point x="278" y="217"/>
      <point x="260" y="189"/>
      <point x="221" y="189" type="curve"/>
      <point x="201" y="189"/>
      <point x="183" y="193"/>
      <point x="179" y="199" type="curve"/>
      <point x="179" y="142" type="line"/>
      <point x="192" y="140"/>
      <point x="211" y="138"/>
      <point x="221" y="138" type="curve"/>
      <point x="349" y="138"/>
      <point x="407" y="200"/>
      <point x="407" y="261" type="curve"/>
      <point x="407" y="342"/>
      <point x="339" y="389"/>
      <point x="229" y="389" type="curve"/>
      <point x="194" y="389"/>
      <point x="168" y="387"/>
      <point x="141" y="387" type="curve"/>
      <point x="89" y="387"/>
      <point x="39" y="387"/>
      <point x="18" y="389" type="curve"/>
      <point x="16" y="345" type="line"/>
      <point x="34" y="344"/>
      <point x="52" y="344"/>
      <point x="61" y="336" type="curve"/>
      <point x="65" y="331"/>
      <point x="67" y="275"/>
      <point x="67" y="231" type="curve"/>
      <point x="67" y="158" type="line" smooth="yes"/>
      <point x="67" y="115"/>
      <point x="65" y="58"/>
      <point x="61" y="52" type="curve"/>
      <point x="52" y="45"/>
      <point x="35" y="43"/>
    </contour>
    <contour>
      <point x="128" y="0" type="move" name="bottom"/>
    </contour>
    <contour>
      <point x="217" y="388" type="move" name="top"/>
    </contour>
  </outline>
</glyph>
<glyph name="Q" format="1">
  <advance width="512"/>
  <unicode hex="0051"/>
  <outline>
    <contour>
      <point x="262" y="-4" type="curve"/>
      <point x="272" y="-2" type="line"/>
      <point x="349" y="-2"/>
      <point x="483" y="50"/>
      <point x="483" y="202" type="curve"/>
      <point x="483" y="314"/>
      <point x="391" y="394"/>
      <point x="260" y="394" type="curve"/>
      <point x="126" y="394"/>
      <point x="29" y="307"/>
      <point x="29" y="186" type="curve"/>
      <point x="29" y="75"/>
      <point x="127" y="-4"/>
    </contour>
    <contour>
      <point x="435" y="-105" type="curve"/>
      <point x="480" y="-105"/>
      <point x="518" y="-91"/>
      <point x="543" y="-74" type="curve"/>
      <point x="531" y="-31" type="line"/>
      <point x="512" y="-36"/>
      <point x="495" y="-37"/>
      <point x="484" y="-37" type="curve"/>
      <point x="457" y="-37"/>
      <point x="446" y="-32"/>
      <point x="411" y="-10" type="curve"/>
      <point x="385" y="7"/>
      <point x="345" y="13"/>
      <point x="310" y="13" type="curve"/>
      <point x="173" y="13" type="line"/>
      <point x="203" y="-2"/>
      <point x="200" y="3"/>
      <point x="239" y="-35" type="curve"/>
      <point x="269" y="-67"/>
      <point x="329" y="-105"/>
    </contour>
    <contour>
      <point x="265" y="55" type="curve"/>
      <point x="208" y="55"/>
      <point x="170" y="119"/>
      <point x="170" y="212" type="curve"/>
      <point x="170" y="293"/>
      <point x="201" y="341"/>
      <point x="252" y="341" type="curve"/>
      <point x="308" y="341"/>
      <point x="343" y="280"/>
      <point x="343" y="183" type="curve"/>
      <point x="343" y="96"/>
      <point x="320" y="55"/>
    </contour>
    <contour>
      <point x="256" y="0" type="move" name="bottom"/>
    </contour>
    <contour>
      <point x="256" y="388" type="move" name="top"/>
    </contour>
  </outline>
</glyph>
<glyph name="R" format="1">
  <advance width="454"/>
  <unicode hex="0052"/>
  <outline>
    <contour>
      <point x="18" y="39" type="curve"/>
      <point x="20" y="-4" type="line"/>
      <point x="41" y="-2"/>
      <point x="78" y="1"/>
      <point x="125" y="1" type="curve"/>
      <point x="173" y="1"/>
      <point x="211" y="-2"/>
      <point x="223" y="-4" type="curve"/>
      <point x="226" y="39" type="line"/>
      <point x="213" y="42"/>
      <point x="197" y="44"/>
      <point x="189" y="52" type="curve"/>
      <point x="189" y="63"/>
      <point x="187" y="115"/>
      <point x="187" y="158" type="curve"/>
      <point x="187" y="231" type="line" smooth="yes"/>
      <point x="187" y="293"/>
      <point x="191" y="343"/>
      <point x="191" y="346" type="curve"/>
      <point x="198" y="348"/>
      <point x="201" y="349"/>
      <point x="206" y="349" type="curve"/>
      <point x="235" y="349"/>
      <point x="267" y="332"/>
      <point x="267" y="288" type="curve"/>
      <point x="267" y="233"/>
      <point x="226" y="216"/>
      <point x="200" y="216" type="curve"/>
      <point x="198" y="216"/>
      <point x="190" y="217"/>
      <point x="184" y="217" type="curve"/>
      <point x="184" y="171" type="line"/>
      <point x="221" y="171" type="line" smooth="yes"/>
      <point x="320" y="171"/>
      <point x="394" y="218"/>
      <point x="394" y="283" type="curve"/>
      <point x="394" y="366"/>
      <point x="326" y="391"/>
      <point x="219" y="391" type="curve"/>
      <point x="194" y="391"/>
      <point x="160" y="387"/>
      <point x="137" y="387" type="curve"/>
      <point x="103" y="387"/>
      <point x="63" y="387"/>
      <point x="18" y="390" type="curve"/>
      <point x="16" y="346" type="line"/>
      <point x="34" y="345"/>
      <point x="52" y="342"/>
      <point x="61" y="334" type="curve"/>
      <point x="65" y="329"/>
      <point x="67" y="275"/>
      <point x="67" y="231" type="curve"/>
      <point x="67" y="158" type="line" smooth="yes"/>
      <point x="67" y="115"/>
      <point x="66" y="58"/>
      <point x="65" y="52" type="curve"/>
      <point x="53" y="45"/>
      <point x="35" y="43"/>
    </contour>
    <contour>
      <point x="412" y="-9" type="curve"/>
      <point x="430" y="-9"/>
      <point x="447" y="-8"/>
      <point x="467" y="-4" type="curve"/>
      <point x="467" y="33" type="line"/>
      <point x="434" y="43"/>
      <point x="402" y="65"/>
      <point x="382" y="90" type="curve"/>
      <point x="294" y="203" type="line"/>
      <point x="197" y="181" type="line"/>
      <point x="230" y="100" type="line" smooth="yes"/>
      <point x="258" y="32"/>
      <point x="318" y="-9"/>
    </contour>
    <contour>
      <point x="244" y="0" type="move" name="bottom"/>
    </contour>
    <contour>
      <point x="226" y="388" type="move" name="top"/>
    </contour>
  </outline>
</glyph>
<glyph name="S" format="1">
  <advance width="376"/>
  <unicode hex="0053"/>
  <outline>
    <contour>
      <point x="173" y="-6" type="curve"/>
      <point x="291" y="-6"/>
      <point x="367" y="46"/>
      <point x="367" y="119" type="curve"/>
      <point x="367" y="251"/>
      <point x="164" y="221"/>
      <point x="164" y="301" type="curve"/>
      <point x="164" y="331"/>
      <point x="191" y="345"/>
      <point x="220" y="345" type="curve"/>
      <point x="231" y="345"/>
      <point x="246" y="345"/>
      <point x="265" y="338" type="curve"/>
      <point x="272" y="324"/>
      <point x="283" y="292"/>
      <point x="289" y="262" type="curve"/>
      <point x="344" y="267" type="line"/>
      <point x="334" y="376" type="line"/>
      <point x="306" y="387"/>
      <point x="256" y="396"/>
      <point x="227" y="396" type="curve"/>
      <point x="112" y="396"/>
      <point x="37" y="344"/>
      <point x="37" y="267" type="curve"/>
      <point x="37" y="126"/>
      <point x="238" y="169"/>
      <point x="238" y="80" type="curve"/>
      <point x="238" y="59"/>
      <point x="220" y="46"/>
      <point x="181" y="46" type="curve"/>
      <point x="168" y="46"/>
      <point x="139" y="49"/>
      <point x="120" y="61" type="curve"/>
      <point x="109" y="86"/>
      <point x="99" y="114"/>
      <point x="93" y="139" type="curve"/>
      <point x="37" y="135" type="line"/>
      <point x="36" y="105"/>
      <point x="37" y="72"/>
      <point x="39" y="27" type="curve"/>
      <point x="79" y="6"/>
      <point x="134" y="-6"/>
    </contour>
    <contour>
      <point x="198" y="0" type="move" name="bottom"/>
    </contour>
    <contour>
      <point x="198" y="388" type="move" name="top"/>
    </contour>
  </outline>
</glyph>
<glyph name="T" format="1">
  <advance width="455"/>
  <unicode hex="0054"/>
  <outline>
    <contour>
      <point x="428" y="392" type="curve"/>
      <point x="410" y="392"/>
      <point x="334" y="388"/>
      <point x="307" y="388" type="curve"/>
      <point x="146" y="388" type="line" smooth="yes"/>
      <point x="117" y="388"/>
      <point x="42" y="392"/>
      <point x="23" y="392" type="curve"/>
      <point x="19" y="350"/>
      <point x="14" y="307"/>
      <point x="10" y="265" type="curve"/>
      <point x="62" y="261" type="line"/>
      <point x="68" y="286"/>
      <point x="74" y="313"/>
      <point x="87" y="341" type="curve"/>
      <point x="103" y="342"/>
      <point x="110" y="343"/>
      <point x="126" y="343" type="curve"/>
      <point x="148" y="343" type="line" smooth="yes"/>
      <point x="155" y="343"/>
      <point x="163" y="342"/>
      <point x="164" y="341" type="curve"/>
      <point x="165" y="334"/>
      <point x="167" y="266"/>
      <point x="167" y="200" type="curve"/>
      <point x="167" y="162" type="line" smooth="yes"/>
      <point x="167" y="118"/>
      <point x="165" y="78"/>
      <point x="163" y="52" type="curve"/>
      <point x="143" y="46"/>
      <point x="118" y="43"/>
      <point x="93" y="41" type="curve"/>
      <point x="95" y="-4" type="line"/>
      <point x="130" y="-2"/>
      <point x="191" y="0"/>
      <point x="227" y="0" type="curve"/>
      <point x="262" y="0"/>
      <point x="325" y="-2"/>
      <point x="359" y="-4" type="curve"/>
      <point x="362" y="41" type="line"/>
      <point x="337" y="43"/>
      <point x="311" y="46"/>
      <point x="292" y="52" type="curve"/>
      <point x="290" y="78"/>
      <point x="289" y="118"/>
      <point x="289" y="162" type="curve"/>
      <point x="289" y="200" type="line" smooth="yes"/>
      <point x="289" y="266"/>
      <point x="290" y="334"/>
      <point x="291" y="341" type="curve"/>
      <point x="292" y="342"/>
      <point x="299" y="343"/>
      <point x="307" y="343" type="curve"/>
      <point x="329" y="343" type="line" smooth="yes"/>
      <point x="344" y="343"/>
      <point x="349" y="342"/>
      <point x="365" y="341" type="curve"/>
      <point x="377" y="313"/>
      <point x="385" y="286"/>
      <point x="393" y="262" type="curve"/>
      <point x="445" y="266" type="line"/>
      <point x="438" y="307"/>
      <point x="433" y="350"/>
    </contour>
    <contour>
      <point x="227" y="0" type="move" name="bottom"/>
    </contour>
    <contour>
      <point x="228" y="200" type="move" name="stroke"/>
    </contour>
    <contour>
      <point x="228" y="388" type="move" name="top"/>
    </contour>
  </outline>
</glyph>
<glyph name="U" format="1">
  <advance width="500"/>
  <unicode hex="0055"/>
  <outline>
    <contour>
      <point x="14" y="391" type="curve"/>
      <point x="11" y="347" type="line"/>
      <point x="29" y="346"/>
      <point x="47" y="344"/>
      <point x="57" y="336" type="curve"/>
      <point x="60" y="331"/>
      <point x="62" y="275"/>
      <point x="62" y="231" type="curve"/>
      <point x="62" y="177" type="line" smooth="yes"/>
      <point x="62" y="57"/>
      <point x="134" y="-6"/>
      <point x="259" y="-6" type="curve"/>
      <point x="359" y="-6"/>
      <point x="438" y="54"/>
      <point x="438" y="171" type="curve"/>
      <point x="438" y="219" type="line" smooth="yes"/>
      <point x="438" y="247"/>
      <point x="440" y="331"/>
      <point x="442" y="336" type="curve"/>
      <point x="452" y="344"/>
      <point x="461" y="346"/>
      <point x="493" y="347" type="curve"/>
      <point x="491" y="391" type="line"/>
      <point x="466" y="390"/>
      <point x="425" y="390"/>
      <point x="407" y="390" type="curve"/>
      <point x="391" y="390"/>
      <point x="341" y="390"/>
      <point x="316" y="391" type="curve"/>
      <point x="314" y="347" type="line"/>
      <point x="337" y="346"/>
      <point x="354" y="344"/>
      <point x="364" y="336" type="curve"/>
      <point x="367" y="331"/>
      <point x="369" y="247"/>
      <point x="369" y="219" type="curve"/>
      <point x="369" y="188" type="line" smooth="yes"/>
      <point x="369" y="102"/>
      <point x="334" y="72"/>
      <point x="277" y="72" type="curve"/>
      <point x="216" y="72"/>
      <point x="183" y="111"/>
      <point x="184" y="191" type="curve"/>
      <point x="184" y="231" type="line"/>
      <point x="184" y="275"/>
      <point x="186" y="317"/>
      <point x="190" y="336" type="curve"/>
      <point x="199" y="344"/>
      <point x="216" y="346"/>
      <point x="239" y="347" type="curve"/>
      <point x="237" y="391" type="line"/>
      <point x="213" y="390"/>
      <point x="172" y="389"/>
      <point x="124" y="389" type="curve"/>
      <point x="75" y="389"/>
      <point x="34" y="390"/>
    </contour>
    <contour>
      <point x="277" y="0" type="move" name="bottom"/>
    </contour>
    <contour>
      <point x="312" y="0" type="move" name="ogonek"/>
    </contour>
    <contour>
      <point x="276" y="388" type="move" name="top"/>
    </contour>
    <contour>
      <point x="482" y="388" type="move" name="topright"/>
    </contour>
  </outline>
</glyph>
<glyph name="V" format="1">
  <advance width="440"/>
  <unicode hex="0056"/>
  <outline>
    <contour>
      <point x="25" y="338" type="curve"/>
      <point x="196" y="-2" type="line"/>
      <point x="240" y="-2" type="line"/>
      <point x="415" y="338" type="line"/>
      <point x="430" y="344"/>
      <point x="438" y="347"/>
      <point x="449" y="347" type="curve"/>
      <point x="447" y="391" type="line"/>
      <point x="415" y="390"/>
      <point x="389" y="390"/>
      <point x="373" y="390" type="curve"/>
      <point x="353" y="390"/>
      <point x="320" y="390"/>
      <point x="284" y="391" type="curve"/>
      <point x="282" y="346" type="line"/>
      <point x="307" y="342"/>
      <point x="325" y="344"/>
      <point x="341" y="341" type="curve"/>
      <point x="238" y="107" type="line"/>
      <point x="276" y="107" type="line"/>
      <point x="162" y="341" type="line"/>
      <point x="178" y="344"/>
      <point x="196" y="342"/>
      <point x="223" y="346" type="curve"/>
      <point x="220" y="391" type="line"/>
      <point x="188" y="391"/>
      <point x="118" y="389"/>
      <point x="89" y="389" type="curve"/>
      <point x="62" y="389"/>
      <point x="21" y="391"/>
      <point x="-7" y="391" type="curve"/>
      <point x="-9" y="347" type="line"/>
      <point x="2" y="347"/>
      <point x="9" y="344"/>
    </contour>
    <contour>
      <point x="216" y="0" type="move" name="bottom"/>
    </contour>
    <contour>
      <point x="216" y="388" type="move" name="top"/>
    </contour>
  </outline>
</glyph>
<glyph name="W" format="1">
  <advance width="700"/>
  <unicode hex="0057"/>
  <outline>
    <contour>
      <point x="239" y="-2" type="line"/>
      <point x="351" y="232" type="line"/>
      <point x="312" y="295" type="line"/>
      <point x="229" y="107" type="line"/>
      <point x="277" y="107" type="line"/>
      <point x="166" y="341" type="line"/>
      <point x="175" y="343"/>
      <point x="184" y="343"/>
      <point x="198" y="346" type="curve"/>
      <point x="196" y="391" type="line"/>
      <point x="170" y="389"/>
      <point x="124" y="389"/>
      <point x="94" y="389" type="curve"/>
      <point x="67" y="389"/>
      <point x="37" y="389"/>
      <point x="-2" y="391" type="curve"/>
      <point x="-5" y="347" type="line"/>
      <point x="6" y="346"/>
      <point x="17" y="344"/>
      <point x="28" y="338" type="curve"/>
      <point x="196" y="-2" type="line"/>
    </contour>
    <contour>
      <point x="289" y="338" type="curve"/>
      <point x="460" y="-2" type="line"/>
      <point x="504" y="-2" type="line"/>
      <point x="669" y="338" type="line"/>
      <point x="682" y="344"/>
      <point x="692" y="346"/>
      <point x="703" y="347" type="curve"/>
      <point x="701" y="391" type="line"/>
      <point x="670" y="390"/>
      <point x="647" y="389"/>
      <point x="631" y="389" type="curve"/>
      <point x="611" y="389"/>
      <point x="574" y="389"/>
      <point x="540" y="391" type="curve"/>
      <point x="538" y="346" type="line"/>
      <point x="563" y="343"/>
      <point x="576" y="344"/>
      <point x="595" y="341" type="curve"/>
      <point x="498" y="107" type="line"/>
      <point x="536" y="107" type="line"/>
      <point x="422" y="341" type="line"/>
      <point x="437" y="343"/>
      <point x="453" y="343"/>
      <point x="480" y="347" type="curve"/>
      <point x="477" y="391" type="line"/>
      <point x="446" y="389"/>
      <point x="400" y="389"/>
      <point x="372" y="389" type="curve"/>
      <point x="344" y="389"/>
      <point x="295" y="389"/>
      <point x="261" y="391" type="curve"/>
      <point x="258" y="347" type="line"/>
      <point x="267" y="346"/>
      <point x="279" y="343"/>
    </contour>
    <contour>
      <point x="357" y="0" type="move" name="bottom"/>
    </contour>
    <contour>
      <point x="357" y="388" type="move" name="top"/>
    </contour>
  </outline>
</glyph>
<glyph name="X" format="1">
  <advance width="435"/>
  <unicode hex="0058"/>
  <outline>
    <contour>
      <point x="438" y="-1" type="curve"/>
      <point x="439" y="42" type="line"/>
      <point x="425" y="42"/>
      <point x="413" y="44"/>
      <point x="405" y="50" type="curve"/>
      <point x="274" y="227" type="line"/>
      <point x="242" y="272" type="line"/>
      <point x="189" y="339" type="line"/>
      <point x="198" y="344"/>
      <point x="205" y="345"/>
      <point x="216" y="346" type="curve"/>
      <point x="215" y="390" type="line"/>
      <point x="203" y="390"/>
      <point x="148" y="389"/>
      <point x="111" y="389" type="curve"/>
      <point x="74" y="389"/>
      <point x="33" y="390"/>
      <point x="19" y="390" type="curve"/>
      <point x="17" y="346" type="line"/>
      <point x="30" y="348"/>
      <point x="43" y="344"/>
      <point x="51" y="338" type="curve"/>
      <point x="161" y="186" type="line"/>
      <point x="195" y="141" type="line"/>
      <point x="263" y="52" type="line"/>
      <point x="253" y="44"/>
      <point x="236" y="43"/>
      <point x="217" y="40" type="curve"/>
      <point x="219" y="-3" type="line"/>
      <point x="251" y="-1"/>
      <point x="299" y="1"/>
      <point x="344" y="1" type="curve"/>
      <point x="402" y="1"/>
      <point x="422" y="-1"/>
    </contour>
    <contour>
      <point x="291" y="339" type="curve"/>
      <point x="242" y="272" type="line"/>
      <point x="161" y="186" type="line"/>
      <point x="48" y="52" type="line"/>
      <point x="42" y="44"/>
      <point x="29" y="44"/>
      <point x="16" y="42" type="curve"/>
      <point x="17" y="-1" type="line"/>
      <point x="38" y="1"/>
      <point x="68" y="2"/>
      <point x="93" y="2" type="curve"/>
      <point x="119" y="2"/>
      <point x="158" y="2"/>
      <point x="173" y="-1" type="curve"/>
      <point x="174" y="42" type="line"/>
      <point x="159" y="43"/>
      <point x="133" y="50"/>
      <point x="128" y="52" type="curve"/>
      <point x="195" y="141" type="line"/>
      <point x="274" y="227" type="line"/>
      <point x="371" y="339" type="line"/>
      <point x="378" y="344"/>
      <point x="390" y="348"/>
      <point x="405" y="346" type="curve"/>
      <point x="404" y="390" type="line"/>
      <point x="387" y="390"/>
      <point x="381" y="389"/>
      <point x="342" y="389" type="curve"/>
      <point x="306" y="389"/>
      <point x="284" y="390"/>
      <point x="263" y="390" type="curve"/>
      <point x="261" y="346" type="line"/>
      <point x="273" y="346"/>
      <point x="280" y="344"/>
    </contour>
    <contour>
      <point x="214" y="0" type="move" name="bottom"/>
    </contour>
    <contour>
      <point x="214" y="388" type="move" name="top"/>
    </contour>
  </outline>
</glyph>
<glyph name="Y" format="1">
  <advance width="435"/>
  <unicode hex="0059"/>
  <outline>
    <contour>
      <point x="236" y="100" type="line"/>
      <point x="393" y="340" type="line"/>
      <point x="400" y="343"/>
      <point x="413" y="346"/>
      <point x="428" y="346" type="curve"/>
      <point x="425" y="390" type="line"/>
      <point x="393" y="390"/>
      <point x="370" y="389"/>
      <point x="351" y="389" type="curve"/>
      <point x="328" y="389"/>
      <point x="303" y="390"/>
      <point x="269" y="390" type="curve"/>
      <point x="266" y="345" type="line"/>
      <point x="294" y="342"/>
      <point x="313" y="343"/>
      <point x="325" y="341" type="curve"/>
      <point x="242" y="202" type="line"/>
      <point x="263" y="202" type="line"/>
      <point x="179" y="341" type="line"/>
      <point x="190" y="343"/>
      <point x="208" y="342"/>
      <point x="237" y="345" type="curve"/>
      <point x="235" y="390" type="line"/>
      <point x="208" y="390"/>
      <point x="138" y="389"/>
      <point x="108" y="389" type="curve"/>
      <point x="77" y="389"/>
      <point x="42" y="390"/>
      <point x="9" y="390" type="curve"/>
      <point x="7" y="346" type="line"/>
      <point x="24" y="344"/>
      <point x="34" y="342"/>
      <point x="41" y="340" type="curve"/>
      <point x="186" y="100" type="line"/>
      <point x="157" y="185" type="line"/>
      <point x="157" y="117" type="line" smooth="yes"/>
      <point x="157" y="115"/>
      <point x="156" y="57"/>
      <point x="154" y="51" type="curve"/>
      <point x="144" y="44"/>
      <point x="125" y="42"/>
      <point x="100" y="39" type="curve"/>
      <point x="103" y="-4" type="line"/>
      <point x="129" y="-2"/>
      <point x="170" y="1"/>
      <point x="217" y="1" type="curve"/>
      <point x="264" y="1"/>
      <point x="305" y="-2"/>
      <point x="332" y="-4" type="curve"/>
      <point x="335" y="39" type="line"/>
      <point x="309" y="42"/>
      <point x="291" y="44"/>
      <point x="282" y="51" type="curve"/>
      <point x="278" y="57"/>
      <point x="277" y="115"/>
      <point x="277" y="117" type="curve"/>
      <point x="277" y="185" type="line"/>
    </contour>
    <contour>
      <point x="217" y="0" type="move" name="bottom"/>
    </contour>
    <contour>
      <point x="217" y="388" type="move" name="top"/>
    </contour>
    <contour>
      <point x="17" y="388" type="move" name="topleft"/>
    </contour>
  </outline>
</glyph>
<glyph name="Z" format="1">
  <advance width="394"/>
  <unicode hex="005A"/>
  <outline>
    <contour>
      <point x="364" y="-4" type="curve"/>
      <point x="388" y="122" type="line"/>
      <point x="336" y="129" type="line"/>
      <point x="322" y="93"/>
      <point x="315" y="72"/>
      <point x="307" y="52" type="curve"/>
      <point x="291" y="50"/>
      <point x="283" y="49"/>
      <point x="270" y="49" type="curve"/>
      <point x="156" y="49" type="line"/>
      <point x="156" y="18" type="line"/>
      <point x="364" y="345" type="line"/>
      <point x="364" y="389" type="line"/>
      <point x="345" y="389"/>
      <point x="326" y="388"/>
      <point x="307" y="388" type="curve"/>
      <point x="101" y="388" type="line" smooth="yes"/>
      <point x="83" y="388"/>
      <point x="47" y="388"/>
      <point x="24" y="390" type="curve"/>
      <point x="26" y="270" type="line"/>
      <point x="80" y="270" type="line"/>
      <point x="86" y="306"/>
      <point x="90" y="319"/>
      <point x="96" y="339" type="curve"/>
      <point x="112" y="341"/>
      <point x="128" y="343"/>
      <point x="162" y="343" type="curve"/>
      <point x="251" y="343" type="line"/>
      <point x="251" y="377" type="line"/>
      <point x="37" y="41" type="line"/>
      <point x="37" y="-3" type="line"/>
      <point x="56" y="-1"/>
      <point x="77" y="0"/>
      <point x="97" y="0" type="curve"/>
      <point x="250" y="0" type="line" smooth="yes"/>
      <point x="277" y="0"/>
      <point x="346" y="-4"/>
    </contour>
    <contour>
      <point x="195" y="0" type="move" name="bottom"/>
    </contour>
    <contour>
      <point x="195" y="388" type="move" name="top"/>
    </contour>
  </outline>
</glyph>
<glyph name="bracketleft" format="1">
  <advance width="255"/>
  <unicode hex="005B"/>
  <outline>
    <contour>
      <point x="56" y="-145" type="line"/>
      <point x="241" y="-145" type="line"/>
      <point x="241" y="-99" type="line"/>
      <point x="169" y="-99" type="line"/>
      <point x="169" y="431" type="line"/>
      <point x="241" y="431" type="line"/>
      <point x="241" y="477" type="line"/>
      <point x="56" y="477" type="line"/>
    </contour>
  </outline>
</glyph>
<glyph name="backslash" format="1">
  <advance width="318"/>
  <unicode hex="005C"/>
  <outline>
    <contour>
      <point x="209" y="-145" type="line"/>
      <point x="292" y="-145" type="line"/>
      <point x="81" y="481" type="line"/>
      <point x="-2" y="481" type="line"/>
    </contour>
  </outline>
</glyph>
<glyph name="bracketright" format="1">
  <advance width="255"/>
  <unicode hex="005D"/>
  <outline>
    <contour>
      <point x="14" y="-99" type="line"/>
      <point x="14" y="-145" type="line"/>
      <point x="199" y="-145" type="line"/>
      <point x="199" y="477" type="line"/>
      <point x="14" y="477" type="line"/>
      <point x="14" y="431" type="line"/>
      <point x="86" y="431" type="line"/>
      <point x="86" y="-99" type="line"/>
    </contour>
  </outline>
</glyph>
<glyph name="asciicircum" format="1">
  <advance width="373"/>
  <unicode hex="005E"/>
  <outline>
    <contour>
      <point x="346" y="84" type="line"/>
      <point x="225" y="371" type="line"/>
      <point x="147" y="371" type="line"/>
      <point x="27" y="84" type="line"/>
      <point x="104" y="84" type="line"/>
      <point x="212" y="345" type="line"/>
      <point x="161" y="345" type="line"/>
      <point x="269" y="84" type="line"/>
    </contour>
  </outline>
</glyph>
<glyph name="underscore" format="1">
  <advance width="379"/>
  <unicode hex="005F"/>
  <outline>
    <contour>
      <point x="26" y="0" type="line"/>
      <point x="26" y="-57" type="line"/>
      <point x="353" y="-57" type="line"/>
      <point x="353" y="0" type="line"/>
    </contour>
  </outline>
</glyph>
<glyph name="a" format="1">
  <advance width="367"/>
  <unicode hex="0061"/>
  <outline>
    <contour>
      <point x="133" y="-5" type="curve"/>
      <point x="157" y="-5"/>
      <point x="192" y="14"/>
      <point x="221" y="51" type="curve"/>
      <point x="203" y="59" type="line"/>
      <point x="219" y="25" type="line" smooth="yes"/>
      <point x="228" y="6"/>
      <point x="240" y="-5"/>
      <point x="265" y="-5" type="curve"/>
      <point x="296" y="-5"/>
      <point x="319" y="9"/>
      <point x="371" y="29" type="curve"/>
      <point x="371" y="62" type="line"/>
      <point x="353" y="64"/>
      <point x="342" y="66"/>
      <point x="325" y="72" type="curve"/>
      <point x="319" y="88"/>
      <point x="319" y="99"/>
      <point x="319" y="120" type="curve"/>
      <point x="321" y="198" type="line"/>
      <point x="321" y="262"/>
      <point x="265" y="301"/>
      <point x="170" y="301" type="curve"/>
      <point x="136" y="298"/>
      <point x="29" y="254"/>
      <point x="29" y="213" type="curve"/>
      <point x="29" y="183"/>
      <point x="64" y="165"/>
      <point x="123" y="175" type="curve"/>
      <point x="128" y="227" type="line" smooth="yes"/>
      <point x="130" y="241"/>
      <point x="136" y="244"/>
      <point x="143" y="244" type="curve"/>
      <point x="166" y="244"/>
      <point x="199" y="219"/>
      <point x="199" y="192" type="curve"/>
      <point x="199" y="178" type="line"/>
      <point x="87" y="150" type="line" smooth="yes"/>
      <point x="40" y="139"/>
      <point x="24" y="114"/>
      <point x="24" y="82" type="curve"/>
      <point x="24" y="48"/>
      <point x="63" y="-5"/>
    </contour>
    <contour>
      <point x="181" y="72" type="curve"/>
      <point x="164" y="72"/>
      <point x="144" y="89"/>
      <point x="144" y="109" type="curve"/>
      <point x="144" y="125"/>
      <point x="153" y="134"/>
      <point x="177" y="137" type="curve"/>
      <point x="200" y="135" type="line"/>
      <point x="200" y="75" type="line"/>
      <point x="195" y="73"/>
      <point x="186" y="72"/>
    </contour>
    <contour>
      <point x="184" y="0" type="move" name="bottom"/>
    </contour>
    <contour>
      <point x="336" y="0" type="move" name="ogonek"/>
    </contour>
    <contour>
      <point x="186" y="296" type="move" name="top"/>
    </contour>
  </outline>
</glyph>
<glyph name="b" format="1">
  <advance width="413"/>
  <unicode hex="0062"/>
  <outline>
    <contour>
      <point x="46" y="20" type="curve"/>
      <point x="98" y="2"/>
      <point x="140" y="-5"/>
      <point x="188" y="-5" type="curve"/>
      <point x="322" y="-5"/>
      <point x="392" y="78"/>
      <point x="392" y="166" type="curve"/>
      <point x="392" y="251"/>
      <point x="328" y="301"/>
      <point x="259" y="301" type="curve"/>
      <point x="223" y="301"/>
      <point x="184" y="277"/>
      <point x="168" y="254" type="curve"/>
      <point x="166" y="255" type="line"/>
      <point x="168" y="355"/>
      <point x="170" y="395"/>
      <point x="175" y="449" type="curve"/>
      <point x="151" y="463" type="line"/>
      <point x="103" y="443"/>
      <point x="47" y="429"/>
      <point x="-7" y="420" type="curve"/>
      <point x="-6" y="379" type="line"/>
      <point x="7" y="380"/>
      <point x="25" y="378"/>
      <point x="46" y="376" type="curve"/>
      <point x="47" y="353"/>
      <point x="50" y="337"/>
      <point x="50" y="238" type="curve"/>
      <point x="50" y="187" type="line"/>
      <point x="50" y="130"/>
      <point x="49" y="62"/>
    </contour>
    <contour>
      <point x="207" y="61" type="curve"/>
      <point x="195" y="61"/>
      <point x="178" y="65"/>
      <point x="167" y="73" type="curve"/>
      <point x="167" y="211" type="line"/>
      <point x="176" y="216"/>
      <point x="190" y="222"/>
      <point x="206" y="222" type="curve"/>
      <point x="235" y="222"/>
      <point x="265" y="201"/>
      <point x="266" y="141" type="curve"/>
      <point x="266" y="77"/>
      <point x="240" y="61"/>
    </contour>
    <contour>
      <point x="207" y="0" type="move" name="bottom"/>
    </contour>
    <contour>
      <point x="207" y="436" type="move" name="top"/>
    </contour>
  </outline>
</glyph>
<glyph name="c" format="1">
  <advance width="339"/>
  <unicode hex="0063"/>
  <outline>
    <contour>
      <point x="190" y="-5" type="curve"/>
      <point x="246" y="-5"/>
      <point x="303" y="27"/>
      <point x="330" y="89" type="curve"/>
      <point x="305" y="111" type="line"/>
      <point x="279" y="83"/>
      <point x="253" y="76"/>
      <point x="234" y="76" type="curve"/>
      <point x="186" y="76"/>
      <point x="149" y="108"/>
      <point x="149" y="171" type="curve"/>
      <point x="149" y="228"/>
      <point x="182" y="259"/>
      <point x="214" y="253" type="curve"/>
      <point x="169" y="262" type="line"/>
      <point x="232" y="212" type="line" smooth="yes"/>
      <point x="250" y="198"/>
      <point x="265" y="192"/>
      <point x="285" y="192" type="curve"/>
      <point x="307" y="192"/>
      <point x="329" y="206"/>
      <point x="329" y="233" type="curve"/>
      <point x="329" y="275"/>
      <point x="271" y="301"/>
      <point x="209" y="301" type="curve"/>
      <point x="98" y="301"/>
      <point x="22" y="222"/>
      <point x="22" y="139" type="curve"/>
      <point x="22" y="59"/>
      <point x="95" y="-5"/>
    </contour>
    <contour>
      <point x="182" y="0" type="move" name="bottom"/>
    </contour>
    <contour>
      <point x="182" y="296" type="move" name="top"/>
    </contour>
  </outline>
</glyph>
<glyph name="d" format="1">
  <advance width="409"/>
  <unicode hex="0064"/>
  <outline>
    <contour>
      <point x="241" y="1" type="line"/>
      <point x="267" y="-10" type="line"/>
      <point x="299" y="3"/>
      <point x="353" y="19"/>
      <point x="408" y="28" type="curve"/>
      <point x="408" y="63" type="line"/>
      <point x="390" y="65"/>
      <point x="378" y="65"/>
      <point x="358" y="72" type="curve"/>
      <point x="356" y="103"/>
      <point x="354" y="116"/>
      <point x="354" y="156" type="curve"/>
      <point x="355" y="311" type="line" smooth="yes"/>
      <point x="355" y="356"/>
      <point x="357" y="395"/>
      <point x="360" y="449" type="curve"/>
      <point x="336" y="463" type="line"/>
      <point x="288" y="443"/>
      <point x="232" y="429"/>
      <point x="178" y="420" type="curve"/>
      <point x="179" y="379" type="line"/>
      <point x="193" y="380"/>
      <point x="210" y="378"/>
      <point x="230" y="376" type="curve"/>
      <point x="234" y="353"/>
      <point x="237" y="336"/>
      <point x="237" y="301" type="curve"/>
      <point x="230" y="298"/>
      <point x="217" y="300"/>
      <point x="206" y="300" type="curve"/>
      <point x="114" y="300"/>
      <point x="22" y="238"/>
      <point x="22" y="138" type="curve"/>
      <point x="22" y="49"/>
      <point x="90" y="-8"/>
      <point x="160" y="-8" type="curve"/>
      <point x="189" y="-8"/>
      <point x="220" y="6"/>
      <point x="239" y="44" type="curve"/>
      <point x="242" y="42" type="line"/>
    </contour>
    <contour>
      <point x="206" y="73" type="curve"/>
      <point x="175" y="73"/>
      <point x="147" y="105"/>
      <point x="147" y="167" type="curve"/>
      <point x="147" y="220"/>
      <point x="174" y="252"/>
      <point x="208" y="252" type="curve"/>
      <point x="219" y="252"/>
      <point x="229" y="251"/>
      <point x="238" y="247" type="curve"/>
      <point x="238" y="93" type="line"/>
      <point x="232" y="80"/>
      <point x="212" y="73"/>
    </contour>
    <contour>
      <point x="218" y="0" type="move" name="bottom"/>
    </contour>
    <contour>
      <point x="204" y="148" type="move" name="center"/>
    </contour>
    <contour>
      <point x="259" y="342" type="move" name="stroke"/>
    </contour>
    <contour>
      <point x="204" y="455" type="move" name="top"/>
    </contour>
    <contour>
      <point x="381" y="455" type="move" name="topright"/>
    </contour>
  </outline>
</glyph>
<glyph name="e" format="1">
  <advance width="358"/>
  <unicode hex="0065"/>
  <outline>
    <contour>
      <point x="187" y="-5" type="curve"/>
      <point x="253" y="-5"/>
      <point x="310" y="27"/>
      <point x="335" y="86" type="curve"/>
      <point x="311" y="109" type="line"/>
      <point x="288" y="85"/>
      <point x="262" y="75"/>
      <point x="230" y="75" type="curve"/>
      <point x="172" y="75"/>
      <point x="137" y="114"/>
      <point x="137" y="167" type="curve"/>
      <point x="137" y="186" type="line" smooth="yes"/>
      <point x="137" y="233"/>
      <point x="156" y="256"/>
      <point x="185" y="256" type="curve"/>
      <point x="214" y="256"/>
      <point x="230" y="233"/>
      <point x="230" y="199" type="curve"/>
      <point x="230" y="169" type="line"/>
      <point x="244" y="191" type="line"/>
      <point x="136" y="191" type="line"/>
      <point x="136" y="152" type="line"/>
      <point x="330" y="152" type="line"/>
      <point x="330" y="171" type="line" smooth="yes"/>
      <point x="330" y="248"/>
      <point x="277" y="302"/>
      <point x="191" y="301" type="curve"/>
      <point x="104" y="301"/>
      <point x="22" y="233"/>
      <point x="22" y="144" type="curve"/>
      <point x="22" y="65"/>
      <point x="89" y="-5"/>
    </contour>
    <contour>
      <point x="186" y="0" type="move" name="bottom"/>
    </contour>
    <contour>
      <point x="290" y="0" type="move" name="ogonek"/>
    </contour>
    <contour>
      <point x="186" y="296" type="move" name="top"/>
    </contour>
  </outline>
</glyph>
<glyph name="g" format="1">
  <advance width="382"/>
  <unicode hex="0067"/>
  <outline>
    <contour>
      <point x="178" y="-151" type="curve"/>
      <point x="286" y="-151"/>
      <point x="364" y="-100"/>
      <point x="364" y="-37" type="curve"/>
      <point x="364" y="7"/>
      <point x="332" y="39"/>
      <point x="263" y="46" type="curve"/>
      <point x="143" y="58" type="line" smooth="yes"/>
      <point x="134" y="59"/>
      <point x="129" y="62"/>
      <point x="129" y="70" type="curve"/>
      <point x="129" y="78"/>
      <point x="134" y="84"/>
      <point x="143" y="87" type="curve"/>
      <point x="130" y="97" type="line"/>
      <point x="74" y="84"/>
      <point x="39" y="58"/>
      <point x="39" y="27" type="curve"/>
      <point x="39" y="-1"/>
      <point x="67" y="-20"/>
      <point x="121" y="-20" type="curve"/>
      <point x="125" y="-24" type="line"/>
      <point x="224" y="-32" type="line" smooth="yes"/>
      <point x="257" y="-36"/>
      <point x="269" y="-44"/>
      <point x="269" y="-61" type="curve"/>
      <point x="269" y="-87"/>
      <point x="234" y="-107"/>
      <point x="188" y="-107" type="curve"/>
      <point x="138" y="-107"/>
      <point x="112" y="-92"/>
      <point x="112" y="-66" type="curve"/>
      <point x="112" y="-49"/>
      <point x="124" y="-29"/>
      <point x="142" y="-16" type="curve"/>
      <point x="110" y="-13" type="line"/>
      <point x="52" y="-23"/>
      <point x="12" y="-51"/>
      <point x="12" y="-79" type="curve"/>
      <point x="12" y="-125"/>
      <point x="73" y="-151"/>
    </contour>
    <contour>
      <point x="180" y="76" type="curve"/>
      <point x="270" y="76"/>
      <point x="330" y="120"/>
      <point x="330" y="185" type="curve"/>
      <point x="330" y="249"/>
      <point x="267" y="301"/>
      <point x="185" y="301" type="curve"/>
      <point x="98" y="301"/>
      <point x="31" y="254"/>
      <point x="31" y="189" type="curve"/>
      <point x="31" y="120"/>
      <point x="89" y="76"/>
    </contour>
    <contour>
      <point x="187" y="121" type="curve"/>
      <point x="163" y="121"/>
      <point x="145" y="149"/>
      <point x="145" y="190" type="curve"/>
      <point x="145" y="229"/>
      <point x="161" y="257"/>
      <point x="184" y="257" type="curve"/>
      <point x="209" y="257"/>
      <point x="225" y="228"/>
      <point x="225" y="185" type="curve"/>
      <point x="225" y="146"/>
      <point x="209" y="121"/>
    </contour>
    <contour>
      <point x="255" y="244" type="line"/>
      <point x="367" y="233" type="line"/>
      <point x="367" y="293" type="line"/>
      <point x="240" y="278" type="line"/>
    </contour>
    <contour>
      <point x="191" y="-145" type="move" name="bottom"/>
    </contour>
    <contour>
      <point x="187" y="296" type="move" name="top"/>
    </contour>
  </outline>
</glyph>
<glyph name="h" format="1">
  <advance width="428"/>
  <unicode hex="0068"/>
  <outline>
    <contour>
      <point x="2" y="35" type="curve"/>
      <point x="6" y="-2" type="line"/>
      <point x="29" y="0"/>
      <point x="78" y="1"/>
      <point x="109" y="1" type="curve"/>
      <point x="141" y="1"/>
      <point x="189" y="0"/>
      <point x="212" y="-2" type="curve"/>
      <point x="215" y="36" type="line"/>
      <point x="198" y="39"/>
      <point x="182" y="42"/>
      <point x="172" y="49" type="curve"/>
      <point x="170" y="57"/>
      <point x="169" y="91"/>
      <point x="169" y="108" type="curve"/>
      <point x="169" y="203" type="line"/>
      <point x="180" y="214"/>
      <point x="196" y="222"/>
      <point x="215" y="222" type="curve"/>
      <point x="244" y="222"/>
      <point x="264" y="204"/>
      <point x="264" y="159" type="curve"/>
      <point x="264" y="117" type="line" smooth="yes"/>
      <point x="264" y="91"/>
      <point x="260" y="55"/>
      <point x="260" y="49" type="curve"/>
      <point x="248" y="42"/>
      <point x="236" y="38"/>
      <point x="223" y="35" type="curve"/>
      <point x="226" y="-2" type="line"/>
      <point x="249" y="0"/>
      <point x="293" y="1"/>
      <point x="324" y="1" type="curve"/>
      <point x="355" y="1"/>
      <point x="401" y="0"/>
      <point x="424" y="-2" type="curve"/>
      <point x="427" y="36" type="line"/>
      <point x="411" y="39"/>
      <point x="394" y="42"/>
      <point x="384" y="49" type="curve"/>
      <point x="382" y="57"/>
      <point x="381" y="93"/>
      <point x="381" y="113" type="curve"/>
      <point x="381" y="179" type="line" smooth="yes"/>
      <point x="381" y="253"/>
      <point x="338" y="301"/>
      <point x="273" y="301" type="curve"/>
      <point x="235" y="301"/>
      <point x="196" y="284"/>
      <point x="168" y="250" type="curve"/>
      <point x="166" y="250" type="line"/>
      <point x="168" y="355"/>
      <point x="170" y="395"/>
      <point x="175" y="449" type="curve"/>
      <point x="151" y="463" type="line"/>
      <point x="103" y="443"/>
      <point x="47" y="429"/>
      <point x="-7" y="420" type="curve"/>
      <point x="-6" y="379" type="line"/>
      <point x="7" y="380"/>
      <point x="25" y="378"/>
      <point x="46" y="376" type="curve"/>
      <point x="47" y="353"/>
      <point x="50" y="337"/>
      <point x="50" y="238" type="curve"/>
      <point x="50" y="153" type="line" smooth="yes"/>
      <point x="50" y="88"/>
      <point x="46" y="54"/>
      <point x="46" y="49" type="curve"/>
      <point x="35" y="42"/>
      <point x="21" y="38"/>
    </contour>
    <contour>
      <point x="217" y="0" type="move" name="bottom"/>
    </contour>
    <contour>
      <point x="143" y="342" type="move" name="stroke"/>
    </contour>
    <contour>
      <point x="110" y="436" type="move" name="top"/>
    </contour>
  </outline>
</glyph>
<glyph name="k" format="1">
  <advance width="424"/>
  <unicode hex="006B"/>
  <outline>
    <contour>
      <point x="7" y="35" type="curve"/>
      <point x="10" y="-2" type="line"/>
      <point x="37" y="0"/>
      <point x="79" y="1"/>
      <point x="111" y="1" type="curve"/>
      <point x="142" y="1"/>
      <point x="178" y="0"/>
      <point x="206" y="-2" type="curve"/>
      <point x="209" y="36" type="line"/>
      <point x="195" y="37"/>
      <point x="182" y="42"/>
      <point x="172" y="48" type="curve"/>
      <point x="171" y="55"/>
      <point x="170" y="89"/>
      <point x="170" y="116" type="curve"/>
      <point x="171" y="254" type="line"/>
      <point x="171" y="361"/>
      <point x="171" y="395"/>
      <point x="175" y="449" type="curve"/>
      <point x="151" y="463" type="line"/>
      <point x="104" y="443"/>
      <point x="47" y="429"/>
      <point x="-7" y="420" type="curve"/>
      <point x="-5" y="379" type="line"/>
      <point x="8" y="380"/>
      <point x="26" y="378"/>
      <point x="47" y="376" type="curve"/>
      <point x="48" y="353"/>
      <point x="51" y="337"/>
      <point x="51" y="238" type="curve"/>
      <point x="51" y="163" type="line" smooth="yes"/>
      <point x="51" y="88"/>
      <point x="46" y="54"/>
      <point x="46" y="48" type="curve"/>
      <point x="35" y="42"/>
      <point x="20" y="37"/>
    </contour>
    <contour>
      <point x="425" y="-1" type="curve"/>
      <point x="426" y="36" type="line"/>
      <point x="419" y="36"/>
      <point x="409" y="39"/>
      <point x="405" y="39" type="curve"/>
      <point x="398" y="44"/>
      <point x="388" y="56"/>
      <point x="369" y="79" type="curve"/>
      <point x="264" y="209" type="line"/>
      <point x="254" y="174" type="line"/>
      <point x="360" y="252" type="line"/>
      <point x="371" y="255"/>
      <point x="389" y="257"/>
      <point x="410" y="260" type="curve"/>
      <point x="408" y="297" type="line"/>
      <point x="387" y="296"/>
      <point x="347" y="295"/>
      <point x="324" y="295" type="curve"/>
      <point x="300" y="295"/>
      <point x="259" y="295"/>
      <point x="238" y="296" type="curve"/>
      <point x="237" y="258" type="line"/>
      <point x="244" y="258"/>
      <point x="269" y="256"/>
      <point x="281" y="253" type="curve"/>
      <point x="178" y="159" type="line"/>
      <point x="161" y="157" type="line"/>
      <point x="162" y="124" type="line"/>
      <point x="177" y="124" type="line"/>
      <point x="239" y="48" type="line" smooth="yes"/>
      <point x="252" y="33"/>
      <point x="264" y="16"/>
      <point x="275" y="0" type="curve"/>
      <point x="318" y="0"/>
      <point x="391" y="0"/>
    </contour>
    <contour>
      <point x="214" y="0" type="move" name="bottom"/>
    </contour>
    <contour>
      <point x="111" y="436" type="move" name="top"/>
    </contour>
  </outline>
</glyph>
<glyph name="l" format="1">
  <advance width="223"/>
  <unicode hex="006C"/>
  <outline>
    <contour>
      <point x="0" y="35" type="curve"/>
      <point x="4" y="-2" type="line"/>
      <point x="29" y="0"/>
      <point x="80" y="1"/>
      <point x="111" y="1" type="curve"/>
      <point x="142" y="1"/>
      <point x="192" y="0"/>
      <point x="218" y="-2" type="curve"/>
      <point x="221" y="36" type="line"/>
      <point x="201" y="39"/>
      <point x="184" y="42"/>
      <point x="174" y="49" type="curve"/>
      <point x="173" y="57"/>
      <point x="171" y="81"/>
      <point x="171" y="171" type="curve"/>
      <point x="172" y="259" type="line"/>
      <point x="173" y="355"/>
      <point x="173" y="395"/>
      <point x="177" y="449" type="curve"/>
      <point x="153" y="463" type="line"/>
      <point x="106" y="443"/>
      <point x="47" y="429"/>
      <point x="-7" y="420" type="curve"/>
      <point x="-5" y="379" type="line"/>
      <point x="8" y="380"/>
      <point x="26" y="378"/>
      <point x="47" y="376" type="curve"/>
      <point x="48" y="353"/>
      <point x="51" y="337"/>
      <point x="51" y="238" type="curve"/>
      <point x="51" y="153" type="line" smooth="yes"/>
      <point x="51" y="88"/>
      <point x="46" y="54"/>
      <point x="47" y="49" type="curve"/>
      <point x="36" y="42"/>
      <point x="22" y="38"/>
    </contour>
    <contour>
      <point x="111" y="0" type="move" name="bottom"/>
    </contour>
    <contour>
      <point x="111" y="220" type="move" name="center"/>
    </contour>
    <contour>
      <point x="253" y="220" type="move" name="dotacc"/>
    </contour>
    <contour>
      <point x="111" y="436" type="move" name="top"/>
    </contour>
    <contour>
      <point x="200" y="455" type="move" name="topright"/>
    </contour>
  </outline>
</glyph>
<glyph name="m" format="1">
  <advance width="629"/>
  <unicode hex="006D"/>
  <outline>
    <contour>
      <point x="4" y="35" type="curve"/>
      <point x="7" y="-2" type="line"/>
      <point x="30" y="1"/>
      <point x="79" y="1"/>
      <point x="111" y="1" type="curve"/>
      <point x="142" y="1"/>
      <point x="191" y="0"/>
      <point x="207" y="-2" type="curve"/>
      <point x="211" y="36" type="line"/>
      <point x="196" y="39"/>
      <point x="183" y="42"/>
      <point x="173" y="49" type="curve"/>
      <point x="172" y="57"/>
      <point x="170" y="91"/>
      <point x="170" y="108" type="curve"/>
      <point x="170" y="203" type="line"/>
      <point x="179" y="213"/>
      <point x="198" y="222"/>
      <point x="213" y="222" type="curve"/>
      <point x="241" y="222"/>
      <point x="259" y="208"/>
      <point x="259" y="170" type="curve"/>
      <point x="260" y="117" type="line"/>
      <point x="259" y="91"/>
      <point x="257" y="54"/>
      <point x="259" y="49" type="curve"/>
      <point x="247" y="42"/>
      <point x="235" y="39"/>
      <point x="224" y="35" type="curve"/>
      <point x="228" y="-2" type="line"/>
      <point x="248" y="0"/>
      <point x="288" y="1"/>
      <point x="319" y="1" type="curve"/>
      <point x="351" y="1"/>
      <point x="393" y="0"/>
      <point x="413" y="-2" type="curve"/>
      <point x="417" y="36" type="line"/>
      <point x="400" y="39"/>
      <point x="390" y="42"/>
      <point x="380" y="49" type="curve"/>
      <point x="378" y="57"/>
      <point x="377" y="93"/>
      <point x="377" y="113" type="curve"/>
      <point x="376" y="181" type="line"/>
      <point x="376" y="263"/>
      <point x="329" y="301"/>
      <point x="270" y="301" type="curve"/>
      <point x="232" y="301"/>
      <point x="198" y="284"/>
      <point x="168" y="250" type="curve"/>
      <point x="166" y="250" type="line"/>
      <point x="171" y="288" type="line"/>
      <point x="145" y="300" type="line"/>
      <point x="112" y="287"/>
      <point x="55" y="272"/>
      <point x="-3" y="263" type="curve"/>
      <point x="-3" y="227" type="line"/>
      <point x="13" y="225"/>
      <point x="31" y="224"/>
      <point x="46" y="219" type="curve"/>
      <point x="51" y="190"/>
      <point x="51" y="179"/>
      <point x="51" y="160" type="curve"/>
      <point x="51" y="112" type="line" smooth="yes"/>
      <point x="50" y="91"/>
      <point x="47" y="54"/>
      <point x="47" y="49" type="curve"/>
      <point x="37" y="42"/>
      <point x="23" y="38"/>
    </contour>
    <contour>
      <point x="429" y="35" type="curve"/>
      <point x="432" y="-2" type="line"/>
      <point x="453" y="0"/>
      <point x="493" y="1"/>
      <point x="524" y="1" type="curve"/>
      <point x="556" y="1"/>
      <point x="602" y="0"/>
      <point x="625" y="-2" type="curve"/>
      <point x="628" y="36" type="line"/>
      <point x="612" y="39"/>
      <point x="595" y="42"/>
      <point x="585" y="49" type="curve"/>
      <point x="584" y="57"/>
      <point x="582" y="93"/>
      <point x="582" y="113" type="curve"/>
      <point x="580" y="178" type="line" smooth="yes"/>
      <point x="580" y="261"/>
      <point x="531" y="301"/>
      <point x="462" y="301" type="curve"/>
      <point x="416" y="301"/>
      <point x="377" y="277"/>
      <point x="342" y="234" type="curve"/>
      <point x="369" y="209" type="line"/>
      <point x="378" y="216"/>
      <point x="398" y="222"/>
      <point x="413" y="222" type="curve"/>
      <point x="445" y="222"/>
      <point x="463" y="206"/>
      <point x="463" y="158" type="curve"/>
      <point x="465" y="117" type="line" smooth="yes"/>
      <point x="465" y="91"/>
      <point x="461" y="55"/>
      <point x="462" y="49" type="curve"/>
      <point x="449" y="42"/>
      <point x="440" y="39"/>
    </contour>
    <contour>
      <point x="317" y="0" type="move" name="bottom"/>
    </contour>
    <contour>
      <point x="317" y="296" type="move" name="top"/>
    </contour>
  </outline>
</glyph>
<glyph name="n" format="1">
  <advance width="429"/>
  <unicode hex="006E"/>
  <outline>
    <contour>
      <point x="3" y="35" type="curve"/>
      <point x="6" y="-2" type="line"/>
      <point x="30" y="0"/>
      <point x="79" y="1"/>
      <point x="110" y="1" type="curve"/>
      <point x="142" y="1"/>
      <point x="189" y="0"/>
      <point x="213" y="-2" type="curve"/>
      <point x="216" y="36" type="line"/>
      <point x="199" y="39"/>
      <point x="182" y="42"/>
      <point x="172" y="49" type="curve"/>
      <point x="171" y="57"/>
      <point x="169" y="91"/>
      <point x="169" y="108" type="curve"/>
      <point x="169" y="203" type="line"/>
      <point x="181" y="214"/>
      <point x="197" y="222"/>
      <point x="215" y="222" type="curve"/>
      <point x="245" y="222"/>
      <point x="265" y="204"/>
      <point x="265" y="159" type="curve"/>
      <point x="265" y="117" type="line" smooth="yes"/>
      <point x="265" y="91"/>
      <point x="261" y="55"/>
      <point x="261" y="49" type="curve"/>
      <point x="248" y="42"/>
      <point x="237" y="38"/>
      <point x="224" y="35" type="curve"/>
      <point x="227" y="-2" type="line"/>
      <point x="250" y="0"/>
      <point x="293" y="1"/>
      <point x="325" y="1" type="curve"/>
      <point x="356" y="1"/>
      <point x="402" y="0"/>
      <point x="425" y="-2" type="curve"/>
      <point x="428" y="36" type="line"/>
      <point x="411" y="39"/>
      <point x="394" y="42"/>
      <point x="385" y="49" type="curve"/>
      <point x="383" y="57"/>
      <point x="382" y="93"/>
      <point x="382" y="113" type="curve"/>
      <point x="382" y="179" type="line" smooth="yes"/>
      <point x="382" y="253"/>
      <point x="339" y="301"/>
      <point x="274" y="301" type="curve"/>
      <point x="236" y="301"/>
      <point x="196" y="283"/>
      <point x="168" y="247" type="curve"/>
      <point x="166" y="248" type="line"/>
      <point x="170" y="288" type="line"/>
      <point x="144" y="300" type="line"/>
      <point x="111" y="287"/>
      <point x="54" y="272"/>
      <point x="-3" y="263" type="curve"/>
      <point x="-3" y="227" type="line"/>
      <point x="12" y="225"/>
      <point x="30" y="224"/>
      <point x="46" y="219" type="curve"/>
      <point x="50" y="190"/>
      <point x="51" y="179"/>
      <point x="51" y="160" type="curve"/>
      <point x="50" y="112" type="line" smooth="yes"/>
      <point x="49" y="91"/>
      <point x="46" y="54"/>
      <point x="47" y="49" type="curve"/>
      <point x="36" y="42"/>
      <point x="22" y="38"/>
    </contour>
    <contour>
      <point x="217" y="0" type="move" name="bottom"/>
    </contour>
    <contour>
      <point x="217" y="296" type="move" name="top"/>
    </contour>
  </outline>
</glyph>
<glyph name="o" format="1">
  <advance width="391"/>
  <unicode hex="006F"/>
  <outline>
    <contour>
      <point x="198" y="-5" type="curve"/>
      <point x="292" y="-5"/>
      <point x="368" y="63"/>
      <point x="368" y="152" type="curve"/>
      <point x="368" y="239"/>
      <point x="299" y="301"/>
      <point x="202" y="301" type="curve"/>
      <point x="112" y="301"/>
      <point x="23" y="247"/>
      <point x="23" y="143" type="curve"/>
      <point x="23" y="56"/>
      <point x="96" y="-5"/>
    </contour>
    <contour>
      <point x="206" y="47" type="curve"/>
      <point x="174" y="47"/>
      <point x="150" y="102"/>
      <point x="150" y="170" type="curve"/>
      <point x="150" y="222"/>
      <point x="164" y="253"/>
      <point x="188" y="253" type="curve"/>
      <point x="220" y="253"/>
      <point x="243" y="201"/>
      <point x="243" y="124" type="curve"/>
      <point x="243" y="72"/>
      <point x="231" y="47"/>
    </contour>
    <contour>
      <point x="196" y="0" type="move" name="bottom"/>
    </contour>
    <contour>
      <point x="196" y="148" type="move" name="center"/>
    </contour>
    <contour>
      <point x="246" y="0" type="move" name="ogonek"/>
    </contour>
    <contour>
      <point x="196" y="296" type="move" name="top"/>
    </contour>
    <contour>
      <point x="377" y="296" type="move" name="topright"/>
    </contour>
  </outline>
</glyph>
<glyph name="p" format="1">
  <advance width="410"/>
  <unicode hex="0070"/>
  <outline>
    <contour>
      <point x="2" y="-112" type="curve"/>
      <point x="5" y="-151" type="line"/>
      <point x="26" y="-148"/>
      <point x="65" y="-145"/>
      <point x="108" y="-145" type="curve"/>
      <point x="150" y="-145"/>
      <point x="187" y="-148"/>
      <point x="215" y="-151" type="curve"/>
      <point x="218" y="-112" type="line"/>
      <point x="197" y="-109"/>
      <point x="180" y="-105"/>
      <point x="170" y="-98" type="curve"/>
      <point x="169" y="-90"/>
      <point x="167" y="-55"/>
      <point x="167" y="-35" type="curve"/>
      <point x="167" y="0" type="line"/>
      <point x="182" y="-4"/>
      <point x="194" y="-5"/>
      <point x="204" y="-5" type="curve"/>
      <point x="321" y="-5"/>
      <point x="387" y="79"/>
      <point x="387" y="164" type="curve"/>
      <point x="387" y="258"/>
      <point x="321" y="301"/>
      <point x="261" y="301" type="curve"/>
      <point x="223" y="301"/>
      <point x="185" y="277"/>
      <point x="166" y="245" type="curve"/>
      <point x="164" y="247" type="line"/>
      <point x="168" y="288" type="line"/>
      <point x="142" y="300" type="line"/>
      <point x="110" y="287"/>
      <point x="53" y="272"/>
      <point x="-4" y="263" type="curve"/>
      <point x="-4" y="227" type="line"/>
      <point x="12" y="225"/>
      <point x="29" y="224"/>
      <point x="45" y="219" type="curve"/>
      <point x="49" y="190"/>
      <point x="50" y="179"/>
      <point x="50" y="157" type="curve"/>
      <point x="49" y="53" type="line" smooth="yes"/>
      <point x="47" y="-55"/>
      <point x="44" y="-93"/>
      <point x="44" y="-98" type="curve"/>
      <point x="34" y="-105"/>
      <point x="20" y="-109"/>
    </contour>
    <contour>
      <point x="204" y="55" type="curve"/>
      <point x="191" y="55"/>
      <point x="179" y="59"/>
      <point x="167" y="62" type="curve"/>
      <point x="167" y="206" type="line"/>
      <point x="176" y="214"/>
      <point x="192" y="222"/>
      <point x="204" y="222" type="curve"/>
      <point x="229" y="222"/>
      <point x="261" y="210"/>
      <point x="261" y="137" type="curve"/>
      <point x="262" y="70"/>
      <point x="235" y="55"/>
    </contour>
    <contour>
      <point x="206" y="296" type="move" name="top"/>
    </contour>
  </outline>
</glyph>
<glyph name="q" format="1">
  <advance width="409"/>
  <unicode hex="0071"/>
  <outline>
    <contour>
      <point x="188" y="-111" type="curve"/>
      <point x="191" y="-151" type="line"/>
      <point x="218" y="-148"/>
      <point x="257" y="-145"/>
      <point x="300" y="-145" type="curve"/>
      <point x="339" y="-145"/>
      <point x="372" y="-148"/>
      <point x="393" y="-151" type="curve"/>
      <point x="396" y="-112" type="line"/>
      <point x="378" y="-107"/>
      <point x="368" y="-105"/>
      <point x="358" y="-98" type="curve"/>
      <point x="356" y="-90"/>
      <point x="354" y="-66"/>
      <point x="353" y="-8" type="curve"/>
      <point x="353" y="184" type="line" smooth="yes"/>
      <point x="352" y="221"/>
      <point x="354" y="290"/>
      <point x="355" y="317" type="curve"/>
      <point x="323" y="317" type="line"/>
      <point x="285" y="287" type="line"/>
      <point x="262" y="296"/>
      <point x="239" y="300"/>
      <point x="207" y="300" type="curve"/>
      <point x="109" y="300"/>
      <point x="22" y="238"/>
      <point x="22" y="138" type="curve"/>
      <point x="22" y="49"/>
      <point x="92" y="-8"/>
      <point x="160" y="-8" type="curve"/>
      <point x="187" y="-8"/>
      <point x="216" y="4"/>
      <point x="237" y="45" type="curve"/>
      <point x="239" y="43" type="line"/>
      <point x="238" y="-38" type="line" smooth="yes"/>
      <point x="238" y="-55"/>
      <point x="236" y="-91"/>
      <point x="237" y="-98" type="curve"/>
      <point x="226" y="-105"/>
      <point x="207" y="-109"/>
    </contour>
    <contour>
      <point x="204" y="73" type="curve"/>
      <point x="177" y="73"/>
      <point x="147" y="105"/>
      <point x="147" y="167" type="curve"/>
      <point x="147" y="219"/>
      <point x="169" y="252"/>
      <point x="206" y="252" type="curve"/>
      <point x="216" y="252"/>
      <point x="228" y="249"/>
      <point x="236" y="244" type="curve"/>
      <point x="236" y="93" type="line"/>
      <point x="231" y="80"/>
      <point x="209" y="73"/>
    </contour>
    <contour>
      <point x="204" y="296" type="move" name="top"/>
    </contour>
  </outline>
</glyph>
<glyph name="r" format="1">
  <advance width="315"/>
  <unicode hex="0072"/>
  <outline>
    <contour>
      <point x="4" y="35" type="curve"/>
      <point x="8" y="-4" type="line"/>
      <point x="31" y="-1"/>
      <point x="79" y="1"/>
      <point x="120" y="1" type="curve"/>
      <point x="160" y="1"/>
      <point x="207" y="-1"/>
      <point x="247" y="-4" type="curve"/>
      <point x="249" y="37" type="line"/>
      <point x="226" y="39"/>
      <point x="190" y="44"/>
      <point x="176" y="49" type="curve"/>
      <point x="174" y="51"/>
      <point x="174" y="71"/>
      <point x="173" y="145" type="curve"/>
      <point x="172" y="197" type="line"/>
      <point x="180" y="203"/>
      <point x="190" y="214"/>
      <point x="203" y="223" type="curve"/>
      <point x="177" y="223" type="line"/>
      <point x="203" y="200"/>
      <point x="220" y="194"/>
      <point x="247" y="194" type="curve"/>
      <point x="280" y="194"/>
      <point x="305" y="216"/>
      <point x="305" y="250" type="curve"/>
      <point x="305" y="284"/>
      <point x="282" y="299"/>
      <point x="253" y="299" type="curve"/>
      <point x="220" y="299"/>
      <point x="193" y="282"/>
      <point x="168" y="250" type="curve"/>
      <point x="166" y="250" type="line"/>
      <point x="168" y="288" type="line"/>
      <point x="142" y="300" type="line"/>
      <point x="113" y="287"/>
      <point x="56" y="272"/>
      <point x="-2" y="263" type="curve"/>
      <point x="-2" y="227" type="line"/>
      <point x="14" y="225"/>
      <point x="32" y="224"/>
      <point x="47" y="219" type="curve"/>
      <point x="52" y="190"/>
      <point x="52" y="179"/>
      <point x="52" y="160" type="curve"/>
      <point x="51" y="112" type="line" smooth="yes"/>
      <point x="51" y="91"/>
      <point x="47" y="54"/>
      <point x="47" y="49" type="curve"/>
      <point x="37" y="42"/>
      <point x="24" y="38"/>
    </contour>
    <contour>
      <point x="113" y="0" type="move" name="bottom"/>
    </contour>
    <contour>
      <point x="134" y="296" type="move" name="top"/>
    </contour>
  </outline>
</glyph>
<glyph name="s" format="1">
  <advance width="300"/>
  <unicode hex="0073"/>
  <outline>
    <contour>
      <point x="136" y="-5" type="curve"/>
      <point x="231" y="-5"/>
      <point x="293" y="34"/>
      <point x="293" y="97" type="curve"/>
      <point x="293" y="140"/>
      <point x="268" y="166"/>
      <point x="206" y="187" type="curve"/>
      <point x="152" y="206"/>
      <point x="136" y="216"/>
      <point x="136" y="231" type="curve"/>
      <point x="136" y="249"/>
      <point x="153" y="258"/>
      <point x="176" y="258" type="curve"/>
      <point x="186" y="258"/>
      <point x="202" y="256"/>
      <point x="211" y="249" type="curve"/>
      <point x="218" y="235"/>
      <point x="221" y="218"/>
      <point x="226" y="201" type="curve"/>
      <point x="280" y="201" type="line"/>
      <point x="271" y="285" type="line"/>
      <point x="250" y="294"/>
      <point x="213" y="301"/>
      <point x="180" y="301" type="curve"/>
      <point x="89" y="301"/>
      <point x="25" y="259"/>
      <point x="25" y="199" type="curve"/>
      <point x="25" y="154"/>
      <point x="49" y="125"/>
      <point x="118" y="103" type="curve"/>
      <point x="168" y="86"/>
      <point x="179" y="79"/>
      <point x="179" y="63" type="curve"/>
      <point x="179" y="49"/>
      <point x="167" y="41"/>
      <point x="142" y="41" type="curve"/>
      <point x="125" y="41"/>
      <point x="106" y="46"/>
      <point x="87" y="55" type="curve"/>
      <point x="82" y="64"/>
      <point x="77" y="81"/>
      <point x="73" y="103" type="curve"/>
      <point x="18" y="103" type="line"/>
      <point x="19" y="66"/>
      <point x="21" y="48"/>
      <point x="22" y="19" type="curve"/>
      <point x="50" y="5"/>
      <point x="94" y="-5"/>
    </contour>
    <contour>
      <point x="150" y="0" type="move" name="bottom"/>
    </contour>
    <contour>
      <point x="151" y="296" type="move" name="top"/>
    </contour>
  </outline>
</glyph>
<glyph name="t" format="1">
  <advance width="278"/>
  <unicode hex="0074"/>
  <outline>
    <contour>
      <point x="279" y="68" type="curve"/>
      <point x="257" y="89" type="line"/>
      <point x="244" y="79"/>
      <point x="228" y="74"/>
      <point x="215" y="74" type="curve"/>
      <point x="185" y="74"/>
      <point x="166" y="83"/>
      <point x="166" y="113" type="curve"/>
      <point x="168" y="265" type="line"/>
      <point x="169" y="373" type="line"/>
      <point x="144" y="373" type="line"/>
      <point x="98" y="337"/>
      <point x="50" y="303"/>
      <point x="1" y="270" type="curve"/>
      <point x="1" y="245" type="line"/>
      <point x="48" y="245" type="line"/>
      <point x="46" y="107" type="line"/>
      <point x="46" y="30"/>
      <point x="96" y="-8"/>
      <point x="167" y="-8" type="curve"/>
      <point x="222" y="-8"/>
      <point x="267" y="21"/>
    </contour>
    <contour>
      <point x="135" y="295" type="line"/>
      <point x="135" y="245" type="line"/>
      <point x="261" y="245" type="line"/>
      <point x="261" y="295" type="line"/>
    </contour>
    <contour>
      <point x="146" y="0" type="move" name="bottom"/>
    </contour>
    <contour>
      <point x="106" y="178" type="move" name="stroke"/>
    </contour>
    <contour>
      <point x="134" y="378" type="move" name="top"/>
    </contour>
    <contour>
      <point x="196" y="455" type="move" name="topright"/>
    </contour>
  </outline>
</glyph>
<glyph name="v" format="1">
  <advance width="372"/>
  <unicode hex="0076"/>
  <outline>
    <contour>
      <point x="31" y="249" type="curve"/>
      <point x="165" y="-3" type="line"/>
      <point x="203" y="-3" type="line"/>
      <point x="342" y="249" type="line"/>
      <point x="348" y="253"/>
      <point x="359" y="256"/>
      <point x="373" y="260" type="curve"/>
      <point x="372" y="296" type="line"/>
      <point x="352" y="295"/>
      <point x="329" y="295"/>
      <point x="312" y="295" type="curve"/>
      <point x="295" y="295"/>
      <point x="259" y="295"/>
      <point x="239" y="296" type="curve"/>
      <point x="238" y="258" type="line"/>
      <point x="262" y="255"/>
      <point x="270" y="253"/>
      <point x="279" y="249" type="curve"/>
      <point x="218" y="121" type="line"/>
      <point x="239" y="121" type="line"/>
      <point x="172" y="249" type="line"/>
      <point x="181" y="253"/>
      <point x="190" y="255"/>
      <point x="211" y="258" type="curve"/>
      <point x="209" y="296" type="line"/>
      <point x="189" y="295"/>
      <point x="124" y="295"/>
      <point x="103" y="295" type="curve"/>
      <point x="82" y="295"/>
      <point x="16" y="296"/>
      <point x="-5" y="296" type="curve"/>
      <point x="-8" y="260" type="line"/>
      <point x="10" y="256"/>
      <point x="23" y="253"/>
    </contour>
    <contour>
      <point x="186" y="0" type="move" name="bottom"/>
    </contour>
    <contour>
      <point x="186" y="296" type="move" name="top"/>
    </contour>
  </outline>
</glyph>
<glyph name="w" format="1">
  <advance width="613"/>
  <unicode hex="0077"/>
  <outline>
    <contour>
      <point x="270" y="249" type="curve"/>
      <point x="402" y="-3" type="line"/>
      <point x="440" y="-3" type="line"/>
      <point x="584" y="249" type="line"/>
      <point x="590" y="253"/>
      <point x="601" y="256"/>
      <point x="615" y="260" type="curve"/>
      <point x="614" y="296" type="line"/>
      <point x="599" y="296"/>
      <point x="572" y="295"/>
      <point x="544" y="295" type="curve"/>
      <point x="521" y="295"/>
      <point x="506" y="295"/>
      <point x="484" y="296" type="curve"/>
      <point x="483" y="258" type="line"/>
      <point x="509" y="255"/>
      <point x="510" y="253"/>
      <point x="521" y="249" type="curve"/>
      <point x="456" y="121" type="line"/>
      <point x="473" y="121" type="line"/>
      <point x="409" y="249" type="line"/>
      <point x="415" y="253"/>
      <point x="421" y="255"/>
      <point x="437" y="258" type="curve"/>
      <point x="435" y="296" type="line"/>
      <point x="426" y="295"/>
      <point x="367" y="295"/>
      <point x="357" y="295" type="curve"/>
      <point x="335" y="295"/>
      <point x="256" y="295"/>
      <point x="247" y="296" type="curve"/>
      <point x="246" y="257" type="line"/>
      <point x="262" y="255"/>
      <point x="263" y="253"/>
    </contour>
    <contour>
      <point x="32" y="249" type="curve"/>
      <point x="166" y="-3" type="line"/>
      <point x="204" y="-3" type="line"/>
      <point x="321" y="198" type="line"/>
      <point x="291" y="244" type="line"/>
      <point x="220" y="121" type="line"/>
      <point x="239" y="121" type="line"/>
      <point x="172" y="249" type="line"/>
      <point x="179" y="253"/>
      <point x="184" y="255"/>
      <point x="200" y="258" type="curve"/>
      <point x="198" y="296" type="line"/>
      <point x="189" y="295"/>
      <point x="107" y="295"/>
      <point x="98" y="295" type="curve"/>
      <point x="75" y="295"/>
      <point x="12" y="296"/>
      <point x="-4" y="296" type="curve"/>
      <point x="-7" y="260" type="line"/>
      <point x="11" y="256"/>
      <point x="24" y="253"/>
    </contour>
    <contour>
      <point x="303" y="0" type="move" name="bottom"/>
    </contour>
    <contour>
      <point x="339" y="296" type="move" name="top"/>
    </contour>
  </outline>
</glyph>
<glyph name="x" format="1">
  <advance width="388"/>
  <unicode hex="0078"/>
  <outline>
    <contour>
      <point x="383" y="-3" type="curve"/>
      <point x="384" y="38" type="line"/>
      <point x="377" y="40"/>
      <point x="361" y="43"/>
      <point x="351" y="47" type="curve"/>
      <point x="248" y="165" type="line"/>
      <point x="220" y="200" type="line"/>
      <point x="172" y="253" type="line"/>
      <point x="183" y="256"/>
      <point x="194" y="258"/>
      <point x="205" y="260" type="curve"/>
      <point x="203" y="296" type="line"/>
      <point x="182" y="295"/>
      <point x="125" y="295"/>
      <point x="104" y="295" type="curve"/>
      <point x="83" y="295"/>
      <point x="25" y="296"/>
      <point x="4" y="296" type="curve"/>
      <point x="2" y="260" type="line"/>
      <point x="11" y="259"/>
      <point x="24" y="256"/>
      <point x="33" y="253" type="curve"/>
      <point x="130" y="141" type="line"/>
      <point x="158" y="107" type="line"/>
      <point x="212" y="47" type="line"/>
      <point x="204" y="43"/>
      <point x="192" y="41"/>
      <point x="182" y="39" type="curve"/>
      <point x="183" y="-2" type="line"/>
      <point x="204" y="-1"/>
      <point x="261" y="1"/>
      <point x="282" y="1" type="curve"/>
      <point x="303" y="1"/>
      <point x="362" y="-1"/>
    </contour>
    <contour>
      <point x="263" y="253" type="curve"/>
      <point x="220" y="200" type="line"/>
      <point x="130" y="141" type="line"/>
      <point x="32" y="47" type="line"/>
      <point x="23" y="43"/>
      <point x="7" y="40"/>
      <point x="0" y="38" type="curve"/>
      <point x="1" y="-3" type="line"/>
      <point x="15" y="-1"/>
      <point x="48" y="1"/>
      <point x="68" y="1" type="curve"/>
      <point x="84" y="1"/>
      <point x="120" y="-1"/>
      <point x="134" y="-2" type="curve"/>
      <point x="135" y="39" type="line"/>
      <point x="127" y="41"/>
      <point x="114" y="43"/>
      <point x="105" y="47" type="curve"/>
      <point x="158" y="107" type="line"/>
      <point x="248" y="165" type="line"/>
      <point x="334" y="253" type="line"/>
      <point x="345" y="256"/>
      <point x="356" y="259"/>
      <point x="365" y="260" type="curve"/>
      <point x="364" y="296" type="line"/>
      <point x="350" y="296"/>
      <point x="317" y="295"/>
      <point x="296" y="295" type="curve"/>
      <point x="276" y="295"/>
      <point x="246" y="295"/>
      <point x="232" y="296" type="curve"/>
      <point x="230" y="260" type="line"/>
      <point x="241" y="258"/>
      <point x="252" y="256"/>
    </contour>
    <contour>
      <point x="195" y="0" type="move" name="bottom"/>
    </contour>
    <contour>
      <point x="195" y="296" type="move" name="top"/>
    </contour>
  </outline>
</glyph>
<glyph name="y" format="1">
  <advance width="372"/>
  <unicode hex="0079"/>
  <outline>
    <contour>
      <point x="31" y="249" type="curve"/>
      <point x="165" y="-3" type="line"/>
      <point x="239" y="121" type="line"/>
      <point x="172" y="249" type="line"/>
      <point x="181" y="253"/>
      <point x="190" y="255"/>
      <point x="211" y="258" type="curve"/>
      <point x="209" y="296" type="line"/>
      <point x="189" y="295"/>
      <point x="124" y="295"/>
      <point x="103" y="295" type="curve"/>
      <point x="82" y="295"/>
      <point x="16" y="296"/>
      <point x="-5" y="296" type="curve"/>
      <point x="-8" y="260" type="line"/>
      <point x="10" y="256"/>
      <point x="23" y="253"/>
    </contour>
    <contour>
      <point x="374" y="260" type="curve"/>
      <point x="373" y="296" type="line"/>
      <point x="353" y="295"/>
      <point x="330" y="295"/>
      <point x="313" y="295" type="curve"/>
      <point x="296" y="295"/>
      <point x="254" y="295"/>
      <point x="240" y="296" type="curve"/>
      <point x="239" y="258" type="line"/>
      <point x="263" y="255"/>
      <point x="270" y="253"/>
      <point x="280" y="249" type="curve"/>
      <point x="217" y="121" type="line"/>
      <point x="207" y="103" type="line"/>
      <point x="116" y="-52" type="line"/>
      <point x="174" y="-24" type="line"/>
      <point x="78" y="-48" type="line" smooth="yes"/>
      <point x="38" y="-59"/>
      <point x="17" y="-79"/>
      <point x="17" y="-106" type="curve"/>
      <point x="17" y="-130"/>
      <point x="39" y="-151"/>
      <point x="77" y="-151" type="curve"/>
      <point x="107" y="-151"/>
      <point x="135" y="-139"/>
      <point x="163" y="-82" type="curve"/>
      <point x="218" y="26" type="line"/>
      <point x="343" y="249" type="line"/>
      <point x="349" y="253"/>
      <point x="360" y="256"/>
    </contour>
    <contour>
      <point x="247" y="0" type="move" name="bottom"/>
    </contour>
    <contour>
      <point x="226" y="296" type="move" name="top"/>
    </contour>
  </outline>
</glyph>
<glyph name="z" format="1">
  <advance width="330"/>
  <unicode hex="007A"/>
  <outline>
    <contour>
      <point x="141" y="48" type="line"/>
      <point x="148" y="12" type="line"/>
      <point x="309" y="257" type="line"/>
      <point x="309" y="297" type="line"/>
      <point x="288" y="297"/>
      <point x="267" y="296"/>
      <point x="246" y="296" type="curve"/>
      <point x="95" y="296" type="line" smooth="yes"/>
      <point x="75" y="296"/>
      <point x="39" y="296"/>
      <point x="13" y="298" type="curve"/>
      <point x="14" y="269"/>
      <point x="15" y="221"/>
      <point x="15" y="188" type="curve"/>
      <point x="69" y="188" type="line"/>
      <point x="72" y="207"/>
      <point x="74" y="226"/>
      <point x="79" y="246" type="curve"/>
      <point x="93" y="248"/>
      <point x="111" y="250"/>
      <point x="144" y="250" type="curve"/>
      <point x="193" y="250" type="line"/>
      <point x="192" y="284" type="line"/>
      <point x="25" y="38" type="line"/>
      <point x="25" y="-3" type="line"/>
      <point x="46" y="-1"/>
      <point x="68" y="0"/>
      <point x="88" y="0" type="curve"/>
      <point x="237" y="0" type="line" smooth="yes"/>
      <point x="257" y="0"/>
      <point x="294" y="0"/>
      <point x="319" y="-2" type="curve"/>
      <point x="323" y="29"/>
      <point x="328" y="75"/>
      <point x="334" y="112" type="curve"/>
      <point x="279" y="112" type="line"/>
      <point x="274" y="89"/>
      <point x="266" y="65"/>
      <point x="260" y="52" type="curve"/>
      <point x="244" y="50"/>
      <point x="228" y="48"/>
      <point x="207" y="48" type="curve"/>
    </contour>
    <contour>
      <point x="165" y="0" type="move" name="bottom"/>
    </contour>
    <contour>
      <point x="165" y="296" type="move" name="top"/>
    </contour>
  </outline>
</glyph>
<glyph name="braceleft" format="1">
  <advance width="272"/>
  <unicode hex="007B"/>
  <outline>
    <contour>
      <point x="192" y="-48" type="curve"/>
      <point x="192" y="-6"/>
      <point x="219" y="22"/>
      <point x="219" y="75" type="curve"/>
      <point x="219" y="129"/>
      <point x="172" y="170"/>
      <point x="112" y="176" type="curve"/>
      <point x="112" y="167" type="line"/>
      <point x="171" y="172"/>
      <point x="219" y="202"/>
      <point x="219" y="257" type="curve"/>
      <point x="219" y="310"/>
      <point x="192" y="338"/>
      <point x="192" y="380" type="curve"/>
      <point x="192" y="424"/>
      <point x="225" y="440"/>
      <point x="258" y="441" type="curve"/>
      <point x="245" y="483" type="line"/>
      <point x="133" y="472"/>
      <point x="54" y="442"/>
      <point x="54" y="366" type="curve"/>
      <point x="54" y="317"/>
      <point x="95" y="275"/>
      <point x="95" y="237" type="curve"/>
      <point x="95" y="209"/>
      <point x="89" y="194"/>
      <point x="25" y="192" type="curve"/>
      <point x="25" y="140" type="line"/>
      <point x="89" y="138"/>
      <point x="95" y="123"/>
      <point x="95" y="95" type="curve"/>
      <point x="95" y="57"/>
      <point x="54" y="14"/>
      <point x="54" y="-34" type="curve"/>
      <point x="54" y="-110"/>
      <point x="133" y="-140"/>
      <point x="245" y="-151" type="curve"/>
      <point x="258" y="-109" type="line"/>
      <point x="225" y="-108"/>
      <point x="192" y="-93"/>
    </contour>
  </outline>
</glyph>
<glyph name="bar" format="1">
  <advance width="185"/>
  <unicode hex="007C"/>
  <outline>
    <contour>
      <point x="56" y="477" type="line"/>
      <point x="56" y="-145" type="line"/>
      <point x="129" y="-145" type="line"/>
      <point x="129" y="477" type="line"/>
    </contour>
  </outline>
</glyph>
<glyph name="braceright" format="1">
  <advance width="272"/>
  <unicode hex="007D"/>
  <outline>
    <contour>
      <point x="80" y="-48" type="curve"/>
      <point x="80" y="-93"/>
      <point x="47" y="-108"/>
      <point x="15" y="-109" type="curve"/>
      <point x="27" y="-151" type="line"/>
      <point x="139" y="-140"/>
      <point x="218" y="-110"/>
      <point x="218" y="-34" type="curve"/>
      <point x="218" y="14"/>
      <point x="177" y="57"/>
      <point x="177" y="95" type="curve"/>
      <point x="177" y="123"/>
      <point x="183" y="138"/>
      <point x="247" y="140" type="curve"/>
      <point x="247" y="192" type="line"/>
      <point x="183" y="194"/>
      <point x="177" y="209"/>
      <point x="177" y="237" type="curve"/>
      <point x="177" y="275"/>
      <point x="218" y="317"/>
      <point x="218" y="366" type="curve"/>
      <point x="218" y="442"/>
      <point x="139" y="472"/>
      <point x="27" y="483" type="curve"/>
      <point x="15" y="441" type="line"/>
      <point x="47" y="440"/>
      <point x="80" y="424"/>
      <point x="80" y="380" type="curve"/>
      <point x="80" y="338"/>
      <point x="53" y="310"/>
      <point x="53" y="257" type="curve"/>
      <point x="53" y="202"/>
      <point x="101" y="172"/>
      <point x="160" y="167" type="curve"/>
      <point x="160" y="176" type="line"/>
      <point x="100" y="170"/>
      <point x="53" y="129"/>
      <point x="53" y="75" type="curve"/>
      <point x="53" y="22"/>
      <point x="80" y="-6"/>
    </contour>
  </outline>
</glyph>
<glyph name="asciitilde" format="1">
  <advance width="378"/>
  <unicode hex="007E"/>
  <outline>
    <contour>
      <point x="341" y="188" type="curve"/>
      <point x="306" y="211" type="line"/>
      <point x="295" y="193"/>
      <point x="282" y="184"/>
      <point x="264" y="184" type="curve"/>
      <point x="235" y="184"/>
      <point x="172" y="222"/>
      <point x="123" y="222" type="curve"/>
      <point x="84" y="222"/>
      <point x="50" y="195"/>
      <point x="37" y="151" type="curve"/>
      <point x="72" y="128" type="line"/>
      <point x="84" y="147"/>
      <point x="98" y="157"/>
      <point x="114" y="157" type="curve"/>
      <point x="143" y="157"/>
      <point x="206" y="116"/>
      <point x="255" y="116" type="curve"/>
      <point x="294" y="116"/>
      <point x="328" y="146"/>
    </contour>
  </outline>
</glyph>
<glyph name="exclamdown" format="1">
  <advance width="222"/>
  <unicode hex="00A1"/>
  <outline>
    <contour>
      <point x="136" y="121" type="curve"/>
      <point x="86" y="121" type="line"/>
      <point x="73" y="43"/>
      <point x="25" y="-6"/>
      <point x="25" y="-61" type="curve"/>
      <point x="25" y="-118"/>
      <point x="65" y="-151"/>
      <point x="111" y="-151" type="curve"/>
      <point x="156" y="-151"/>
      <point x="197" y="-118"/>
      <point x="197" y="-61" type="curve"/>
      <point x="197" y="-6"/>
      <point x="149" y="43"/>
    </contour>
    <contour>
      <point x="111" y="301" type="curve"/>
      <point x="67" y="301"/>
      <point x="29" y="268"/>
      <point x="29" y="224" type="curve"/>
      <point x="29" y="180"/>
      <point x="67" y="144"/>
      <point x="111" y="144" type="curve"/>
      <point x="156" y="144"/>
      <point x="193" y="180"/>
      <point x="193" y="224" type="curve"/>
      <point x="193" y="268"/>
      <point x="156" y="301"/>
    </contour>
  </outline>
</glyph>
<glyph name="cent" format="1">
  <advance width="339"/>
  <unicode hex="00A2"/>
  <outline>
    <contour>
      <point x="190" y="-5" type="curve"/>
      <point x="246" y="-5"/>
      <point x="303" y="27"/>
      <point x="330" y="89" type="curve"/>
      <point x="305" y="111" type="line"/>
      <point x="279" y="84"/>
      <point x="253" y="76"/>
      <point x="234" y="76" type="curve"/>
      <point x="186" y="76"/>
      <point x="149" y="108"/>
      <point x="149" y="171" type="curve"/>
      <point x="149" y="228"/>
      <point x="182" y="259"/>
      <point x="214" y="253" type="curve"/>
      <point x="184" y="262" type="line"/>
      <point x="240" y="212" type="line" smooth="yes"/>
      <point x="258" y="198"/>
      <point x="271" y="192"/>
      <point x="289" y="192" type="curve"/>
      <point x="308" y="192"/>
      <point x="329" y="206"/>
      <point x="329" y="233" type="curve"/>
      <point x="329" y="275"/>
      <point x="271" y="301"/>
      <point x="209" y="301" type="curve"/>
      <point x="98" y="301"/>
      <point x="22" y="222"/>
      <point x="22" y="139" type="curve"/>
      <point x="22" y="59"/>
      <point x="95" y="-5"/>
    </contour>
    <contour>
      <point x="188" y="392" type="line"/>
      <point x="188" y="-96" type="line"/>
      <point x="248" y="-96" type="line"/>
      <point x="248" y="392" type="line"/>
    </contour>
  </outline>
</glyph>
<glyph name="currency" format="1">
  <advance width="378"/>
  <unicode hex="00A4"/>
  <outline>
    <contour>
      <point x="186" y="68" type="curve"/>
      <point x="272" y="68"/>
      <point x="341" y="136"/>
      <point x="341" y="217" type="curve"/>
      <point x="341" y="300"/>
      <point x="272" y="367"/>
      <point x="186" y="367" type="curve"/>
      <point x="99" y="367"/>
      <point x="30" y="300"/>
      <point x="30" y="217" type="curve"/>
      <point x="30" y="136"/>
      <point x="99" y="68"/>
    </contour>
    <contour>
      <point x="5" y="82" type="line"/>
      <point x="49" y="40" type="line"/>
      <point x="144" y="132" type="line"/>
      <point x="97" y="174" type="line"/>
    </contour>
    <contour>
      <point x="224" y="141" type="line"/>
      <point x="327" y="41" type="line"/>
      <point x="371" y="82" type="line"/>
      <point x="263" y="189" type="line"/>
    </contour>
    <contour>
      <point x="186" y="114" type="curve"/>
      <point x="162" y="114"/>
      <point x="145" y="161"/>
      <point x="145" y="218" type="curve"/>
      <point x="145" y="276"/>
      <point x="163" y="323"/>
      <point x="186" y="322" type="curve"/>
      <point x="208" y="321"/>
      <point x="226" y="276"/>
      <point x="226" y="218" type="curve"/>
      <point x="226" y="161"/>
      <point x="208" y="114"/>
    </contour>
    <contour>
      <point x="5" y="352" type="line"/>
      <point x="81" y="277" type="line"/>
      <point x="131" y="317" type="line"/>
      <point x="49" y="395" type="line"/>
    </contour>
    <contour>
      <point x="234" y="308" type="line"/>
      <point x="284" y="264" type="line"/>
      <point x="372" y="349" type="line"/>
      <point x="323" y="397" type="line"/>
    </contour>
  </outline>
</glyph>
<glyph name="yen" format="1">
  <advance width="435"/>
  <unicode hex="00A5"/>
  <outline>
    <contour>
      <point x="55" y="210" type="line"/>
      <point x="55" y="162" type="line"/>
      <point x="379" y="162" type="line"/>
      <point x="379" y="210" type="line"/>
    </contour>
    <contour>
      <point x="55" y="135" type="line"/>
      <point x="55" y="88" type="line"/>
      <point x="379" y="88" type="line"/>
      <point x="379" y="135" type="line"/>
    </contour>
    <contour>
      <point x="236" y="100" type="line"/>
      <point x="393" y="340" type="line"/>
      <point x="400" y="343"/>
      <point x="413" y="346"/>
      <point x="428" y="346" type="curve"/>
      <point x="425" y="390" type="line"/>
      <point x="393" y="390"/>
      <point x="370" y="389"/>
      <point x="351" y="389" type="curve"/>
      <point x="328" y="389"/>
      <point x="303" y="390"/>
      <point x="269" y="390" type="curve"/>
      <point x="266" y="345" type="line"/>
      <point x="294" y="342"/>
      <point x="313" y="343"/>
      <point x="325" y="341" type="curve"/>
      <point x="242" y="202" type="line"/>
      <point x="263" y="202" type="line"/>
      <point x="179" y="341" type="line"/>
      <point x="190" y="343"/>
      <point x="208" y="342"/>
      <point x="237" y="345" type="curve"/>
      <point x="235" y="390" type="line"/>
      <point x="208" y="390"/>
      <point x="138" y="389"/>
      <point x="108" y="389" type="curve"/>
      <point x="77" y="389"/>
      <point x="42" y="390"/>
      <point x="9" y="390" type="curve"/>
      <point x="7" y="346" type="line"/>
      <point x="24" y="344"/>
      <point x="34" y="342"/>
      <point x="41" y="340" type="curve"/>
      <point x="186" y="100" type="line"/>
      <point x="157" y="185" type="line"/>
      <point x="157" y="89" type="line" smooth="yes"/>
      <point x="157" y="67"/>
      <point x="158" y="57"/>
      <point x="156" y="51" type="curve"/>
      <point x="145" y="44"/>
      <point x="125" y="42"/>
      <point x="100" y="39" type="curve"/>
      <point x="103" y="-4" type="line"/>
      <point x="129" y="-2"/>
      <point x="170" y="1"/>
      <point x="217" y="1" type="curve"/>
      <point x="264" y="1"/>
      <point x="305" y="-2"/>
      <point x="332" y="-4" type="curve"/>
      <point x="335" y="39" type="line"/>
      <point x="309" y="42"/>
      <point x="290" y="44"/>
      <point x="279" y="51" type="curve"/>
      <point x="276" y="57"/>
      <point x="277" y="67"/>
      <point x="277" y="89" type="curve"/>
      <point x="277" y="185" type="line"/>
    </contour>
  </outline>
</glyph>
<glyph name="brokenbar" format="1">
  <advance width="185"/>
  <unicode hex="00A6"/>
  <outline>
    <contour>
      <point x="56" y="477" type="line"/>
      <point x="56" y="231" type="line"/>
      <point x="129" y="231" type="line"/>
      <point x="129" y="477" type="line"/>
    </contour>
    <contour>
      <point x="56" y="100" type="line"/>
      <point x="56" y="-145" type="line"/>
      <point x="129" y="-145" type="line"/>
      <point x="129" y="100" type="line"/>
    </contour>
  </outline>
</glyph>
<glyph name="section" format="1">
  <advance width="336"/>
  <unicode hex="00A7"/>
  <outline>
    <contour>
      <point x="147" y="178" type="curve"/>
      <point x="160" y="165" type="line"/>
      <point x="223" y="163"/>
      <point x="317" y="187"/>
      <point x="317" y="254" type="curve"/>
      <point x="317" y="362"/>
      <point x="146" y="344"/>
      <point x="146" y="392" type="curve"/>
      <point x="146" y="410"/>
      <point x="163" y="419"/>
      <point x="184" y="419" type="curve"/>
      <point x="192" y="419"/>
      <point x="211" y="418"/>
      <point x="221" y="413" type="curve"/>
      <point x="226" y="397"/>
      <point x="231" y="379"/>
      <point x="232" y="371" type="curve"/>
      <point x="288" y="371" type="line"/>
      <point x="286" y="397"/>
      <point x="284" y="415"/>
      <point x="281" y="445" type="curve"/>
      <point x="259" y="456"/>
      <point x="219" y="462"/>
      <point x="177" y="462" type="curve"/>
      <point x="103" y="462"/>
      <point x="35" y="423"/>
      <point x="35" y="370" type="curve"/>
      <point x="35" y="276"/>
      <point x="217" y="283"/>
      <point x="217" y="224" type="curve"/>
      <point x="217" y="200"/>
      <point x="195" y="184"/>
    </contour>
    <contour>
      <point x="149" y="-5" type="curve"/>
      <point x="228" y="-5"/>
      <point x="297" y="37"/>
      <point x="297" y="90" type="curve"/>
      <point x="297" y="181"/>
      <point x="122" y="174"/>
      <point x="122" y="230" type="curve"/>
      <point x="122" y="256"/>
      <point x="144" y="272"/>
      <point x="197" y="279" type="curve"/>
      <point x="184" y="292" type="line"/>
      <point x="118" y="294"/>
      <point x="19" y="267"/>
      <point x="19" y="195" type="curve"/>
      <point x="19" y="96"/>
      <point x="183" y="112"/>
      <point x="183" y="69" type="curve"/>
      <point x="183" y="52"/>
      <point x="169" y="41"/>
      <point x="137" y="41" type="curve"/>
      <point x="130" y="41"/>
      <point x="115" y="44"/>
      <point x="105" y="49" type="curve"/>
      <point x="101" y="67"/>
      <point x="98" y="84"/>
      <point x="97" y="91" type="curve"/>
      <point x="42" y="91" type="line"/>
      <point x="42" y="66"/>
      <point x="42" y="44"/>
      <point x="43" y="14" type="curve"/>
      <point x="63" y="3"/>
      <point x="101" y="-5"/>
    </contour>
  </outline>
</glyph>
<glyph name="copyright" format="1">
  <advance width="418"/>
  <unicode hex="00A9"/>
  <outline>
    <contour>
      <point x="205" y="134" type="curve"/>
      <point x="233" y="134"/>
      <point x="253" y="139"/>
      <point x="266" y="147" type="curve"/>
      <point x="275" y="152"/>
      <point x="279" y="166"/>
      <point x="279" y="173" type="curve"/>
      <point x="277" y="175"/>
      <point x="274" y="177"/>
      <point x="269" y="177" type="curve"/>
      <point x="268" y="177"/>
      <point x="254" y="165"/>
      <point x="248" y="160" type="curve"/>
      <point x="241" y="155"/>
      <point x="233" y="152"/>
      <point x="220" y="152" type="curve"/>
      <point x="180" y="152"/>
      <point x="173" y="192"/>
      <point x="173" y="229" type="curve"/>
      <point x="173" y="267"/>
      <point x="181" y="299"/>
      <point x="209" y="299" type="curve"/>
      <point x="244" y="299"/>
      <point x="256" y="280"/>
      <point x="262" y="265" type="curve"/>
      <point x="265" y="265"/>
      <point x="269" y="264"/>
      <point x="274" y="264" type="curve"/>
      <point x="275" y="264"/>
      <point x="276" y="264"/>
      <point x="276" y="264" type="curve"/>
      <point x="276" y="271"/>
      <point x="270" y="331"/>
      <point x="272" y="313" type="curve"/>
      <point x="250" y="315"/>
      <point x="230" y="317"/>
      <point x="212" y="317" type="curve"/>
      <point x="158" y="317"/>
      <point x="117" y="274"/>
      <point x="117" y="223" type="curve"/>
      <point x="117" y="176"/>
      <point x="158" y="134"/>
    </contour>
  </outline>
</glyph>
<glyph name="ordfeminine" format="1">
  <advance width="322"/>
  <unicode hex="00AA"/>
  <outline>
    <contour>
      <point x="111" y="142" type="curve"/>
      <point x="131" y="142"/>
      <point x="158" y="156"/>
      <point x="182" y="190" type="curve"/>
      <point x="168" y="201" type="line"/>
      <point x="184" y="170" type="line" smooth="yes"/>
      <point x="193" y="152"/>
      <point x="205" y="142"/>
      <point x="229" y="142" type="curve"/>
      <point x="257" y="142"/>
      <point x="276" y="156"/>
      <point x="325" y="176" type="curve"/>
      <point x="325" y="209" type="line"/>
      <point x="310" y="212"/>
      <point x="303" y="212"/>
      <point x="286" y="219" type="curve"/>
      <point x="279" y="237"/>
      <point x="280" y="245"/>
      <point x="280" y="260" type="curve"/>
      <point x="280" y="305" type="line"/>
      <point x="281" y="359"/>
      <point x="235" y="393"/>
      <point x="150" y="393" type="curve"/>
      <point x="129" y="392"/>
      <point x="25" y="353"/>
      <point x="25" y="313" type="curve"/>
      <point x="25" y="293"/>
      <point x="55" y="274"/>
      <point x="111" y="281" type="curve"/>
      <point x="116" y="335" type="line" smooth="yes"/>
      <point x="116" y="334"/>
      <point x="119" y="338"/>
      <point x="124" y="338" type="curve"/>
      <point x="143" y="338"/>
      <point x="164" y="315"/>
      <point x="164" y="297" type="curve"/>
      <point x="164" y="296" type="line"/>
      <point x="69" y="277" type="line" smooth="yes"/>
      <point x="32" y="269"/>
      <point x="19" y="247"/>
      <point x="19" y="220" type="curve"/>
      <point x="19" y="191"/>
      <point x="51" y="142"/>
    </contour>
    <contour>
      <point x="162" y="220" type="curve"/>
      <point x="146" y="220"/>
      <point x="134" y="233"/>
      <point x="134" y="250" type="curve"/>
      <point x="134" y="261"/>
      <point x="141" y="272"/>
      <point x="165" y="269" type="curve"/>
      <point x="165" y="262" type="line"/>
      <point x="165" y="213" type="line"/>
      <point x="163" y="219"/>
      <point x="159" y="220"/>
    </contour>
  </outline>
</glyph>
<glyph name="logicalnot" format="1">
  <advance width="378"/>
  <unicode hex="00AC"/>
  <outline>
    <contour>
      <point x="341" y="75" type="line"/>
      <point x="341" y="262" type="line"/>
      <point x="37" y="262" type="line"/>
      <point x="37" y="193" type="line"/>
      <point x="268" y="193" type="line"/>
      <point x="268" y="75" type="line"/>
    </contour>
  </outline>
</glyph>
<glyph name="degree" format="1">
  <advance width="300"/>
  <unicode hex="00B0"/>
  <outline>
    <contour>
      <point x="149" y="199" type="curve"/>
      <point x="210" y="199"/>
      <point x="258" y="240"/>
      <point x="258" y="296" type="curve"/>
      <point x="258" y="354"/>
      <point x="210" y="396"/>
      <point x="149" y="396" type="curve"/>
      <point x="90" y="396"/>
      <point x="42" y="354"/>
      <point x="42" y="296" type="curve"/>
      <point x="42" y="240"/>
      <point x="90" y="199"/>
    </contour>
    <contour>
      <point x="149" y="250" type="curve"/>
      <point x="122" y="250"/>
      <point x="101" y="269"/>
      <point x="101" y="296" type="curve"/>
      <point x="101" y="326"/>
      <point x="122" y="345"/>
      <point x="149" y="345" type="curve"/>
      <point x="178" y="345"/>
      <point x="199" y="326"/>
      <point x="199" y="296" type="curve"/>
      <point x="199" y="269"/>
      <point x="178" y="250"/>
    </contour>
  </outline>
</glyph>
<glyph name="plusminus" format="1">
  <advance width="378"/>
  <unicode hex="00B1"/>
  <outline>
    <contour>
      <point x="341" y="167" type="line"/>
      <point x="341" y="235" type="line"/>
      <point x="37" y="235" type="line"/>
      <point x="37" y="167" type="line"/>
    </contour>
    <contour>
      <point x="224" y="313" type="line"/>
      <point x="154" y="313" type="line"/>
      <point x="154" y="87" type="line"/>
      <point x="224" y="87" type="line"/>
    </contour>
    <contour>
      <point x="341" y="0" type="line"/>
      <point x="341" y="70" type="line"/>
      <point x="37" y="70" type="line"/>
      <point x="37" y="0" type="line"/>
    </contour>
  </outline>
</glyph>
<glyph name="paragraph" format="1">
  <advance width="437"/>
  <unicode hex="00B6"/>
  <outline>
    <contour>
      <point x="417" y="-4" type="curve"/>
      <point x="419" y="39" type="line"/>
      <point x="402" y="43"/>
      <point x="386" y="45"/>
      <point x="376" y="52" type="curve"/>
      <point x="374" y="58"/>
      <point x="372" y="115"/>
      <point x="372" y="158" type="curve"/>
      <point x="372" y="231" type="line" smooth="yes"/>
      <point x="372" y="275"/>
      <point x="374" y="331"/>
      <point x="376" y="336" type="curve"/>
      <point x="386" y="344"/>
      <point x="404" y="344"/>
      <point x="422" y="345" type="curve"/>
      <point x="420" y="389" type="line"/>
      <point x="400" y="387"/>
      <point x="350" y="387"/>
      <point x="300" y="387" type="curve"/>
      <point x="266" y="387"/>
      <point x="240" y="389"/>
      <point x="192" y="389" type="curve"/>
      <point x="90" y="389"/>
      <point x="19" y="338"/>
      <point x="19" y="262" type="curve"/>
      <point x="19" y="179"/>
      <point x="92" y="132"/>
      <point x="224" y="132" type="curve"/>
      <point x="257" y="132"/>
      <point x="280" y="135"/>
      <point x="345" y="149" type="curve"/>
      <point x="345" y="206" type="line"/>
      <point x="290" y="191"/>
      <point x="260" y="190"/>
      <point x="228" y="190" type="curve"/>
      <point x="176" y="190"/>
      <point x="147" y="223"/>
      <point x="147" y="279" type="curve"/>
      <point x="147" y="313"/>
      <point x="160" y="343"/>
      <point x="209" y="343" type="curve"/>
      <point x="215" y="343"/>
      <point x="218" y="343"/>
      <point x="228" y="342" type="curve"/>
      <point x="229" y="328"/>
      <point x="227" y="308"/>
      <point x="227" y="192" type="curve"/>
      <point x="227" y="103" type="line" smooth="yes"/>
      <point x="227" y="115"/>
      <point x="225" y="58"/>
      <point x="222" y="52" type="curve"/>
      <point x="193" y="44"/>
      <point x="181" y="43"/>
      <point x="161" y="41" type="curve"/>
      <point x="164" y="-4" type="line"/>
      <point x="186" y="-2"/>
      <point x="248" y="-2"/>
      <point x="287" y="-2" type="curve"/>
      <point x="341" y="-2"/>
      <point x="398" y="-2"/>
    </contour>
    <contour>
      <point x="284" y="44" type="line"/>
      <point x="284" y="343" type="line"/>
      <point x="325" y="343" type="line"/>
      <point x="321" y="44" type="line"/>
    </contour>
  </outline>
</glyph>
<glyph name="periodcentered" format="1">
  <advance width="236"/>
  <unicode hex="00B7"/>
  <outline>
    <contour>
      <point x="118" y="71" type="curve"/>
      <point x="164" y="71"/>
      <point x="200" y="105"/>
      <point x="200" y="148" type="curve"/>
      <point x="200" y="192"/>
      <point x="164" y="228"/>
      <point x="118" y="228" type="curve"/>
      <point x="74" y="228"/>
      <point x="36" y="192"/>
      <point x="36" y="148" type="curve"/>
      <point x="36" y="105"/>
      <point x="74" y="71"/>
    </contour>
  </outline>
</glyph>
<glyph name="ordmasculine" format="1">
  <advance width="330"/>
  <unicode hex="00BA"/>
  <outline>
    <contour>
      <point x="167" y="142" type="curve"/>
      <point x="248" y="142"/>
      <point x="313" y="199"/>
      <point x="313" y="272" type="curve"/>
      <point x="313" y="341"/>
      <point x="253" y="393"/>
      <point x="171" y="393" type="curve"/>
      <point x="77" y="393"/>
      <point x="18" y="335"/>
      <point x="18" y="261" type="curve"/>
      <point x="18" y="193"/>
      <point x="81" y="142"/>
    </contour>
    <contour>
      <point x="174" y="193" type="curve"/>
      <point x="157" y="193"/>
      <point x="143" y="239"/>
      <point x="143" y="292" type="curve"/>
      <point x="143" y="330"/>
      <point x="147" y="346"/>
      <point x="157" y="346" type="curve"/>
      <point x="175" y="346"/>
      <point x="188" y="302"/>
      <point x="188" y="240" type="curve"/>
      <point x="188" y="202"/>
      <point x="188" y="193"/>
    </contour>
  </outline>
</glyph>
<glyph name="questiondown" format="1">
  <advance width="278"/>
  <unicode hex="00BF"/>
  <outline>
    <contour>
      <point x="205" y="121" type="curve"/>
      <point x="153" y="121" type="line"/>
      <point x="154" y="103"/>
      <point x="154" y="104"/>
      <point x="154" y="105" type="curve"/>
      <point x="154" y="60"/>
      <point x="21" y="91"/>
      <point x="21" y="4" type="curve"/>
      <point x="21" y="-77"/>
      <point x="114" y="-153"/>
      <point x="209" y="-153" type="curve"/>
      <point x="250" y="-153"/>
      <point x="278" y="-133"/>
      <point x="278" y="-101" type="curve"/>
      <point x="278" y="-66"/>
      <point x="246" y="-44"/>
      <point x="206" y="-44" type="curve"/>
      <point x="178" y="-44"/>
      <point x="155" y="-55"/>
      <point x="130" y="-55" type="curve"/>
      <point x="111" y="-55"/>
      <point x="103" y="-50"/>
      <point x="103" y="-40" type="curve"/>
      <point x="103" y="-9"/>
      <point x="218" y="-19"/>
      <point x="218" y="58" type="curve"/>
      <point x="218" y="78"/>
      <point x="213" y="96"/>
    </contour>
    <contour>
      <point x="180" y="301" type="curve"/>
      <point x="134" y="301"/>
      <point x="98" y="268"/>
      <point x="98" y="224" type="curve"/>
      <point x="98" y="180"/>
      <point x="134" y="144"/>
      <point x="180" y="144" type="curve"/>
      <point x="224" y="144"/>
      <point x="262" y="180"/>
      <point x="262" y="224" type="curve"/>
      <point x="262" y="266"/>
      <point x="225" y="301"/>
    </contour>
  </outline>
</glyph>
<glyph name="AE" format="1">
  <advance width="603"/>
  <unicode hex="00C6"/>
  <outline>
    <contour>
      <point x="464" y="128" type="curve"/>
      <point x="509" y="128" type="line"/>
      <point x="509" y="151"/>
      <point x="507" y="176"/>
      <point x="507" y="198" type="curve"/>
      <point x="507" y="222"/>
      <point x="509" y="243"/>
      <point x="509" y="266" type="curve"/>
      <point x="464" y="266" type="line"/>
      <point x="462" y="252"/>
      <point x="457" y="225"/>
      <point x="456" y="224" type="curve"/>
      <point x="450" y="225"/>
      <point x="432" y="223"/>
      <point x="412" y="223" type="curve"/>
      <point x="393" y="223" type="line" smooth="yes"/>
      <point x="374" y="223"/>
      <point x="358" y="225"/>
      <point x="355" y="226" type="curve"/>
      <point x="355" y="171" type="line"/>
      <point x="358" y="172"/>
      <point x="374" y="174"/>
      <point x="393" y="174" type="curve"/>
      <point x="412" y="174" type="line" smooth="yes"/>
      <point x="432" y="174"/>
      <point x="450" y="172"/>
      <point x="456" y="173" type="curve"/>
      <point x="457" y="172"/>
      <point x="462" y="142"/>
    </contour>
    <contour>
      <point x="118" y="150" type="curve"/>
      <point x="100" y="96" type="line"/>
      <point x="112" y="98"/>
      <point x="134" y="99"/>
      <point x="175" y="99" type="curve"/>
      <point x="214" y="99"/>
      <point x="239" y="98"/>
      <point x="257" y="98" type="curve"/>
      <point x="257" y="150" type="line"/>
      <point x="236" y="149"/>
      <point x="214" y="147"/>
      <point x="175" y="147" type="curve"/>
      <point x="134" y="147"/>
      <point x="139" y="149"/>
    </contour>
    <contour>
      <point x="595" y="112" type="line"/>
      <point x="549" y="120" type="line"/>
      <point x="536" y="99"/>
      <point x="526" y="75"/>
      <point x="509" y="49" type="curve"/>
      <point x="492" y="45"/>
      <point x="487" y="46"/>
      <point x="459" y="46" type="curve"/>
      <point x="449" y="46" type="line" smooth="yes"/>
      <point x="415" y="46"/>
      <point x="397" y="47"/>
      <point x="375" y="50" type="curve"/>
      <point x="374" y="65"/>
      <point x="374" y="93"/>
      <point x="374" y="150" type="curve"/>
      <point x="374" y="255" type="line" smooth="yes"/>
      <point x="374" y="311"/>
      <point x="374" y="331"/>
      <point x="375" y="344" type="curve"/>
      <point x="389" y="346"/>
      <point x="413" y="346"/>
      <point x="424" y="346" type="curve"/>
      <point x="450" y="346" type="line" smooth="yes"/>
      <point x="464" y="346"/>
      <point x="471" y="346"/>
      <point x="487" y="343" type="curve"/>
      <point x="498" y="323"/>
      <point x="501" y="307"/>
      <point x="514" y="279" type="curve"/>
      <point x="563" y="284" type="line"/>
      <point x="539" y="392" type="line"/>
      <point x="514" y="392"/>
      <point x="439" y="388"/>
      <point x="405" y="388" type="curve"/>
      <point x="314" y="388" type="line" smooth="yes"/>
      <point x="278" y="388"/>
      <point x="205" y="390"/>
      <point x="189" y="392" type="curve"/>
      <point x="187" y="348" type="line"/>
      <point x="202" y="348"/>
      <point x="232" y="344"/>
      <point x="238" y="336" type="curve"/>
      <point x="249" y="364" type="line"/>
      <point x="15" y="48" type="line"/>
      <point x="9" y="45"/>
      <point x="5" y="44"/>
      <point x="-18" y="41" type="curve"/>
      <point x="-16" y="-1" type="line"/>
      <point x="8" y="0"/>
      <point x="30" y="-1"/>
      <point x="52" y="-1" type="curve"/>
      <point x="73" y="-1"/>
      <point x="104" y="0"/>
      <point x="123" y="-1" type="curve"/>
      <point x="125" y="41" type="line"/>
      <point x="107" y="44"/>
      <point x="89" y="46"/>
      <point x="79" y="48" type="curve"/>
      <point x="281" y="325" type="line"/>
      <point x="253" y="322" type="line"/>
      <point x="253" y="213" type="line" smooth="yes"/>
      <point x="253" y="115"/>
      <point x="255" y="58"/>
      <point x="255" y="52" type="curve"/>
      <point x="244" y="45"/>
      <point x="223" y="43"/>
      <point x="204" y="39" type="curve"/>
      <point x="207" y="-4" type="line"/>
      <point x="227" y="-2"/>
      <point x="278" y="0"/>
      <point x="314" y="0" type="curve"/>
      <point x="439" y="0" type="line" smooth="yes"/>
      <point x="473" y="0"/>
      <point x="534" y="-4"/>
      <point x="560" y="-4" type="curve"/>
    </contour>
    <contour>
      <point x="314" y="0" type="move" name="bottom"/>
    </contour>
    <contour>
      <point x="314" y="388" type="move" name="top"/>
    </contour>
  </outline>
</glyph>
<glyph name="multiply" format="1">
  <advance width="378"/>
  <unicode hex="00D7"/>
  <outline>
    <contour>
      <point x="335" y="257" type="line"/>
      <point x="284" y="307" type="line"/>
      <point x="43" y="81" type="line"/>
      <point x="93" y="32" type="line"/>
    </contour>
    <contour>
      <point x="335" y="81" type="line"/>
      <point x="93" y="307" type="line"/>
      <point x="43" y="257" type="line"/>
      <point x="284" y="32" type="line"/>
    </contour>
  </outline>
</glyph>
<glyph name="Thorn" format="1">
  <advance width="425"/>
  <unicode hex="00DE"/>
  <outline>
    <contour>
      <point x="16" y="39" type="curve"/>
      <point x="18" y="-4" type="line"/>
      <point x="39" y="-2"/>
      <point x="78" y="1"/>
      <point x="126" y="1" type="curve"/>
      <point x="174" y="1"/>
      <point x="215" y="-2"/>
      <point x="243" y="-4" type="curve"/>
      <point x="246" y="39" type="line"/>
      <point x="219" y="43"/>
      <point x="202" y="45"/>
      <point x="188" y="52" type="curve"/>
      <point x="189" y="58"/>
      <point x="188" y="73"/>
      <point x="188" y="92" type="curve"/>
      <point x="188" y="280" type="line"/>
      <point x="194" y="282"/>
      <point x="200" y="283"/>
      <point x="212" y="283" type="curve"/>
      <point x="251" y="283"/>
      <point x="278" y="255"/>
      <point x="278" y="196" type="curve"/>
      <point x="278" y="157"/>
      <point x="261" y="129"/>
      <point x="217" y="129" type="curve"/>
      <point x="201" y="129"/>
      <point x="185" y="133"/>
      <point x="179" y="135" type="curve"/>
      <point x="179" y="84" type="line"/>
      <point x="192" y="82"/>
      <point x="206" y="80"/>
      <point x="224" y="80" type="curve"/>
      <point x="349" y="80"/>
      <point x="407" y="140"/>
      <point x="407" y="201" type="curve"/>
      <point x="407" y="282"/>
      <point x="339" y="329"/>
      <point x="226" y="329" type="curve"/>
      <point x="198" y="329"/>
      <point x="166" y="325"/>
      <point x="155" y="324" type="curve"/>
      <point x="188" y="278" type="line"/>
      <point x="188" y="326" type="line" smooth="yes"/>
      <point x="188" y="330"/>
      <point x="189" y="332"/>
      <point x="190" y="336" type="curve"/>
      <point x="202" y="344"/>
      <point x="218" y="346"/>
      <point x="237" y="348" type="curve"/>
      <point x="234" y="392" type="line"/>
      <point x="214" y="390"/>
      <point x="174" y="388"/>
      <point x="126" y="388" type="curve"/>
      <point x="78" y="388"/>
      <point x="39" y="390"/>
      <point x="15" y="392" type="curve"/>
      <point x="13" y="348" type="line"/>
      <point x="34" y="346"/>
      <point x="52" y="344"/>
      <point x="61" y="336" type="curve"/>
      <point x="65" y="331"/>
      <point x="67" y="275"/>
      <point x="67" y="231" type="curve"/>
      <point x="67" y="158" type="line" smooth="yes"/>
      <point x="67" y="115"/>
      <point x="65" y="58"/>
      <point x="61" y="52" type="curve"/>
      <point x="52" y="45"/>
      <point x="34" y="43"/>
    </contour>
  </outline>
</glyph>
<glyph name="germandbls" format="1">
  <advance width="466"/>
  <unicode hex="00DF"/>
  <outline>
    <contour>
      <point x="319" y="-5" type="curve"/>
      <point x="406" y="-5"/>
      <point x="460" y="34"/>
      <point x="460" y="101" type="curve"/>
      <point x="460" y="208"/>
      <point x="319" y="196"/>
      <point x="319" y="247" type="curve"/>
      <point x="319" y="278"/>
      <point x="377" y="310"/>
      <point x="379" y="360" type="curve"/>
      <point x="380" y="424"/>
      <point x="319" y="461"/>
      <point x="234" y="461" type="curve"/>
      <point x="120" y="461"/>
      <point x="49" y="395"/>
      <point x="49" y="303" type="curve"/>
      <point x="49" y="245" type="line"/>
      <point x="50" y="143" type="line" smooth="yes"/>
      <point x="51" y="80"/>
      <point x="46" y="52"/>
      <point x="46" y="49" type="curve"/>
      <point x="34" y="41"/>
      <point x="27" y="38"/>
      <point x="6" y="34" type="curve"/>
      <point x="9" y="-3" type="line"/>
      <point x="33" y="-1"/>
      <point x="71" y="1"/>
      <point x="117" y="1" type="curve"/>
      <point x="159" y="1"/>
      <point x="191" y="-1"/>
      <point x="205" y="-3" type="curve"/>
      <point x="205" y="34" type="line"/>
      <point x="195" y="38"/>
      <point x="185" y="41"/>
      <point x="173" y="46" type="curve"/>
      <point x="171" y="54"/>
      <point x="172" y="75"/>
      <point x="171" y="176" type="curve"/>
      <point x="169" y="348" type="line"/>
      <point x="169" y="395"/>
      <point x="191" y="416"/>
      <point x="222" y="416" type="curve"/>
      <point x="260" y="416"/>
      <point x="278" y="394"/>
      <point x="278" y="348" type="curve"/>
      <point x="278" y="283"/>
      <point x="213" y="264"/>
      <point x="213" y="210" type="curve"/>
      <point x="213" y="113"/>
      <point x="353" y="133"/>
      <point x="353" y="67" type="curve"/>
      <point x="353" y="53"/>
      <point x="342" y="41"/>
      <point x="322" y="41" type="curve"/>
      <point x="311" y="41"/>
      <point x="292" y="42"/>
      <point x="275" y="54" type="curve"/>
      <point x="271" y="65"/>
      <point x="268" y="80"/>
      <point x="264" y="101" type="curve"/>
      <point x="215" y="101" type="line"/>
      <point x="216" y="65"/>
      <point x="218" y="47"/>
      <point x="220" y="19" type="curve"/>
      <point x="247" y="6"/>
      <point x="282" y="-5"/>
    </contour>
    <contour>
      <point x="-4" y="284" type="curve"/>
      <point x="-4" y="245" type="line"/>
      <point x="99" y="245" type="line"/>
      <point x="99" y="295" type="line"/>
      <point x="49" y="299" type="line"/>
      <point x="31" y="291"/>
      <point x="13" y="286"/>
    </contour>
  </outline>
</glyph>
<glyph name="ae" format="1">
  <advance width="538"/>
  <unicode hex="00E6"/>
  <outline>
    <contour>
      <point x="154" y="-5" type="curve"/>
      <point x="173" y="-5"/>
      <point x="216" y="11"/>
      <point x="261" y="57" type="curve"/>
      <point x="237" y="95" type="line"/>
      <point x="222" y="79"/>
      <point x="211" y="72"/>
      <point x="190" y="72" type="curve"/>
      <point x="169" y="72"/>
      <point x="145" y="84"/>
      <point x="145" y="102" type="curve"/>
      <point x="145" y="115"/>
      <point x="154" y="124"/>
      <point x="184" y="128" type="curve"/>
      <point x="508" y="164" type="line"/>
      <point x="508" y="244"/>
      <point x="462" y="301"/>
      <point x="381" y="301" type="curve"/>
      <point x="333" y="301"/>
      <point x="292" y="279"/>
      <point x="264" y="244" type="curve"/>
      <point x="313" y="244" type="line"/>
      <point x="287" y="282"/>
      <point x="240" y="301"/>
      <point x="172" y="301" type="curve"/>
      <point x="138" y="298"/>
      <point x="31" y="254"/>
      <point x="31" y="213" type="curve"/>
      <point x="31" y="183"/>
      <point x="66" y="165"/>
      <point x="125" y="175" type="curve"/>
      <point x="130" y="227" type="line" smooth="yes"/>
      <point x="132" y="241"/>
      <point x="138" y="244"/>
      <point x="145" y="244" type="curve"/>
      <point x="178" y="244"/>
      <point x="206" y="215"/>
      <point x="206" y="175" type="curve"/>
      <point x="206" y="149" type="line" smooth="yes"/>
      <point x="206" y="64"/>
      <point x="280" y="-5"/>
      <point x="371" y="-5" type="curve"/>
      <point x="436" y="-5"/>
      <point x="491" y="27"/>
      <point x="515" y="86" type="curve"/>
      <point x="490" y="108" type="line"/>
      <point x="468" y="85"/>
      <point x="443" y="75"/>
      <point x="414" y="75" type="curve"/>
      <point x="357" y="75"/>
      <point x="325" y="117"/>
      <point x="325" y="167" type="curve"/>
      <point x="325" y="176" type="line" smooth="yes"/>
      <point x="325" y="241"/>
      <point x="342" y="256"/>
      <point x="366" y="256" type="curve"/>
      <point x="392" y="256"/>
      <point x="406" y="238"/>
      <point x="406" y="197" type="curve"/>
      <point x="406" y="169" type="line"/>
      <point x="424" y="194" type="line"/>
      <point x="135" y="163" type="line" smooth="yes"/>
      <point x="54" y="153"/>
      <point x="24" y="125"/>
      <point x="24" y="82" type="curve"/>
      <point x="24" y="53"/>
      <point x="64" y="-5"/>
    </contour>
    <contour>
      <point x="266" y="0" type="move" name="bottom"/>
    </contour>
    <contour>
      <point x="266" y="296" type="move" name="top"/>
    </contour>
  </outline>
</glyph>
<glyph name="eth" format="1">
  <advance width="386"/>
  <unicode hex="00F0"/>
  <outline>
    <contour>
      <point x="281" y="243" type="curve"/>
      <point x="302" y="289" type="line"/>
      <point x="280" y="294"/>
      <point x="249" y="300"/>
      <point x="225" y="300" type="curve"/>
      <point x="102" y="300"/>
      <point x="25" y="244"/>
      <point x="25" y="148" type="curve"/>
      <point x="25" y="65"/>
      <point x="98" y="-5"/>
      <point x="200" y="-5" type="curve"/>
      <point x="297" y="-5"/>
      <point x="363" y="61"/>
      <point x="363" y="183" type="curve"/>
      <point x="363" y="308"/>
      <point x="271" y="432"/>
      <point x="149" y="455" type="curve"/>
      <point x="19" y="455" type="line"/>
      <point x="18" y="415" type="line"/>
      <point x="178" y="379"/>
      <point x="244" y="302"/>
      <point x="244" y="147" type="curve"/>
      <point x="244" y="76"/>
      <point x="233" y="48"/>
      <point x="214" y="48" type="curve"/>
      <point x="188" y="48"/>
      <point x="151" y="75"/>
      <point x="151" y="161" type="curve"/>
      <point x="151" y="215"/>
      <point x="179" y="250"/>
      <point x="225" y="250" type="curve"/>
      <point x="242" y="250"/>
      <point x="264" y="246"/>
    </contour>
    <contour>
      <point x="37" y="348" type="line"/>
      <point x="58" y="302" type="line"/>
      <point x="330" y="416" type="line"/>
      <point x="309" y="461" type="line"/>
    </contour>
  </outline>
</glyph>
<glyph name="divide" format="1">
  <advance width="378"/>
  <unicode hex="00F7"/>
  <outline>
    <contour>
      <point x="341" y="134" type="line"/>
      <point x="341" y="204" type="line"/>
      <point x="37" y="204" type="line"/>
      <point x="37" y="134" type="line"/>
    </contour>
    <contour>
      <point x="185" y="5" type="curve"/>
      <point x="214" y="5"/>
      <point x="238" y="27"/>
      <point x="238" y="56" type="curve"/>
      <point x="238" y="85"/>
      <point x="214" y="110"/>
      <point x="185" y="110" type="curve"/>
      <point x="156" y="110"/>
      <point x="131" y="85"/>
      <point x="131" y="56" type="curve"/>
      <point x="131" y="27"/>
      <point x="156" y="5"/>
    </contour>
    <contour>
      <point x="185" y="229" type="curve"/>
      <point x="214" y="229"/>
      <point x="238" y="251"/>
      <point x="238" y="279" type="curve"/>
      <point x="238" y="309"/>
      <point x="214" y="334"/>
      <point x="185" y="334" type="curve"/>
      <point x="156" y="334"/>
      <point x="131" y="309"/>
      <point x="131" y="279" type="curve"/>
      <point x="131" y="251"/>
      <point x="156" y="229"/>
    </contour>
  </outline>
</glyph>
<glyph name="oslash" format="1">
  <advance width="391"/>
  <unicode hex="00F8"/>
  <outline>
    <component base="slashlongcomb" xOffset="-14.422"/>
    <component base="o"/>
    <contour>
      <point x="196" y="296" type="move" name="top"/>
    </contour>
  </outline>
</glyph>
<glyph name="thorn" format="1">
  <advance width="410"/>
  <unicode hex="00FE"/>
  <outline>
    <contour>
      <point x="2" y="-112" type="curve"/>
      <point x="6" y="-151" type="line"/>
      <point x="27" y="-148"/>
      <point x="65" y="-145"/>
      <point x="108" y="-145" type="curve"/>
      <point x="151" y="-145"/>
      <point x="187" y="-148"/>
      <point x="216" y="-151" type="curve"/>
      <point x="219" y="-112" type="line"/>
      <point x="198" y="-109"/>
      <point x="181" y="-105"/>
      <point x="171" y="-98" type="curve"/>
      <point x="170" y="-90"/>
      <point x="168" y="-55"/>
      <point x="168" y="-40" type="curve"/>
      <point x="168" y="0" type="line"/>
      <point x="182" y="-4"/>
      <point x="188" y="-5"/>
      <point x="204" y="-5" type="curve"/>
      <point x="321" y="-5"/>
      <point x="387" y="79"/>
      <point x="387" y="164" type="curve"/>
      <point x="387" y="258"/>
      <point x="321" y="301"/>
      <point x="261" y="301" type="curve"/>
      <point x="223" y="301"/>
      <point x="185" y="277"/>
      <point x="167" y="245" type="curve"/>
      <point x="165" y="246" type="line"/>
      <point x="169" y="355"/>
      <point x="171" y="395"/>
      <point x="175" y="449" type="curve"/>
      <point x="151" y="463" type="line"/>
      <point x="104" y="443"/>
      <point x="47" y="429"/>
      <point x="-7" y="420" type="curve"/>
      <point x="-5" y="379" type="line"/>
      <point x="8" y="380"/>
      <point x="25" y="378"/>
      <point x="47" y="376" type="curve"/>
      <point x="48" y="353"/>
      <point x="51" y="337"/>
      <point x="51" y="227" type="curve"/>
      <point x="49" y="42" type="line" smooth="yes"/>
      <point x="49" y="-55"/>
      <point x="44" y="-93"/>
      <point x="45" y="-98" type="curve"/>
      <point x="34" y="-105"/>
      <point x="20" y="-109"/>
    </contour>
    <contour>
      <point x="204" y="55" type="curve"/>
      <point x="191" y="55"/>
      <point x="179" y="59"/>
      <point x="168" y="62" type="curve"/>
      <point x="168" y="206" type="line"/>
      <point x="176" y="214"/>
      <point x="192" y="222"/>
      <point x="204" y="222" type="curve"/>
      <point x="229" y="222"/>
      <point x="261" y="210"/>
      <point x="261" y="137" type="curve"/>
      <point x="262" y="70"/>
      <point x="235" y="55"/>
    </contour>
  </outline>
</glyph>
<glyph name="Aogonek" format="1">
  <advance width="437"/>
  <unicode hex="0104"/>
  <outline>
    <contour>
      <point x="370" y="-147" type="curve"/>
      <point x="403" y="-147"/>
      <point x="433" y="-136"/>
      <point x="455" y="-114" type="curve"/>
      <point x="433" y="-82" type="line"/>
      <point x="414" y="-99"/>
      <point x="399" y="-104"/>
      <point x="386" y="-104" type="curve"/>
      <point x="367" y="-104"/>
      <point x="352" y="-93"/>
      <point x="352" y="-70" type="curve"/>
      <point x="352" y="-39"/>
      <point x="390" y="-10"/>
      <point x="449" y="0" type="curve"/>
      <point x="451" y="41" type="line"/>
      <point x="437" y="44"/>
      <point x="422" y="44"/>
      <point x="414" y="46" type="curve"/>
      <point x="244" y="400" type="line"/>
      <point x="173" y="361" type="line"/>
      <point x="30" y="48" type="line"/>
      <point x="24" y="45"/>
      <point x="17" y="44"/>
      <point x="-7" y="41" type="curve"/>
      <point x="-4" y="-1" type="line"/>
      <point x="19" y="0"/>
      <point x="51" y="-1"/>
      <point x="72" y="-1" type="curve"/>
      <point x="94" y="-1"/>
      <point x="126" y="0"/>
      <point x="145" y="-1" type="curve"/>
      <point x="148" y="41" type="line"/>
      <point x="129" y="44"/>
      <point x="110" y="46"/>
      <point x="100" y="48" type="curve"/>
      <point x="130" y="134" type="line"/>
      <point x="138" y="154" type="line"/>
      <point x="184" y="269" type="line"/>
      <point x="160" y="286" type="line"/>
      <point x="226" y="150" type="line"/>
      <point x="234" y="125" type="line"/>
      <point x="270" y="46" type="line"/>
      <point x="250" y="43"/>
      <point x="241" y="44"/>
      <point x="222" y="41" type="curve"/>
      <point x="225" y="-1" type="line"/>
      <point x="245" y="0"/>
      <point x="308" y="2"/>
      <point x="337" y="2" type="curve"/>
      <point x="391" y="2" type="line"/>
      <point x="396" y="9" type="line"/>
      <point x="323" y="7"/>
      <point x="271" y="-40"/>
      <point x="271" y="-75" type="curve"/>
      <point x="271" y="-119"/>
      <point x="318" y="-147"/>
    </contour>
    <contour>
      <point x="119" y="157" type="curve"/>
      <point x="119" y="103" type="line"/>
      <point x="133" y="104"/>
      <point x="150" y="106"/>
      <point x="181" y="106" type="curve"/>
      <point x="211" y="106"/>
      <point x="229" y="104"/>
      <point x="243" y="105" type="curve"/>
      <point x="243" y="157" type="line"/>
      <point x="227" y="157"/>
      <point x="211" y="154"/>
      <point x="181" y="154" type="curve"/>
      <point x="150" y="154"/>
      <point x="136" y="157"/>
    </contour>
    <contour>
      <point x="185" y="0" type="move" name="bottom"/>
    </contour>
    <contour>
      <point x="208" y="388" type="move" name="top"/>
    </contour>
  </outline>
</glyph>
